<svg width="15" height="14" viewBox="0 0 15 14" fill="none" xmlns="http://www.w3.org/2000/svg">
<path d="M10.8304 2.62779C9.65383 2.66008 8.74152 2.97976 7.85339 3.28831C6.90358 3.61819 6.00688 3.92931 4.76526 3.942C3.93532 3.95512 3.10404 3.8119 2.28723 3.52928L1.70703 3.32847V10.8019L1.99841 10.9053C2.75923 11.1743 3.53715 11.3295 4.31152 11.3667C4.43446 11.3724 4.55485 11.3752 4.67297 11.3752C5.99116 11.3752 7.00032 11.0255 7.979 10.6874C9.01063 10.3304 9.98371 9.99333 11.3115 10.0559C12.0001 10.0887 12.6935 10.228 13.3734 10.4686L13.957 10.6754V3.19944L13.6691 3.09434C12.9144 2.8209 12.1348 2.66575 11.3517 2.63206C11.1721 2.62408 10.9985 2.62318 10.8304 2.62779ZM10.8544 3.49681C11.0027 3.49222 11.1552 3.49228 11.3132 3.49852C11.4768 3.50561 11.6406 3.52044 11.8037 3.53953C11.9204 4.01803 12.3488 4.37437 12.8633 4.37437C12.9381 4.37437 13.0112 4.36615 13.082 4.35215V8.33409C13.0112 8.32009 12.9381 8.31187 12.8633 8.31187C12.3226 8.31187 11.8767 8.70481 11.7883 9.2202C11.643 9.20498 11.4976 9.19466 11.3525 9.18773C9.85848 9.1221 8.75677 9.4978 7.6919 9.86705C6.65896 10.2249 5.68033 10.5632 4.35339 10.5002C4.18897 10.4923 4.02426 10.4765 3.8595 10.4566C3.74183 9.97949 3.31434 9.62437 2.80078 9.62437C2.72597 9.62437 2.65291 9.63259 2.58203 9.64659V5.66465C2.65291 5.67865 2.72597 5.68687 2.80078 5.68687C3.34524 5.68687 3.79266 5.28817 3.87659 4.76744C4.17624 4.79876 4.47618 4.81688 4.77466 4.81187C6.15935 4.79787 7.16619 4.44725 8.1405 4.10862C8.99839 3.81003 9.8164 3.52894 10.8544 3.49681ZM7.83203 4.81187C6.86691 4.81187 6.08203 5.79318 6.08203 6.99937C6.08203 8.20556 6.86691 9.18687 7.83203 9.18687C8.79716 9.18687 9.58203 8.20556 9.58203 6.99937C9.58203 5.79318 8.79716 4.81187 7.83203 4.81187ZM7.83203 5.68687C8.30628 5.68687 8.70703 6.288 8.70703 6.99937C8.70703 7.71075 8.30628 8.31187 7.83203 8.31187C7.35778 8.31187 6.95703 7.71075 6.95703 6.99937C6.95703 6.288 7.35778 5.68687 7.83203 5.68687ZM11.1133 5.68687C10.9392 5.68687 10.7723 5.75601 10.6492 5.87908C10.5262 6.00215 10.457 6.16907 10.457 6.34312C10.457 6.51717 10.5262 6.68409 10.6492 6.80716C10.7723 6.93023 10.9392 6.99937 11.1133 6.99937C11.2873 6.99937 11.4542 6.93023 11.5773 6.80716C11.7004 6.68409 11.7695 6.51717 11.7695 6.34312C11.7695 6.16907 11.7004 6.00215 11.5773 5.87908C11.4542 5.75601 11.2873 5.68687 11.1133 5.68687ZM4.55078 6.99937C4.37673 6.99937 4.20981 7.06851 4.08674 7.19158C3.96367 7.31465 3.89453 7.48157 3.89453 7.65562C3.89453 7.82967 3.96367 7.99659 4.08674 8.11966C4.20981 8.24273 4.37673 8.31187 4.55078 8.31187C4.72483 8.31187 4.89175 8.24273 5.01482 8.11966C5.13789 7.99659 5.20703 7.82967 5.20703 7.65562C5.20703 7.48157 5.13789 7.31465 5.01482 7.19158C4.89175 7.06851 4.72483 6.99937 4.55078 6.99937Z" fill="#A3A3A3"/>
</svg>
