<svg width="24" height="24" viewBox="0 0 24 24" fill="none" xmlns="http://www.w3.org/2000/svg">
<g id="Frame 1094241">
<rect id="Rectangle 5307" x="11" y="2" width="2" height="4" rx="1" fill="white"/>
<path id="Vector 75" d="M17.7 13.4443V10.7C17.7 7.55198 15.148 5 12 5C8.85198 5 6.3 7.55198 6.3 10.7V13.4443C6.3 14.0625 6.08963 14.6622 5.70349 15.1449L5.36901 15.563C4.58329 16.5451 5.28256 18 6.54031 18H17.4597C18.7174 18 19.4167 16.5451 18.631 15.563L18.2965 15.1449C17.9104 14.6622 17.7 14.0625 17.7 13.4443Z" stroke="white" stroke-width="2"/>
<path id="Rectangle 5308" d="M14.5 18.5V18.5C14.5 19.8807 13.3807 21 12 21V21C10.6193 21 9.5 19.8807 9.5 18.5V18.5" stroke="white" stroke-width="2"/>
</g>
</svg>
