<svg width="25" height="24" viewBox="0 0 25 24" fill="none" xmlns="http://www.w3.org/2000/svg">
<path d="M24.5 12C24.5 18.6274 19.1274 24 12.5 24C5.87258 24 0.5 18.6274 0.5 12C0.5 5.37258 5.87258 0 12.5 0C19.1274 0 24.5 5.37258 24.5 12Z" fill="#D9D9D9"/>
<path d="M10.25 7L10.0938 7.20312L9.5 8H6V17H19V8H15.5L14.9062 7.20312L14.75 7H10.25ZM10.75 8H14.25L14.8438 8.79688L15 9H18V16H7V9H10L10.1562 8.79688L10.75 8ZM8.5 9.5C8.22461 9.5 8 9.72461 8 10C8 10.2754 8.22461 10.5 8.5 10.5C8.77539 10.5 9 10.2754 9 10C9 9.72461 8.77539 9.5 8.5 9.5ZM12.5 9.5C10.8496 9.5 9.5 10.8496 9.5 12.5C9.5 14.1504 10.8496 15.5 12.5 15.5C14.1504 15.5 15.5 14.1504 15.5 12.5C15.5 10.8496 14.1504 9.5 12.5 9.5ZM12.5 10.5C13.6113 10.5 14.5 11.3887 14.5 12.5C14.5 13.6113 13.6113 14.5 12.5 14.5C11.3887 14.5 10.5 13.6113 10.5 12.5C10.5 11.3887 11.3887 10.5 12.5 10.5Z" fill="white"/>
</svg>
