<svg width="41" height="40" viewBox="0 0 41 40" fill="none" xmlns="http://www.w3.org/2000/svg">
<rect x="0.5" width="40" height="40" rx="20" fill="#737373"/>
<path d="M20.5 25.5C21.75 25.5 22.8127 25.0627 23.688 24.188C24.5627 23.3127 25 22.25 25 21C25 19.75 24.5627 18.6873 23.688 17.812C22.8127 16.9373 21.75 16.5 20.5 16.5C19.25 16.5 18.1873 16.9373 17.312 17.812C16.4373 18.6873 16 19.75 16 21C16 22.25 16.4373 23.3127 17.312 24.188C18.1873 25.0627 19.25 25.5 20.5 25.5ZM12.5 29C11.95 29 11.4793 28.8043 11.088 28.413C10.696 28.021 10.5 27.55 10.5 27V15C10.5 14.45 10.696 13.9793 11.088 13.588C11.4793 13.196 11.95 13 12.5 13H15.65L16.9 11.65C17.0833 11.4333 17.304 11.2707 17.562 11.162C17.8207 11.054 18.0917 11 18.375 11H22.625C22.9083 11 23.1793 11.054 23.438 11.162C23.696 11.2707 23.9167 11.4333 24.1 11.65L25.35 13H28.5C29.05 13 29.521 13.196 29.913 13.588C30.3043 13.9793 30.5 14.45 30.5 15V27C30.5 27.55 30.3043 28.021 29.913 28.413C29.521 28.8043 29.05 29 28.5 29H12.5Z" fill="#D4D4D4"/>
</svg>
