<svg width="15" height="14" viewBox="0 0 15 14" fill="none" xmlns="http://www.w3.org/2000/svg">
<path d="M2.6875 2.625C1.96802 2.625 1.375 3.21802 1.375 3.9375V10.0625C1.375 10.782 1.96802 11.375 2.6875 11.375H12.3125C13.032 11.375 13.625 10.782 13.625 10.0625V3.9375C13.625 3.21802 13.032 2.625 12.3125 2.625H2.6875ZM2.6875 3.5H12.3125C12.5603 3.5 12.75 3.6897 12.75 3.9375V4.8125H2.6875V5.6875H12.75V10.0625C12.75 10.3103 12.5603 10.5 12.3125 10.5H2.6875C2.4397 10.5 2.25 10.3103 2.25 10.0625V3.9375C2.25 3.6897 2.4397 3.5 2.6875 3.5Z" fill="#A3A3A3"/>
</svg>
