<svg width="24" height="24" viewBox="0 0 24 24" fill="none" xmlns="http://www.w3.org/2000/svg">
<path fill-rule="evenodd" clip-rule="evenodd" d="M12 20C16.4183 20 20 16.4183 20 12C20 7.58172 16.4183 4 12 4C7.58172 4 4 7.58172 4 12C4 16.4183 7.58172 20 12 20ZM12 22C17.5228 22 22 17.5228 22 12C22 6.47715 17.5228 2 12 2C6.47715 2 2 6.47715 2 12C2 17.5228 6.47715 22 12 22Z" fill="#7FEEF0"/>
<path fill-rule="evenodd" clip-rule="evenodd" d="M12 5.5C12.5523 5.5 13 5.94772 13 6.5V11.5858L14.9571 13.5429C15.3476 13.9334 15.3476 14.5666 14.9571 14.9571C14.5666 15.3476 13.9334 15.3476 13.5429 14.9571L11.2929 12.7071C11.1054 12.5196 11 12.2652 11 12V6.5C11 5.94772 11.4477 5.5 12 5.5Z" fill="#7FEEF0"/>
</svg>
