<svg width="24" height="24" viewBox="0 0 24 24" fill="none" xmlns="http://www.w3.org/2000/svg">
<g id="Frame 1094216">
<path id="Vector" d="M15.8506 11.2815L15.8505 11.2816C14.9615 12.117 14.5 13.2453 14.5 14.7229C14.5 15.6176 14.8295 16.6208 15.5463 17.7422C16.2625 18.8622 17.3608 20.0973 18.8587 21.4469C18.8742 21.4594 18.8962 21.4728 18.9285 21.4852C18.9589 21.4968 18.9819 21.5 19 21.5C19.0181 21.5 19.0411 21.4968 19.0715 21.4852C19.1038 21.4728 19.1258 21.4594 19.1413 21.4469C20.6392 20.0973 21.7375 18.8622 22.4537 17.7422L15.8506 11.2815ZM15.8506 11.2815C16.7672 10.4198 17.8102 10 19 10C20.1898 10 21.2328 10.4198 22.1494 11.2815L22.1495 11.2816M15.8506 11.2815L22.1495 11.2816M22.1495 11.2816C23.0385 12.117 23.5 13.2453 23.5 14.7229M22.1495 11.2816L23.5 14.7229M23.5 14.7229C23.5 15.6176 23.1706 16.6208 22.4538 17.7421L23.5 14.7229Z" stroke="#A3A3A3"/>
<circle id="Ellipse 6" cx="19" cy="14.5" r="1.25" fill="#A3A3A3"/>
<path id="Vector_2" d="M8 22V4.5M16 7.5V2.5M23.5 8.75V5.26828C23.5 4.81523 23.1954 4.41878 22.7577 4.30204L16.2496 2.56656C16.0859 2.5229 15.9138 2.52156 15.7494 2.56265L8.2506 4.43735C8.08623 4.47844 7.91411 4.4771 7.75041 4.43344L1.75766 2.83538C1.12282 2.66608 0.5 3.14458 0.5 3.80161V19.2317C0.5 19.6848 0.804584 20.0812 1.24234 20.198L7.75041 21.9334C7.91411 21.9771 8.08623 21.9784 8.2506 21.9373L12 20.9687L14 20.5" stroke="#A3A3A3" stroke-linecap="round"/>
</g>
</svg>
