<svg width="24" height="24" viewBox="0 0 24 24" fill="none" xmlns="http://www.w3.org/2000/svg">
<g id="Frame 1094216">
<path id="Subtract" fill-rule="evenodd" clip-rule="evenodd" d="M18.75 21.9522C18.8333 21.9841 18.9167 22 19 22C19.0833 22 19.1667 21.9841 19.25 21.9522C19.3333 21.9204 19.4062 21.8779 19.4688 21.8248C20.9896 20.4554 22.125 19.1843 22.875 18.0115C23.625 16.8382 24 15.742 24 14.7229C24 13.1306 23.4973 11.862 22.4919 10.9172C21.4869 9.9724 20.3229 9.5 19 9.5C17.6771 9.5 16.5131 9.9724 15.5081 10.9172C14.5027 11.862 14 13.1306 14 14.7229C14 15.742 14.375 16.8382 15.125 18.0115C15.875 19.1843 17.0104 20.4554 18.5312 21.8248C18.5938 21.8779 18.6667 21.9204 18.75 21.9522ZM19 15.75C19.6904 15.75 20.25 15.1904 20.25 14.5C20.25 13.8096 19.6904 13.25 19 13.25C18.3096 13.25 17.75 13.8096 17.75 14.5C17.75 15.1904 18.3096 15.75 19 15.75Z" fill="#F1F1F1"/>
<path id="Subtract_2" fill-rule="evenodd" clip-rule="evenodd" d="M7.75041 21.9334L1.24234 20.198C0.804584 20.0812 0.5 19.6848 0.5 19.2317V3.80161C0.5 3.14458 1.12282 2.66608 1.75766 2.83538L7.75041 4.43344C7.91411 4.4771 8.08623 4.47844 8.2506 4.43735L15.7494 2.56265C15.8316 2.5421 15.9157 2.53217 15.9997 2.53282C16.0838 2.53348 16.1677 2.54473 16.2496 2.56656L22.7577 4.30204C23.1954 4.41878 23.5 4.81523 23.5 5.26828V9.5C23.5 9.5 22.1157 8.38025 20.5 8C19.2728 7.71117 18.1045 7.68991 17 8.04553V6C17 5.44772 16.5523 5 16 5C15.4477 5 15 5.44772 15 6V9.00927C14.5277 9.32465 13.9633 9.80498 13.5 10.5C12.5 12 12.4705 13 12.4705 13C12 17.5 14.625 20.2422 14.625 20.2422L12 20.9687L8.2506 21.9373C8.16833 21.9579 8.08412 21.9679 8 21.9672C7.91605 21.9665 7.83218 21.9552 7.75041 21.9334ZM8 6C7.44772 6 7 6.44772 7 7V19C7 19.5523 7.44772 20 8 20C8.55229 20 9 19.5523 9 19V7C9 6.44772 8.55229 6 8 6Z" fill="#F1F1F1"/>
</g>
</svg>
