<svg width="14" height="14" viewBox="0 0 14 14" fill="none" xmlns="http://www.w3.org/2000/svg">
<path id="Star 37" d="M6.25762 1.40874C6.52634 0.739562 7.47366 0.739563 7.74238 1.40874L8.88184 4.24625C8.99628 4.53121 9.26372 4.72552 9.5701 4.7463L12.6208 4.95315C13.3403 5.00194 13.633 5.90288 13.0797 6.36524L10.7331 8.32577C10.4975 8.52266 10.3953 8.83707 10.4703 9.13487L11.2163 12.1002C11.3922 12.7995 10.6258 13.3564 10.0151 12.9729L7.42537 11.3471C7.16529 11.1838 6.83471 11.1838 6.57463 11.3471L3.98494 12.9729C3.37421 13.3564 2.60782 12.7995 2.78375 12.1002L3.52975 9.13487C3.60467 8.83707 3.50251 8.52266 3.26686 8.32577L0.920339 6.36524C0.366955 5.90288 0.659691 5.00194 1.37915 4.95315L4.4299 4.7463C4.73628 4.72552 5.00372 4.53121 5.11816 4.24625L6.25762 1.40874Z" fill="#FAD73B" stroke="#FAD73B" stroke-width="0.576"/>
</svg>
