<svg width="24" height="24" viewBox="0 0 24 24" fill="none" xmlns="http://www.w3.org/2000/svg">
<g id="Frame 1094211">
<path id="Rectangle 5229 (Stroke)" fill-rule="evenodd" clip-rule="evenodd" d="M2 4H22C23.1046 4 24 4.89543 24 6V20C24 21.1046 23.1046 22 22 22H2C0.895432 22 0 21.1046 0 20V6C0 4.89543 0.895431 4 2 4ZM2 5C1.44772 5 1 5.44772 1 6V20C1 20.5523 1.44772 21 2 21H22C22.5523 21 23 20.5523 23 20V6C23 5.44772 22.5523 5 22 5H2Z" fill="#A3A3A3"/>
<path id="Line 4 (Stroke)" fill-rule="evenodd" clip-rule="evenodd" d="M8 2C8.27614 2 8.5 2.22386 8.5 2.5L8.5 6.5C8.5 6.77614 8.27614 7 8 7C7.72386 7 7.5 6.77614 7.5 6.5L7.5 2.5C7.5 2.22386 7.72386 2 8 2Z" fill="#A3A3A3"/>
<path id="Line 6 (Stroke)" fill-rule="evenodd" clip-rule="evenodd" d="M24 8.5C24 8.77614 23.7761 9 23.5 9L0.5 9C0.223858 9 0 8.77614 0 8.5C0 8.22386 0.223858 8 0.5 8L23.5 8C23.7761 8 24 8.22386 24 8.5Z" fill="#A3A3A3"/>
<path id="Line 5 (Stroke)" fill-rule="evenodd" clip-rule="evenodd" d="M16 2C16.2761 2 16.5 2.22386 16.5 2.5L16.5 6.5C16.5 6.77614 16.2761 7 16 7C15.7239 7 15.5 6.77614 15.5 6.5L15.5 2.5C15.5 2.22386 15.7239 2 16 2Z" fill="#A3A3A3"/>
<path id="Vector 70 (Stroke)" fill-rule="evenodd" clip-rule="evenodd" d="M15.3536 12.6464C15.1583 12.4512 14.8417 12.4512 14.6464 12.6464L10.6464 16.6464C10.4512 16.8417 10.4512 17.1583 10.6464 17.3536C10.8417 17.5488 11.1583 17.5488 11.3536 17.3536L15.3536 13.3536C15.5488 13.1583 15.5488 12.8417 15.3536 12.6464Z" fill="#A3A3A3"/>
<path id="Vector 71 (Stroke)" fill-rule="evenodd" clip-rule="evenodd" d="M8.64645 14.6464C8.84171 14.4512 9.15829 14.4512 9.35355 14.6464L11.3536 16.6464C11.5488 16.8417 11.5488 17.1583 11.3536 17.3536C11.1583 17.5488 10.8417 17.5488 10.6464 17.3536L8.64645 15.3536C8.45118 15.1583 8.45118 14.8417 8.64645 14.6464Z" fill="#A3A3A3"/>
</g>
</svg>
