<svg width="24" height="24" viewBox="0 0 24 24" fill="none" xmlns="http://www.w3.org/2000/svg">
<g id="Frame 1094223">
<path id="Rectangle 5229 (Stroke)" fill-rule="evenodd" clip-rule="evenodd" d="M3 3H21C22.6569 3 24 4.34315 24 6V19C24 20.6569 22.6569 22 21 22H3C1.34315 22 0 20.6569 0 19V6C0 4.34315 1.34315 3 3 3ZM3 5C2.44772 5 2 5.44772 2 6V19C2 19.5523 2.44772 20 3 20H21C21.5523 20 22 19.5523 22 19V6C22 5.44772 21.5523 5 21 5H3Z" fill="#F1F1F1"/>
<path id="Line 4 (Stroke)" fill-rule="evenodd" clip-rule="evenodd" d="M8 1.5C8.55228 1.5 9 1.94772 9 2.5L9 6.5C9 7.05228 8.55228 7.5 8 7.5C7.44772 7.5 7 7.05228 7 6.5L7 2.5C7 1.94772 7.44772 1.5 8 1.5Z" fill="#F1F1F1"/>
<path id="Line 6 (Stroke)" fill-rule="evenodd" clip-rule="evenodd" d="M24 8.5C24 8.77614 23.7761 9 23.5 9L0.5 9C0.223858 9 0 8.77614 0 8.5C0 8.22386 0.223858 8 0.5 8L23.5 8C23.7761 8 24 8.22386 24 8.5Z" fill="#F1F1F1"/>
<path id="Line 5 (Stroke)" fill-rule="evenodd" clip-rule="evenodd" d="M16 1.5C16.5523 1.5 17 1.94772 17 2.5L17 6.5C17 7.05228 16.5523 7.5 16 7.5C15.4477 7.5 15 7.05228 15 6.5L15 2.5C15 1.94772 15.4477 1.5 16 1.5Z" fill="#F1F1F1"/>
<path id="Subtract" fill-rule="evenodd" clip-rule="evenodd" d="M1 9.5C1 9.22386 1.22386 9 1.5 9H22.5C22.7761 9 23 9.22386 23 9.5V20.5C23 20.7761 22.7761 21 22.5 21H1.5C1.22386 21 1 20.7761 1 20.5V9.5ZM15.7071 12.2929C15.3166 11.9024 14.6834 11.9024 14.2929 12.2929L11 15.5858L9.70711 14.2929C9.31658 13.9024 8.68342 13.9024 8.29289 14.2929C7.90237 14.6834 7.90237 15.3166 8.29289 15.7071L10.2917 17.7059C10.2921 17.7063 10.2925 17.7067 10.2929 17.7071C10.6834 18.0976 11.3166 18.0976 11.7071 17.7071L15.7071 13.7071C16.0976 13.3166 16.0976 12.6834 15.7071 12.2929Z" fill="#F1F1F1"/>
</g>
</svg>
