<svg width="24" height="24" viewBox="0 0 24 24" fill="none" xmlns="http://www.w3.org/2000/svg">
<path fill-rule="evenodd" clip-rule="evenodd" d="M2.5 11.5C2.22386 11.5 2 11.7239 2 12C2 12.2761 2.22386 12.5 2.5 12.5H6.5C6.77614 12.5 7 12.2761 7 12C7 11.7239 6.77614 11.5 6.5 11.5H2.5Z" fill="#171717"/>
<path fill-rule="evenodd" clip-rule="evenodd" d="M17.5 11.5C17.2239 11.5 17 11.7239 17 12C17 12.2761 17.2239 12.5 17.5 12.5H21.5C21.7761 12.5 22 12.2761 22 12C22 11.7239 21.7761 11.5 21.5 11.5H17.5Z" fill="#171717"/>
<path fill-rule="evenodd" clip-rule="evenodd" d="M11.5 6.49965V2.50035C11.5 2.22421 11.7239 2 12 2C12.2761 2 12.5 2.22386 12.5 2.5V6.5C12.5 6.77614 12.2761 7 12 7C11.7239 7 11.5 6.77579 11.5 6.49965C11.5 6.49977 11.5 6.49953 11.5 6.49965Z" fill="#171717"/>
<path fill-rule="evenodd" clip-rule="evenodd" d="M11.5 21.4997V17.5003C11.5 17.2242 11.7239 17 12 17C12.2761 17 12.5 17.2239 12.5 17.5V21.5C12.5 21.7761 12.2761 22 12 22C11.7239 22 11.5 21.7758 11.5 21.4997C11.5 21.4998 11.5 21.4995 11.5 21.4997Z" fill="#171717"/>
<path fill-rule="evenodd" clip-rule="evenodd" d="M3 12C3 16.9706 7.02944 21 12 21C16.9706 21 21 16.9706 21 12C21 7.02944 16.9706 3 12 3C7.02944 3 3 7.02944 3 12ZM12 2C6.47715 2 2 6.47715 2 12C2 17.5228 6.47715 22 12 22C17.5228 22 22 17.5228 22 12C22 6.47715 17.5228 2 12 2Z" fill="#171717"/>
<path d="M10 12C10 10.8954 10.8954 10 12 10C13.1046 10 14 10.8954 14 12C14 13.1046 13.1046 14 12 14C10.8954 14 10 13.1046 10 12Z" fill="#171717"/>
<path fill-rule="evenodd" clip-rule="evenodd" d="M11 12C11 12.5523 11.4477 13 12 13C12.5523 13 13 12.5523 13 12C13 11.4477 12.5523 11 12 11C11.4477 11 11 11.4477 11 12ZM12 10C10.8954 10 10 10.8954 10 12C10 13.1046 10.8954 14 12 14C13.1046 14 14 13.1046 14 12C14 10.8954 13.1046 10 12 10Z" fill="#171717"/>
</svg>
