<svg width="16" height="17" viewBox="0 0 16 17" fill="none" xmlns="http://www.w3.org/2000/svg">
<g id="half">
<path id="Star 37" d="M7.25762 2.12871C7.52634 1.45953 8.47366 1.45953 8.74238 2.12871L9.88184 4.96622C9.99628 5.25118 10.2637 5.44549 10.5701 5.46627L13.6208 5.67312C14.3403 5.72191 14.633 6.62285 14.0797 7.08521L11.7331 9.04574C11.4975 9.24263 11.3953 9.55704 11.4703 9.85484L12.2163 12.8202C12.3922 13.5195 11.6258 14.0763 11.0151 13.6929L8.42537 12.0671C8.16529 11.9038 7.83471 11.9038 7.57463 12.0671L4.98494 13.6929C4.37421 14.0763 3.60782 13.5195 3.78375 12.8202L4.52975 9.85484C4.60467 9.55704 4.50251 9.24263 4.26686 9.04574L1.92034 7.08521C1.36695 6.62285 1.65969 5.72191 2.37915 5.67312L5.4299 5.46627C5.73628 5.44549 6.00372 5.25118 6.11816 4.96622L7.25762 2.12871Z" fill="#FFFCF1" stroke="#FAD73B" stroke-width="0.576"/>
<mask id="mask0_180_30609" style="mask-type:alpha" maskUnits="userSpaceOnUse" x="1" y="1" width="14" height="14">
<path id="Star 36" d="M7.25762 2.12871C7.52634 1.45953 8.47366 1.45953 8.74238 2.12871L9.88184 4.96622C9.99628 5.25118 10.2637 5.44549 10.5701 5.46627L13.6208 5.67312C14.3403 5.72191 14.633 6.62285 14.0797 7.08521L11.7331 9.04574C11.4975 9.24263 11.3953 9.55704 11.4703 9.85484L12.2163 12.8202C12.3922 13.5195 11.6258 14.0763 11.0151 13.6929L8.42537 12.0671C8.16529 11.9038 7.83471 11.9038 7.57463 12.0671L4.98494 13.6929C4.37421 14.0763 3.60782 13.5195 3.78375 12.8202L4.52975 9.85484C4.60467 9.55704 4.50251 9.24263 4.26686 9.04574L1.92034 7.08521C1.36695 6.62285 1.65969 5.72191 2.37915 5.67312L5.4299 5.46627C5.73628 5.44549 6.00372 5.25118 6.11816 4.96622L7.25762 2.12871Z" fill="#FFFCF1" stroke="#FAD73B" stroke-width="0.576"/>
</mask>
<g mask="url(#mask0_180_30609)">
<rect id="Rectangle 22" x="1.85187" y="1.7616" width="6.2963" height="11.8519" fill="#FAD73B"/>
</g>
</g>
</svg>
