<svg width="16" height="17" viewBox="0 0 16 17" fill="none" xmlns="http://www.w3.org/2000/svg">
<g id="half">
<path id="Star 37" d="M7.25762 2.36894C7.52634 1.69977 8.47366 1.69977 8.74238 2.36894L9.88184 5.20645C9.99628 5.49142 10.2637 5.68573 10.5701 5.7065L13.6208 5.91336C14.3403 5.96214 14.633 6.86309 14.0797 7.32544L11.7331 9.28598C11.4975 9.48287 11.3953 9.79727 11.4703 10.0951L12.2163 13.0604C12.3922 13.7598 11.6258 14.3166 11.0151 13.9331L8.42537 12.3073C8.16529 12.144 7.83471 12.144 7.57463 12.3073L4.98494 13.9331C4.37421 14.3166 3.60782 13.7598 3.78375 13.0604L4.52975 10.0951C4.60467 9.79727 4.50251 9.48287 4.26686 9.28598L1.92034 7.32544C1.36695 6.86309 1.65969 5.96214 2.37915 5.91336L5.4299 5.7065C5.73628 5.68573 6.00372 5.49141 6.11816 5.20645L7.25762 2.36894Z" fill="#FFFCF1" stroke="#FAD73B" stroke-width="0.576"/>
<mask id="mask0_180_30541" style="mask-type:alpha" maskUnits="userSpaceOnUse" x="1" y="1" width="14" height="14">
<path id="Star 36" d="M7.25762 2.36894C7.52634 1.69977 8.47366 1.69977 8.74238 2.36894L9.88184 5.20645C9.99628 5.49142 10.2637 5.68573 10.5701 5.7065L13.6208 5.91336C14.3403 5.96214 14.633 6.86309 14.0797 7.32544L11.7331 9.28598C11.4975 9.48287 11.3953 9.79727 11.4703 10.0951L12.2163 13.0604C12.3922 13.7598 11.6258 14.3166 11.0151 13.9331L8.42537 12.3073C8.16529 12.144 7.83471 12.144 7.57463 12.3073L4.98494 13.9331C4.37421 14.3166 3.60782 13.7598 3.78375 13.0604L4.52975 10.0951C4.60467 9.79727 4.50251 9.48287 4.26686 9.28598L1.92034 7.32544C1.36695 6.86309 1.65969 5.96214 2.37915 5.91336L5.4299 5.7065C5.73628 5.68573 6.00372 5.49141 6.11816 5.20645L7.25762 2.36894Z" fill="#FFFCF1" stroke="#FAD73B" stroke-width="0.576"/>
</mask>
<g mask="url(#mask0_180_30541)">
<rect id="Rectangle 22" x="1.85187" y="2.00195" width="6.2963" height="11.8519" fill="#FAD73B"/>
</g>
</g>
</svg>
