<svg width="24" height="24" viewBox="0 0 24 24" fill="none" xmlns="http://www.w3.org/2000/svg">
<g id="Prop=heart, State=ON">
<path id="Vector" d="M8.36162 19.6787L8.3609 19.678C6.92284 18.3312 5.69074 17.1305 4.66415 16.0758C3.64053 15.0242 2.79914 14.0379 2.13812 13.1167C1.47861 12.1976 1.00106 11.3157 0.700541 10.4709C0.400414 9.62726 0.25 8.74272 0.25 7.81592C0.25 5.92498 0.858416 4.36564 2.0693 3.1194C3.28017 1.87317 4.78454 1.25 6.6 1.25C7.60291 1.25 8.5563 1.46479 9.46282 1.895C10.361 2.32126 11.1523 2.94793 11.8071 3.74223L12 3.97621L12.1929 3.74223C12.8477 2.94793 13.639 2.32126 14.5372 1.895C15.4437 1.46479 16.3971 1.25 17.4 1.25C19.2155 1.25 20.7198 1.87317 21.9307 3.1194C23.1416 4.36564 23.75 5.92498 23.75 7.81592C23.75 8.74272 23.5996 9.62726 23.2995 10.4709C22.9989 11.3157 22.5214 12.1976 21.8619 13.1167C21.2009 14.0379 20.3595 15.0242 19.3359 16.0758C18.3093 17.1305 17.0772 18.3312 15.6391 19.678L15.6384 19.6787L12.6385 22.5108C12.6384 22.5108 12.6384 22.5108 12.6384 22.5109C12.47 22.6696 12.2537 22.75 12 22.75C11.7462 22.75 11.5299 22.6696 11.3615 22.5108L8.36162 19.6787Z" fill="#0094FF" stroke="#0094FF" stroke-width="0.5"/>
</g>
</svg>
