<svg width="24" height="24" viewBox="0 0 24 24" fill="none" xmlns="http://www.w3.org/2000/svg">
<g id="Prop=heart, State=OFF">
<path id="Vector" d="M8.53179 19.4955L8.53324 19.4969L11.5331 22.3289L8.53179 19.4955ZM8.53179 19.4955C7.09568 18.1505 5.86648 16.9527 4.84329 15.9015C3.82605 14.8564 2.99329 13.8796 2.34123 12.9709C1.69223 12.0665 1.22712 11.2053 0.936081 10.3872C0.645828 9.57122 0.5 8.7151 0.5 7.81592C0.5 5.98441 1.08683 4.4893 2.2486 3.29361C3.41034 2.09796 4.84908 1.5 6.6 1.5C7.56581 1.5 8.48259 1.70654 9.35563 2.12086C10.219 2.53056 10.9814 3.13371 11.6142 3.90126L12 4.36921L12.3858 3.90126C13.0186 3.13371 13.781 2.53056 14.6444 2.12086C15.5174 1.70654 16.4342 1.5 17.4 1.5C19.1509 1.5 20.5897 2.09796 21.7514 3.29361C22.9132 4.4893 23.5 5.98441 23.5 7.81592C23.5 8.7151 23.3542 9.57122 23.0639 10.3872C22.7729 11.2053 22.3078 12.0665 21.6588 12.9709C21.0067 13.8796 20.174 14.8564 19.1567 15.9015C18.1335 16.9527 16.9043 18.1505 15.4682 19.4955L15.4668 19.4969M8.53179 19.4955L15.4668 19.4969M15.4668 19.4969L12.4669 22.3289L15.4668 19.4969ZM12 22.5C11.8025 22.5 11.65 22.4391 11.5332 22.3291H12.4668C12.35 22.4391 12.1975 22.5 12 22.5Z" stroke="#A3A3A3"/>
</g>
</svg>
