<svg width="24" height="24" viewBox="0 0 24 24" fill="none" xmlns="http://www.w3.org/2000/svg">
<g id="Frame 1094119">
<path id="Vector 68" d="M12 1.5L0.5 12.5" stroke="#A3A3A3" stroke-linecap="round" stroke-linejoin="round"/>
<path id="Vector 69" d="M12 1.5L23.5 12.5" stroke="#A3A3A3" stroke-linecap="round" stroke-linejoin="round"/>
<path id="Vector" d="M8.8125 22.5H4.5C3.94772 22.5 3.5 22.0523 3.5 21.5V10.0249C3.5 9.75126 3.61214 9.48957 3.81029 9.30083L11.6551 1.82848C11.8483 1.64454 12.1517 1.64454 12.3449 1.82848L20.1897 9.30083C20.3879 9.48957 20.5 9.75126 20.5 10.0249V21.5C20.5 22.0523 20.0523 22.5 19.5 22.5H15.1875M15 22.5V16.5C15 14.8431 13.6569 13.5 12 13.5C10.3431 13.5 9 14.8431 9 16.5V22.5" stroke="#A3A3A3" stroke-linecap="round"/>
</g>
</svg>
