<svg width="24" height="24" viewBox="0 0 24 24" fill="none" xmlns="http://www.w3.org/2000/svg">
<g id="Frame 1094201">
<g id="Vector">
<path d="M3.50001 20.627V10.6095C3.50001 10.3706 3.61215 10.1421 3.8103 9.97735L11.3103 3.74087C11.6965 3.41972 12.3035 3.41972 12.6897 3.74087L20.1897 9.97735C20.3879 10.1421 20.5 10.3706 20.5 10.6095V20.627C20.5 21.1092 20.0523 21.5 19.5 21.5H15.1C15.0448 21.5 15 21.4552 15 21.4V16.2621C15 14.8157 13.6569 13.6432 12 13.6432C10.3432 13.6432 9.00001 14.8157 9.00001 16.2621V21.4C9.00001 21.4552 8.95524 21.5 8.90001 21.5L4.50001 21.5C3.94772 21.5 3.50001 21.1092 3.50001 20.627Z" fill="#F1F1F1"/>
<path fill-rule="evenodd" clip-rule="evenodd" d="M12.37 4.12532C12.1691 3.95823 11.8309 3.95823 11.63 4.12532L4.12998 10.3618C4.03583 10.4401 4.00001 10.532 4.00001 10.6095V20.627C4.00001 20.7714 4.15791 21 4.50001 21L8.50001 21V16.2621C8.50001 14.4779 10.133 13.1432 12 13.1432C13.8671 13.1432 15.5 14.4779 15.5 16.2621V21H19.5C19.8421 21 20 20.7714 20 20.627V10.6095C20 10.532 19.9642 10.4401 19.87 10.3618L12.37 4.12532ZM10.9906 3.35642C11.5621 2.8812 12.4379 2.8812 13.0094 3.35642L20.5094 9.5929C20.8115 9.84414 21 10.2092 21 10.6095V20.627C21 21.4469 20.2625 22 19.5 22H15.1C14.7686 22 14.5 21.7314 14.5 21.4V16.2621C14.5 15.1535 13.4467 14.1432 12 14.1432C10.5533 14.1432 9.50001 15.1535 9.50001 16.2621V21.4C9.50001 21.7314 9.23138 22 8.90001 22L4.50001 22C3.73753 22 3.00001 21.4469 3.00001 20.627V10.6095C3.00001 10.2092 3.18848 9.84414 3.49062 9.5929L10.9906 3.35642Z" fill="#F1F1F1"/>
<path fill-rule="evenodd" clip-rule="evenodd" d="M11.2601 2.32733C11.6316 1.91868 12.264 1.88856 12.6727 2.26007L23.6727 12.2601C24.0813 12.6316 24.1115 13.264 23.7399 13.6727C23.3684 14.0813 22.736 14.1115 22.3273 13.7399L11.3273 3.73995C10.9187 3.36844 10.8886 2.73599 11.2601 2.32733Z" fill="#F1F1F1"/>
<path fill-rule="evenodd" clip-rule="evenodd" d="M12.7399 2.32733C12.3684 1.91868 11.736 1.88856 11.3273 2.26007L0.327334 12.2601C-0.081323 12.6316 -0.11144 13.264 0.260067 13.6727C0.631574 14.0813 1.26402 14.1115 1.67268 13.7399L12.6727 3.73995C13.0813 3.36844 13.1115 2.73599 12.7399 2.32733Z" fill="#F1F1F1"/>
</g>
</g>
</svg>
