<svg width="41" height="12" viewBox="0 0 41 12" fill="none" xmlns="http://www.w3.org/2000/svg">
<g id="_&#235;&#160;&#136;&#236;&#157;&#180;&#236;&#150;&#180;_1" clip-path="url(#clip0_782_31191)">
<path id="Vector" fill-rule="evenodd" clip-rule="evenodd" d="M6.14056 0C2.75122 0 0 2.09049 0 4.66857C0 6.32534 1.13911 7.78006 2.84918 8.60979L2.26982 10.6895C2.24743 10.7542 2.26703 10.8215 2.31461 10.8673C2.34819 10.8996 2.39297 10.9158 2.44055 10.9158C2.47694 10.9158 2.51332 10.9023 2.54691 10.8781L5.03504 9.26172C5.39608 9.31021 5.76552 9.33984 6.14056 9.33984C9.52991 9.33984 12.2811 7.24936 12.2811 4.67127C12.2811 2.09318 9.53271 0.00269347 6.14056 0.00269347V0Z" fill="#FFF100"/>
<path id="Vector_2" d="M17.4562 8.3377V11.3522H15.2256V0.234372H16.7985L17.0728 0.94018C17.5458 0.484907 18.2651 0 19.4266 0C21.6124 0 22.6508 1.57325 22.634 4.11632C22.634 6.77792 21.0303 8.48317 18.7381 8.48317C18.2959 8.48317 17.96 8.45354 17.4562 8.33501V8.3377ZM17.4562 2.02853V6.83719C17.5794 6.85066 17.8844 6.88029 18.1755 6.88029C19.7652 6.88029 20.3754 5.8081 20.3754 4.11632C20.3754 2.63197 19.964 1.73489 18.6961 1.73489C18.2847 1.73489 17.8257 1.85342 17.459 2.02853H17.4562Z" fill="#FFF100"/>
<path id="Vector_3" d="M27.4899 3.36471H28.7577V3.10071C28.7577 2.2198 28.2372 1.80763 27.3359 1.80763C26.6474 1.80763 25.763 1.99889 25.0437 2.33833L24.4336 0.897078C25.2284 0.366374 26.4487 0 27.5347 0C29.6729 0 30.8344 1.08835 30.8344 3.16267V8.26497H29.2615L29.032 7.58879C28.1308 8.22186 27.3052 8.48587 26.5579 8.48587C24.9234 8.48587 24.0054 7.54569 24.0054 5.95627C24.0054 4.26449 25.2284 3.36741 27.4871 3.36741L27.4899 3.36471ZM28.7577 6.20142V4.73054H27.7334C26.5887 4.73054 26.0065 5.12654 26.0065 5.92125C26.0065 6.52469 26.3284 6.81833 26.9833 6.81833C27.5934 6.81833 28.3743 6.52469 28.7549 6.20142H28.7577Z" fill="#FFF100"/>
<path id="Vector_4" d="M37.5878 7.73723C36.8098 9.73612 35.8778 11.1935 34.5175 12.0017L33.1433 10.7814C33.9382 10.1187 34.5035 9.47212 34.9905 8.60467L32.0266 0.827309L34.2405 0.253502L36.1352 6.56268L38.0132 0.226562L40.1991 0.813839L37.5878 7.73992V7.73723Z" fill="#FFF100"/>
</g>
<defs>
<clipPath id="clip0_782_31191">
<rect width="41" height="12" fill="white"/>
</clipPath>
</defs>
</svg>
