<svg width="24" height="24" viewBox="0 0 24 24" fill="none" xmlns="http://www.w3.org/2000/svg">
<g id="Link">
<path id="Vector (Stroke)" fill-rule="evenodd" clip-rule="evenodd" d="M4.92897 19.0707C2.97635 17.1181 2.97635 13.9522 4.92897 11.9996L7.05029 9.8783C7.44081 9.48778 8.07398 9.48778 8.4645 9.8783C8.85502 10.2688 8.85502 10.902 8.4645 11.2925L6.34318 13.4138C5.17161 14.5854 5.17161 16.4849 6.34318 17.6565C7.51475 18.828 9.41425 18.828 10.5858 17.6565L12.7071 15.5352C13.0977 15.1446 13.7308 15.1446 14.1214 15.5352C14.5119 15.9257 14.5119 16.5588 14.1214 16.9494L12 19.0707C10.0474 21.0233 6.88159 21.0233 4.92897 19.0707ZM9.87871 8.46409C9.48819 8.07356 9.48819 7.4404 9.87871 7.04988L12 4.92855C13.9527 2.97593 17.1185 2.97593 19.0711 4.92855C21.0237 6.88118 21.0237 10.047 19.0711 11.9996L16.9498 14.1209C16.5593 14.5115 15.9261 14.5115 15.5356 14.1209C15.145 13.7304 15.145 13.0973 15.5356 12.7067L17.6569 10.5854C18.8285 9.41384 18.8285 7.51434 17.6569 6.34277C16.4853 5.1712 14.5858 5.1712 13.4142 6.34277L11.2929 8.46409C10.9024 8.85461 10.2692 8.85461 9.87871 8.46409ZM9.17161 14.828C8.78108 14.4375 8.78108 13.8044 9.17161 13.4138L13.4142 9.1712C13.8048 8.78067 14.4379 8.78067 14.8285 9.1712C15.219 9.56172 15.219 10.1949 14.8285 10.5854L10.5858 14.828C10.1953 15.2186 9.56213 15.2186 9.17161 14.828Z" fill="#171717"/>
</g>
</svg>
