<svg width="24" height="24" viewBox="0 0 24 24" fill="none" xmlns="http://www.w3.org/2000/svg">
<g id="Communication / Mail">
<path id="Vector" d="M1 17.4289V6.57171C1 5.75623 1.00068 5.2006 1.03344 4.77086C1.06546 4.35085 1.12367 4.13651 1.19373 3.98918C1.36286 3.63354 1.62615 3.35769 1.9349 3.18913C2.04971 3.12646 2.22505 3.06814 2.60237 3.03512C2.99349 3.00089 3.50253 3 4.26693 3H19.7336C20.498 3 21.0066 3.00089 21.3973 3.03511C21.7739 3.0681 21.949 3.12636 22.064 3.18913C22.3738 3.35826 22.638 3.63465 22.8066 3.98918L23.7096 3.55971L22.8066 3.98918C22.8765 4.13625 22.9346 4.35023 22.9666 4.76949C22.9993 5.19851 23 5.7531 23 6.56701V17.4337C23 18.2476 22.9993 18.8019 22.9666 19.2306C22.9346 19.6494 22.8765 19.8632 22.8066 20.0104C22.6377 20.3655 22.3733 20.6423 22.064 20.8112C21.9493 20.8738 21.7745 20.932 21.3983 20.9649C21.0082 20.9991 20.5004 21 19.7375 21H4.26255C3.49962 21 2.99154 20.9991 2.60111 20.9649C2.22449 20.9319 2.04947 20.8737 1.9349 20.8112C1.62669 20.6429 1.36314 20.3666 1.19373 20.0104C1.12362 19.8629 1.06544 19.6488 1.03343 19.2292C1.00068 18.7997 1 18.2443 1 17.4289Z" stroke="black" stroke-width="2" stroke-linecap="round" stroke-linejoin="round"/>
</g>
</svg>
