<svg width="17" height="16" viewBox="0 0 17 16" fill="none" xmlns="http://www.w3.org/2000/svg">
<g id="Navigation / Map_Pin">
<path id="Vector" fill-rule="evenodd" clip-rule="evenodd" d="M7.47498 13.5501C6.15305 12.5246 3.1665 9.84978 3.1665 6.61523C3.1665 5.39116 3.68543 4.21744 4.60913 3.35189C5.53282 2.48634 6.78568 2 8.09198 2C9.39829 2 10.651 2.48626 11.5747 3.35181C12.4984 4.21737 13.0173 5.39145 13.0173 6.61553C13.0173 9.85008 10.0309 12.5247 8.70898 13.5502C8.51908 13.6976 8.42402 13.7711 8.28261 13.8088C8.1727 13.8381 8.01094 13.8381 7.90104 13.8088C7.75989 13.7712 7.66416 13.6969 7.47498 13.5501ZM6.68466 6C6.68466 6.73638 7.31472 7.33333 8.09193 7.33333C8.86914 7.33333 9.49919 6.73638 9.49919 6C9.49919 5.26362 8.86914 4.66667 8.09193 4.66667C7.31472 4.66667 6.68466 5.26362 6.68466 6Z" fill="#D9D9D9"/>
</g>
</svg>
