<svg width="12" height="12" viewBox="0 0 12 12" fill="none" xmlns="http://www.w3.org/2000/svg">
<path d="M6 1.125C4.14111 1.125 2.625 2.64111 2.625 4.5C2.625 5.02734 2.83887 5.63232 3.12891 6.29297C3.41895 6.95361 3.79248 7.65527 4.17188 8.30859C4.93066 9.6167 5.69531 10.7109 5.69531 10.7109L6 11.1562L6.30469 10.7109C6.30469 10.7109 7.06934 9.6167 7.82812 8.30859C8.20752 7.65527 8.58105 6.95361 8.87109 6.29297C9.16113 5.63232 9.375 5.02734 9.375 4.5C9.375 2.64111 7.85889 1.125 6 1.125ZM6 1.875C7.45459 1.875 8.625 3.04541 8.625 4.5C8.625 4.80029 8.46387 5.36865 8.19141 5.98828C7.91895 6.60791 7.54248 7.29492 7.17188 7.93359C6.58301 8.9502 6.2168 9.48779 6 9.80859C5.7832 9.48779 5.41699 8.9502 4.82812 7.93359C4.45752 7.29492 4.08105 6.60791 3.80859 5.98828C3.53613 5.36865 3.375 4.80029 3.375 4.5C3.375 3.04541 4.54541 1.875 6 1.875ZM6 3.75C5.58545 3.75 5.25 4.08545 5.25 4.5C5.25 4.91455 5.58545 5.25 6 5.25C6.41455 5.25 6.75 4.91455 6.75 4.5C6.75 4.08545 6.41455 3.75 6 3.75Z" fill="#D6D6D6"/>
</svg>
