<svg width="24" height="28" viewBox="0 0 24 28" fill="none" xmlns="http://www.w3.org/2000/svg">
<path d="M11.25 5.75C10.2803 5.75 9.4541 6.38281 9.14062 7.25H3V8.75H9.14062C9.4541 9.61719 10.2803 10.25 11.25 10.25C12.2197 10.25 13.0459 9.61719 13.3594 8.75H21V7.25H13.3594C13.0459 6.38281 12.2197 5.75 11.25 5.75ZM11.25 7.25C11.6719 7.25 12 7.57812 12 8C12 8.42188 11.6719 8.75 11.25 8.75C10.8281 8.75 10.5 8.42188 10.5 8C10.5 7.57812 10.8281 7.25 11.25 7.25ZM16.5 11.75C15.5303 11.75 14.7041 12.3828 14.3906 13.25H3V14.75H14.3906C14.7041 15.6172 15.5303 16.25 16.5 16.25C17.4697 16.25 18.2959 15.6172 18.6094 14.75H21V13.25H18.6094C18.2959 12.3828 17.4697 11.75 16.5 11.75ZM16.5 13.25C16.9219 13.25 17.25 13.5781 17.25 14C17.25 14.4219 16.9219 14.75 16.5 14.75C16.0781 14.75 15.75 14.4219 15.75 14C15.75 13.5781 16.0781 13.25 16.5 13.25ZM8.25 17.75C7.28027 17.75 6.4541 18.3828 6.14062 19.25H3V20.75H6.14062C6.4541 21.6172 7.28027 22.25 8.25 22.25C9.21973 22.25 10.0459 21.6172 10.3594 20.75H21V19.25H10.3594C10.0459 18.3828 9.21973 17.75 8.25 17.75ZM8.25 19.25C8.67188 19.25 9 19.5781 9 20C9 20.4219 8.67188 20.75 8.25 20.75C7.82812 20.75 7.5 20.4219 7.5 20C7.5 19.5781 7.82812 19.25 8.25 19.25Z" fill="white"/>
</svg>
