<svg width="12" height="12" viewBox="0 0 12 12" fill="none" xmlns="http://www.w3.org/2000/svg">
<path d="M3.375 2.625C2.13721 2.625 1.125 3.63721 1.125 4.875C1.125 5.61914 1.49121 6.28125 2.05078 6.69141C1.06201 7.18213 0.375 8.19873 0.375 9.375H1.125C1.125 8.12842 2.12842 7.125 3.375 7.125C4.62158 7.125 5.625 8.12842 5.625 9.375H6.375C6.375 8.12842 7.37842 7.125 8.625 7.125C9.87158 7.125 10.875 8.12842 10.875 9.375H11.625C11.625 8.19873 10.938 7.18213 9.94922 6.69141C10.5088 6.28125 10.875 5.61914 10.875 4.875C10.875 3.63721 9.86279 2.625 8.625 2.625C7.38721 2.625 6.375 3.63721 6.375 4.875C6.375 5.61914 6.74121 6.28125 7.30078 6.69141C6.75439 6.9624 6.2959 7.39014 6 7.92188C5.7041 7.39014 5.24561 6.9624 4.69922 6.69141C5.25879 6.28125 5.625 5.61914 5.625 4.875C5.625 3.63721 4.61279 2.625 3.375 2.625ZM3.375 3.375C4.2085 3.375 4.875 4.0415 4.875 4.875C4.875 5.7085 4.2085 6.375 3.375 6.375C2.5415 6.375 1.875 5.7085 1.875 4.875C1.875 4.0415 2.5415 3.375 3.375 3.375ZM8.625 3.375C9.4585 3.375 10.125 4.0415 10.125 4.875C10.125 5.7085 9.4585 6.375 8.625 6.375C7.7915 6.375 7.125 5.7085 7.125 4.875C7.125 4.0415 7.7915 3.375 8.625 3.375Z" fill="#D6D6D6"/>
</svg>
