<svg width="17" height="16" viewBox="0 0 17 16" fill="none" xmlns="http://www.w3.org/2000/svg">
<g id="Group 3472">
<g id="Group 1996">
<path id="Vector" d="M5.27691 7.99902C6.44273 7.99902 7.38781 7.10359 7.38781 5.99902C7.38781 4.89445 6.44273 3.99902 5.27691 3.99902C4.1111 3.99902 3.16602 4.89445 3.16602 5.99902C3.16602 7.10359 4.1111 7.99902 5.27691 7.99902Z" fill="#D9D9D9"/>
<path id="Vector_2" d="M11.6099 7.99902C12.7757 7.99902 13.7208 7.10359 13.7208 5.99902C13.7208 4.89445 12.7757 3.99902 11.6099 3.99902C10.4441 3.99902 9.49902 4.89445 9.49902 5.99902C9.49902 7.10359 10.4441 7.99902 11.6099 7.99902Z" fill="#D9D9D9"/>
<path id="Vector_3" d="M9.49876 11.9995C9.48582 10.341 7.60084 8.99951 5.27718 8.99951C2.95353 8.99951 1.06812 10.341 1.05518 11.9995H9.49876Z" fill="#D9D9D9"/>
<path id="Vector_4" d="M15.8318 11.9995C15.8188 10.341 13.9338 8.99951 11.6102 8.99951C9.28653 8.99951 7.40112 10.341 7.38818 11.9995H15.8318Z" fill="#D9D9D9"/>
</g>
</g>
</svg>
