<svg width="12" height="13" viewBox="0 0 12 13" fill="none" xmlns="http://www.w3.org/2000/svg">
<path d="M7.79853 0.328125L7.4742 0.770385L5.15971 3.92518C3.91953 3.70957 2.60749 4.0597 1.65111 5.01609L1.31204 5.34041L3.81818 7.84655L0 11.6647V12.3281H0.663391L4.48157 8.50994L6.98772 11.0161L7.31204 10.677C8.26843 9.72063 8.61855 8.40859 8.40295 7.16842L11.5577 4.85392L12 4.5296L7.79853 0.328125ZM7.91646 1.77284L10.5553 4.41166L7.62162 6.564L7.35627 6.75564L7.44472 7.06523C7.67138 7.92948 7.42445 8.83058 6.88452 9.58611L2.74201 5.4436C3.49754 4.90368 4.39865 4.65675 5.2629 4.88341L5.57248 4.97186L5.76413 4.7065L7.91646 1.77284Z" fill="#737373"/>
</svg>
