<svg width="18" height="19" viewBox="0 0 18 19" fill="none" xmlns="http://www.w3.org/2000/svg">
<path d="M9 2.51562C4.96802 2.51562 1.6875 5.79614 1.6875 9.82812C1.6875 13.8601 4.96802 17.1406 9 17.1406C13.032 17.1406 16.3125 13.8601 16.3125 9.82812C16.3125 5.79614 13.032 2.51562 9 2.51562ZM9 3.64062C12.4233 3.64062 15.1875 6.40479 15.1875 9.82812C15.1875 13.2515 12.4233 16.0156 9 16.0156C5.57666 16.0156 2.8125 13.2515 2.8125 9.82812C2.8125 6.40479 5.57666 3.64062 9 3.64062ZM8.4375 6.45312V9.26562H5.625V10.3906H8.4375V13.2031H9.5625V10.3906H12.375V9.26562H9.5625V6.45312H8.4375Z" fill="#7FEEF6"/>
</svg>
