<svg width="12" height="12" viewBox="0 0 12 12" fill="none" xmlns="http://www.w3.org/2000/svg">
<path d="M6.50061 1.5C4.57184 1.5 3.00122 3.07063 3.00122 4.99939C3.00122 5.83733 3.29511 6.60556 3.78858 7.20838L1 9.99696L1.50304 10.5L4.29162 7.71142C4.89444 8.20489 5.66267 8.49879 6.50061 8.49879C8.42937 8.49879 10 6.92816 10 4.99939C10 3.07063 8.42937 1.5 6.50061 1.5ZM6.50061 2.19988C8.05073 2.19988 9.30012 3.44927 9.30012 4.99939C9.30012 6.54951 8.05073 7.79891 6.50061 7.79891C4.95049 7.79891 3.70109 6.54951 3.70109 4.99939C3.70109 3.44927 4.95049 2.19988 6.50061 2.19988Z" fill="white"/>
</svg>
