<svg width="24" height="24" viewBox="0 0 24 24" fill="none" xmlns="http://www.w3.org/2000/svg">
<path fill-rule="evenodd" clip-rule="evenodd" d="M16.5 2.5C16.5 2.22386 16.7239 2 17 2H21C21.5523 2 22 2.44772 22 3V7C22 7.27614 21.7761 7.5 21.5 7.5C21.2239 7.5 21 7.27614 21 7V3H17C16.7239 3 16.5 2.77614 16.5 2.5Z" fill="#171717"/>
<path fill-rule="evenodd" clip-rule="evenodd" d="M21.3536 2.64645C21.5488 2.84171 21.5488 3.15829 21.3536 3.35355L10.3536 14.3536C10.1583 14.5488 9.84171 14.5488 9.64645 14.3536C9.45119 14.1583 9.45119 13.8417 9.64645 13.6464L20.6464 2.64645C20.8417 2.45118 21.1583 2.45118 21.3536 2.64645Z" fill="#171717"/>
<path fill-rule="evenodd" clip-rule="evenodd" d="M19.5 9.36842C19.7761 9.36842 20 9.59228 20 9.86842V20.5C20 21.3284 19.3284 22 18.5 22H3.5C2.67157 22 2 21.3284 2 20.5L2 5.5C2 4.67157 2.67157 4 3.5 4L14.1316 4C14.4077 4 14.6316 4.22386 14.6316 4.5C14.6316 4.77614 14.4077 5 14.1316 5L3.5 5C3.22386 5 3 5.22386 3 5.5L3 20.5C3 20.7761 3.22386 21 3.5 21H18.5C18.7761 21 19 20.7761 19 20.5V9.86842C19 9.59228 19.2239 9.36842 19.5 9.36842Z" fill="#171717"/>
</svg>
