<svg width="13" height="13" viewBox="0 0 13 13" fill="none" xmlns="http://www.w3.org/2000/svg">
<path id="Star 37" d="M5.75762 0.848679C6.02634 0.179504 6.97366 0.179505 7.24238 0.84868L8.38184 3.68619C8.49628 3.97115 8.76372 4.16546 9.0701 4.18624L12.1208 4.39309C12.8403 4.44188 13.133 5.34282 12.5797 5.80518L10.2331 7.76571C9.99749 7.96261 9.89533 8.27701 9.97025 8.57481L10.7163 11.5402C10.8922 12.2395 10.1258 12.7963 9.51506 12.4129L6.92537 10.787C6.66529 10.6238 6.33471 10.6238 6.07463 10.787L3.48494 12.4129C2.87421 12.7963 2.10782 12.2395 2.28375 11.5402L3.02975 8.57481C3.10467 8.27701 3.00251 7.96261 2.76686 7.76571L0.420339 5.80518C-0.133045 5.34282 0.159691 4.44188 0.879154 4.39309L3.9299 4.18624C4.23628 4.16546 4.50372 3.97115 4.61816 3.68619L5.75762 0.848679Z" fill="#525252"/>
</svg>
