<svg width="16" height="16" viewBox="0 0 16 16" fill="none" xmlns="http://www.w3.org/2000/svg">
<path d="M7.2148 1.82949C7.49903 1.09136 8.50097 1.09136 8.7852 1.82949L9.99038 4.95939C10.1114 5.27372 10.3943 5.48806 10.7183 5.51097L13.945 5.73914C14.706 5.79295 15.0156 6.78674 14.4303 7.29674L11.9485 9.4593C11.6992 9.67648 11.5912 10.0233 11.6704 10.3518L12.4594 13.6227C12.6455 14.3941 11.8349 15.0083 11.189 14.5853L8.4499 12.792C8.17482 12.6119 7.82517 12.6119 7.5501 12.792L4.81104 14.5853C4.16509 15.0083 3.35449 14.3941 3.54057 13.6227L4.3296 10.3518C4.40884 10.0233 4.30079 9.67648 4.05154 9.4593L1.56969 7.29674C0.984389 6.78674 1.29401 5.79295 2.05497 5.73914L5.28167 5.51097C5.60571 5.48806 5.88859 5.27372 6.00962 4.95939L7.2148 1.82949Z" fill="#5C5535"/>
<path fill-rule="evenodd" clip-rule="evenodd" d="M6.96943 1.72673C7.34247 0.75793 8.65753 0.757932 9.03057 1.72673L10.2358 4.85663C10.319 5.07273 10.5134 5.22009 10.7362 5.23584L13.9629 5.46401C14.9617 5.53464 15.3681 6.83898 14.5998 7.50836L12.118 9.67092C11.9466 9.82023 11.8724 10.0587 11.9268 10.2845L12.7159 13.5554C12.9601 14.5679 11.8962 15.374 11.0484 14.8189L8.30931 13.0255C8.12019 12.9017 7.87981 12.9017 7.69069 13.0255L4.95164 14.8189C4.10382 15.374 3.03992 14.5679 3.28414 13.5554L4.07317 10.2845C4.12765 10.0587 4.05336 9.82023 3.88201 9.67092L1.40015 7.50836C0.631945 6.83898 1.03832 5.53464 2.03708 5.46401L5.26378 5.23584C5.48656 5.22009 5.68104 5.07273 5.76425 4.85663L6.96943 1.72673ZM8.53982 1.93225C8.34442 1.42479 7.65558 1.42479 7.46018 1.93225L6.25499 5.06216C6.09614 5.47471 5.72487 5.75602 5.29955 5.7861L2.07286 6.01427C1.5497 6.05127 1.33683 6.7345 1.73923 7.08512L4.22108 9.24768C4.54822 9.53273 4.69003 9.9879 4.58603 10.419L3.797 13.69C3.66907 14.2203 4.22636 14.6426 4.67045 14.3518L7.40951 12.5584C7.77054 12.322 8.22946 12.322 8.59049 12.5584L11.3295 14.3518C11.7736 14.6426 12.3309 14.2203 12.203 13.69L11.414 10.419C11.31 9.98791 11.4518 9.53273 11.7789 9.24768L14.2608 7.08512C14.6632 6.73449 14.4503 6.05127 13.9271 6.01427L10.7004 5.7861C10.2751 5.75602 9.90386 5.47471 9.74501 5.06216L8.53982 1.93225Z" fill="#C3A520"/>
<path fill-rule="evenodd" clip-rule="evenodd" d="M8 1V12.9325C7.89262 12.9325 7.78525 12.9636 7.69069 13.0255L4.95164 14.8189C4.10382 15.374 3.03992 14.5679 3.28414 13.5554L4.07317 10.2845C4.12765 10.0587 4.05336 9.82023 3.88201 9.67092L1.40015 7.50836C0.631945 6.83898 1.03832 5.53464 2.03708 5.46401L5.26378 5.23584C5.48656 5.22009 5.68104 5.07273 5.76425 4.85663L6.96943 1.72673C7.15595 1.24233 7.57797 0.999999 8 1Z" fill="#FAD73B"/>
</svg>
