<svg width="16" height="16" viewBox="0 0 16 16" fill="none" xmlns="http://www.w3.org/2000/svg">
<path d="M7.2148 1.82937C7.49902 1.09123 8.50097 1.09123 8.78519 1.82937L9.99037 4.9593C10.1114 5.27363 10.3943 5.48797 10.7183 5.51088L13.945 5.73906C14.706 5.79287 15.0156 6.78666 14.4303 7.29667L11.9485 9.45925C11.6992 9.67643 11.5912 10.0232 11.6704 10.3517L12.4594 13.6227C12.6455 14.3941 11.8349 15.0083 11.1889 14.5853L8.4499 12.7919C8.17482 12.6118 7.82517 12.6118 7.5501 12.7919L4.81104 14.5853C4.16508 15.0083 3.35449 14.3941 3.54057 13.6227L4.32959 10.3517C4.40883 10.0232 4.30078 9.67643 4.05154 9.45925L1.56968 7.29667C0.984383 6.78666 1.294 5.79287 2.05496 5.73906L5.28166 5.51088C5.60571 5.48797 5.88858 5.27363 6.00962 4.9593L7.2148 1.82937Z" fill="#5C5535"/>
<path fill-rule="evenodd" clip-rule="evenodd" d="M6.96943 1.7266C7.34247 0.757797 8.65753 0.757799 9.03057 1.72661L10.2358 4.85654C10.319 5.07264 10.5134 5.22 10.7362 5.23575L13.9629 5.46392C14.9617 5.53455 15.3681 6.83891 14.5998 7.50829L12.118 9.67087C11.9466 9.82018 11.8724 10.0586 11.9268 10.2844L12.7159 13.5554C12.9601 14.5679 11.8962 15.374 11.0484 14.8189L8.30931 13.0255C8.12019 12.9017 7.87981 12.9017 7.69069 13.0255L4.95164 14.8189C4.10382 15.374 3.03992 14.5679 3.28414 13.5554L4.07317 10.2844C4.12765 10.0586 4.05336 9.82018 3.88201 9.67087L1.40015 7.50829C0.631945 6.83891 1.03832 5.53455 2.03708 5.46392L5.26378 5.23575C5.48656 5.22 5.68104 5.07264 5.76425 4.85654L6.96943 1.7266ZM8.53982 1.93213C8.34442 1.42466 7.65558 1.42466 7.46018 1.93213L6.25499 5.06206C6.09614 5.47462 5.72487 5.75594 5.29955 5.78601L2.07286 6.01419C1.5497 6.05118 1.33683 6.73442 1.73923 7.08505L4.22108 9.24763C4.54822 9.53268 4.69003 9.98786 4.58603 10.419L3.797 13.69C3.66907 14.2203 4.22636 14.6426 4.67045 14.3518L7.40951 12.5584C7.77054 12.322 8.22946 12.322 8.59049 12.5584L11.3295 14.3518C11.7736 14.6426 12.3309 14.2203 12.203 13.69L11.414 10.419C11.31 9.98786 11.4518 9.53268 11.7789 9.24763L14.2608 7.08505C14.6632 6.73442 14.4503 6.05118 13.9271 6.01419L10.7004 5.78601C10.2751 5.75594 9.90386 5.47462 9.74501 5.06206L8.53982 1.93213Z" fill="#C3A520"/>
</svg>
