<svg width="14" height="13" viewBox="0 0 14 13" fill="none" xmlns="http://www.w3.org/2000/svg">
<path d="M6.25762 0.848679C6.52634 0.179504 7.47366 0.179504 7.74238 0.84868L8.88184 3.68619C8.99628 3.97115 9.26372 4.16546 9.5701 4.18624L12.6208 4.39309C13.3403 4.44188 13.633 5.34282 13.0797 5.80518L10.7331 7.76571C10.4975 7.96261 10.3953 8.27701 10.4703 8.57481L11.2163 11.5402C11.3922 12.2395 10.6258 12.7963 10.0151 12.4129L7.42537 10.787C7.16529 10.6238 6.83471 10.6238 6.57463 10.787L3.98494 12.4129C3.37421 12.7963 2.60782 12.2395 2.78375 11.5402L3.52975 8.57481C3.60467 8.27701 3.50251 7.96261 3.26686 7.76571L0.920339 5.80518C0.366955 5.34282 0.659691 4.44188 1.37915 4.39309L4.4299 4.18624C4.73628 4.16546 5.00372 3.97115 5.11816 3.68619L6.25762 0.848679Z" fill="#5C5535" stroke="#C3A520" stroke-width="0.5"/>
<path d="M6.25762 0.848561C6.52634 0.179385 7.47365 0.179386 7.74237 0.848562L8.88184 3.68607C8.99627 3.97103 9.26372 4.16535 9.5701 4.18612L12.6208 4.39298C13.3403 4.44176 13.633 5.34271 13.0797 5.80506L10.7331 7.7656C10.4975 7.96249 10.3953 8.27689 10.4702 8.57469L11.2162 11.54C11.3922 12.2394 10.6258 12.7962 10.0151 12.4128L7.42536 10.7869C7.16529 10.6237 6.8347 10.6237 6.57463 10.7869L3.98493 12.4128C3.3742 12.7962 2.60781 12.2394 2.78374 11.54L3.52974 8.57469C3.60466 8.27689 3.5025 7.96249 3.26685 7.7656L0.920333 5.80506C0.366949 5.34271 0.659685 4.44176 1.37915 4.39298L4.42989 4.18612C4.73627 4.16535 5.00372 3.97103 5.11815 3.68607L6.25762 0.848561Z" fill="#5C5535"/>
<path fill-rule="evenodd" clip-rule="evenodd" d="M7 0.0966797V10.9145C6.89848 10.9145 6.79696 10.9425 6.70756 10.9987L4.11787 12.6245C3.31628 13.1277 2.31039 12.3969 2.5413 11.4791L3.2873 8.5137C3.33881 8.30896 3.26858 8.09281 3.10656 7.95745L0.760046 5.99691C0.0337288 5.39007 0.417946 4.20758 1.36224 4.14355L4.41299 3.93669C4.62362 3.92241 4.80749 3.78882 4.88616 3.59291L6.02563 0.755399C6.20198 0.316252 6.60099 0.0966792 7 0.0966797Z" fill="#FAD73B"/>
</svg>
