<svg width="16" height="16" viewBox="0 0 16 16" fill="none" xmlns="http://www.w3.org/2000/svg">
<path fill-rule="evenodd" clip-rule="evenodd" d="M8 1.00013V1C7.63073 0.999999 7.26146 1.18553 7.04995 1.55643C7.01974 1.60941 6.99275 1.66618 6.96943 1.72673L5.76425 4.85663C5.68104 5.07273 5.48656 5.22009 5.26378 5.23584L2.03708 5.46401C1.39691 5.50928 1.00011 6.06141 1 6.62831C1 6.62847 1 6.62862 1 6.62878C1.00006 6.94617 1.12448 7.26815 1.40015 7.50836L3.88201 9.67092C4.05336 9.82023 4.12765 10.0587 4.07317 10.2845L3.28414 13.5554C3.09507 14.3392 3.69002 14.9994 4.36177 15C4.36239 15 4.36302 15 4.36364 15C4.559 14.9998 4.76079 14.9438 4.95164 14.8189L7.69069 13.0255C7.70529 13.016 7.72018 13.0071 7.73534 12.9991C7.9166 12.9024 8.13479 12.9113 8.30931 13.0255L11.0484 14.8189C11.2393 14.9439 11.4411 14.9999 11.6365 15C11.637 15 11.6375 15 11.638 15C12.3099 14.9995 12.9049 14.3393 12.7159 13.5554L11.9268 10.2845C11.8724 10.0587 11.9466 9.82023 12.118 9.67092L14.5998 7.50836C15.3681 6.83898 14.9617 5.53464 13.9629 5.46401L10.7362 5.23584C10.5134 5.22009 10.319 5.07273 10.2358 4.85663L9.03057 1.72673C8.84405 1.24233 8.42202 1.00013 8 1.00013Z" fill="#FAD73B"/>
</svg>
