<svg width="36" height="36" viewBox="0 0 36 36" fill="none" xmlns="http://www.w3.org/2000/svg">
<g id="Frame 1094401">
<circle id="Ellipse 429" cx="18" cy="18" r="18" fill="#D9D9D9"/>
<g id="Intersect">
<mask id="path-2-inside-1_251_18644" fill="white">
<path fill-rule="evenodd" clip-rule="evenodd" d="M5.21246 30.668L5.58571 29.9974C7.96817 25.7166 12.4828 23.0625 17.3819 23.0625H18L18.9519 23.0938C23.3632 23.2387 27.4251 25.5308 29.8296 29.2321L30.7724 30.6833C27.5116 33.9669 22.9932 36 18 36C12.999 36 8.47442 33.9606 5.21246 30.668Z"/>
</mask>
<path fill-rule="evenodd" clip-rule="evenodd" d="M5.21246 30.668L5.58571 29.9974C7.96817 25.7166 12.4828 23.0625 17.3819 23.0625H18L18.9519 23.0938C23.3632 23.2387 27.4251 25.5308 29.8296 29.2321L30.7724 30.6833C27.5116 33.9669 22.9932 36 18 36C12.999 36 8.47442 33.9606 5.21246 30.668Z" fill="white"/>
<path d="M5.58571 29.9974L4.6027 29.4503L5.58571 29.9974ZM5.21246 30.668L4.22945 30.1209L3.81845 30.8594L4.41327 31.4598L5.21246 30.668ZM18 23.0625L18.0369 21.9381L18.0185 21.9375H18V23.0625ZM18.9519 23.0938L18.9149 24.2182L18.9519 23.0938ZM29.8296 29.2321L30.773 28.6192L29.8296 29.2321ZM30.7724 30.6833L31.5706 31.476L32.2104 30.8318L31.7158 30.0704L30.7724 30.6833ZM4.6027 29.4503L4.22945 30.1209L6.19548 31.2151L6.56873 30.5445L4.6027 29.4503ZM17.3819 21.9375C12.0745 21.9375 7.18369 24.8128 4.6027 29.4503L6.56873 30.5445C8.75264 26.6204 12.891 24.1875 17.3819 24.1875V21.9375ZM18 21.9375H17.3819V24.1875H18V21.9375ZM18.9888 21.9694L18.0369 21.9381L17.9631 24.1869L18.9149 24.2182L18.9888 21.9694ZM30.773 28.6192C28.1682 24.6095 23.7677 22.1263 18.9888 21.9694L18.9149 24.2182C22.9587 24.351 26.6821 26.4521 28.8862 29.845L30.773 28.6192ZM31.7158 30.0704L30.773 28.6192L28.8862 29.845L29.829 31.2962L31.7158 30.0704ZM29.9741 29.8906C26.9158 32.9702 22.6814 34.875 18 34.875V37.125C23.305 37.125 28.1073 34.9636 31.5706 31.476L29.9741 29.8906ZM18 34.875C13.3113 34.875 9.07101 32.9643 6.01166 29.8763L4.41327 31.4598C7.87783 34.9568 12.6868 37.125 18 37.125V34.875Z" fill="white" mask="url(#path-2-inside-1_251_18644)"/>
</g>
<rect id="Rectangle 4139" x="12.9375" y="9.5625" width="10.125" height="10.125" rx="5.0625" fill="white" stroke="white" stroke-width="1.125"/>
</g>
</svg>
