<svg width="60" height="60" viewBox="0 0 60 60" fill="none" xmlns="http://www.w3.org/2000/svg">
<g id="Frame 1094401">
<circle id="Ellipse 429" cx="30.0003" cy="30" r="30" fill="#D9D9D9"/>
<g id="Intersect">
<mask id="path-2-inside-1_1338_43032" fill="white">
<path fill-rule="evenodd" clip-rule="evenodd" d="M8.68793 51.1134L9.31001 49.9956C13.2808 42.861 20.8051 38.4375 28.9703 38.4375H30.0005L31.5869 38.4896C38.9392 38.7311 45.7091 42.5514 49.7165 48.7201L51.2878 51.1389C45.8531 56.6115 38.3225 60 30.0005 60C21.6656 60 14.1245 56.601 8.68793 51.1134Z"/>
</mask>
<path fill-rule="evenodd" clip-rule="evenodd" d="M8.68793 51.1134L9.31001 49.9956C13.2808 42.861 20.8051 38.4375 28.9703 38.4375H30.0005L31.5869 38.4896C38.9392 38.7311 45.7091 42.5514 49.7165 48.7201L51.2878 51.1389C45.8531 56.6115 38.3225 60 30.0005 60C21.6656 60 14.1245 56.601 8.68793 51.1134Z" fill="white"/>
<path d="M9.31001 49.9956L10.9484 50.9075H10.9484L9.31001 49.9956ZM8.68793 51.1134L7.04957 50.2016L6.36457 51.4324L7.35593 52.433L8.68793 51.1134ZM30.0005 38.4375L30.062 36.5635L30.0313 36.5625H30.0005V38.4375ZM31.5869 38.4896L31.6485 36.6156L31.5869 38.4896ZM49.7165 48.7201L51.2888 47.6987L51.2888 47.6987L49.7165 48.7201ZM51.2878 51.1389L52.6182 52.4601L53.6845 51.3864L52.8601 50.1174L51.2878 51.1389ZM7.67166 49.0838L7.04957 50.2016L10.3263 52.0252L10.9484 50.9075L7.67166 49.0838ZM28.9703 36.5625C20.1247 36.5625 11.9733 41.3546 7.67166 49.0838L10.9484 50.9075C14.5882 44.3674 21.4855 40.3125 28.9703 40.3125V36.5625ZM30.0005 36.5625H28.9703V40.3125H30.0005V36.5625ZM31.6485 36.6156L30.062 36.5635L29.9389 40.3115L31.5254 40.3636L31.6485 36.6156ZM51.2888 47.6987C46.9475 41.0158 39.6134 36.8772 31.6485 36.6156L31.5254 40.3636C38.2649 40.585 44.4707 44.0869 48.1441 49.7416L51.2888 47.6987ZM52.8601 50.1174L51.2888 47.6987L48.1441 49.7416L49.7154 52.1603L52.8601 50.1174ZM49.9573 49.8177C44.8602 54.9503 37.8028 58.125 30.0005 58.125V61.875C38.8421 61.875 46.8459 58.2726 52.6182 52.4601L49.9573 49.8177ZM30.0005 58.125C22.186 58.125 15.1188 54.9405 10.0199 49.7938L7.35593 52.433C13.1302 58.2614 21.1451 61.875 30.0005 61.875V58.125Z" fill="white" mask="url(#path-2-inside-1_1338_43032)"/>
</g>
<rect id="Rectangle 4139" x="21.5628" y="15.9375" width="16.875" height="16.875" rx="8.4375" fill="white" stroke="white" stroke-width="1.875"/>
</g>
</svg>
