<svg width="18" height="20" viewBox="0 0 18 20" fill="none" xmlns="http://www.w3.org/2000/svg">
<path id="&#239;&#163;&#191;" d="M9.24157 4.61538C10.1443 4.61538 11.2759 4.00509 11.9498 3.19135C12.5601 2.45391 13.0051 1.42403 13.0051 0.394152C13.0051 0.254292 12.9924 0.114431 12.9669 0C11.9625 0.0381437 10.7546 0.673872 10.0299 1.52575C9.45771 2.17419 8.93642 3.19135 8.93642 4.23395C8.93642 4.38652 8.96185 4.5391 8.97456 4.58996C9.03813 4.60267 9.13985 4.61538 9.24157 4.61538ZM6.06293 20C7.29624 20 7.84296 19.1736 9.38142 19.1736C10.9453 19.1736 11.2886 19.9746 12.6618 19.9746C14.0095 19.9746 14.9123 18.7285 15.7641 17.5079C16.7177 16.1093 17.1119 14.7362 17.1373 14.6726C17.0483 14.6472 14.4672 13.5919 14.4672 10.6294C14.4672 8.06103 16.5016 6.90401 16.616 6.815C15.2683 4.88239 13.2212 4.83153 12.6618 4.83153C11.1487 4.83153 9.91544 5.74698 9.13985 5.74698C8.30069 5.74698 7.19452 4.88239 5.88492 4.88239C3.39287 4.88239 0.862671 6.94215 0.862671 10.8328C0.862671 13.2486 1.80355 15.8042 2.96057 17.4571C3.95231 18.8557 4.8169 20 6.06293 20Z" fill="white"/>
</svg>
