<svg width="43" height="20" viewBox="0 0 43 20" fill="none" xmlns="http://www.w3.org/2000/svg">
<path d="M29.9788 7.70893C30.1373 7.23037 30.0994 6.70846 29.8732 6.25789C29.6471 5.80732 29.2514 5.46495 28.773 5.30602L18.8155 1.96323C18.5785 1.8828 18.3279 1.85039 18.0782 1.8679C17.8285 1.8854 17.5848 1.95248 17.3614 2.06521" fill="white"/>
<path d="M17.3614 2.06521C16.9105 2.29086 16.568 2.68702 16.4085 3.16538L13.3717 12.2937C13.2144 12.7723 13.2529 13.2937 13.4789 13.744C13.7048 14.1942 14.0998 14.5367 14.5775 14.6967L24.5394 18.0394C24.7766 18.1189 25.0271 18.1508 25.2766 18.1333C25.5262 18.1158 25.7698 18.0493 25.9936 17.9375C26.2169 17.8265 26.4158 17.6721 26.5787 17.4833C26.7416 17.2945 26.8652 17.0751 26.9423 16.838L29.9836 7.70961" fill="white"/>
<path d="M22.2347 10.8348C21.6865 11.4491 21.0016 11.9259 20.2352 12.2269L19.7919 12.3998V8.1703L20.2352 8.3432C21.0026 8.64255 21.689 9.11785 22.2391 9.73086C22.5873 9.16121 22.8069 8.52239 22.8824 7.85905C22.958 7.19572 22.8878 6.52388 22.6767 5.89051C22.4655 5.25715 22.1186 4.67754 21.6602 4.19221C21.2017 3.70689 20.6428 3.32756 20.0224 3.08075L18.5683 2.58421C18.4143 2.53368 18.2518 2.51401 18.0903 2.52633C17.9287 2.53866 17.7711 2.58273 17.6265 2.65603C17.482 2.72933 17.3533 2.83042 17.2479 2.95351C17.1425 3.0766 17.0624 3.21927 17.0121 3.37336L13.9664 12.5106C13.867 12.8252 13.8954 13.1662 14.0456 13.46C14.1958 13.7537 14.4556 13.9765 14.7688 14.08L21.6805 16.3854C22.3699 15.6493 22.797 14.7063 22.8956 13.7027C22.9942 12.699 22.7587 11.6909 22.2258 10.8348H22.2347ZM18.2358 7.91759V12.6613H17.5486V7.93089L18.2358 7.91759Z" fill="#2293C8"/>
<path d="M21.8353 10.2815C21.4461 9.82689 20.9736 9.45071 20.4433 9.1732V11.3899C20.9758 11.1101 21.4487 10.7291 21.8353 10.2682" fill="#E43D30"/>
<path d="M28.5563 5.91322L22.2121 3.79405C23.009 4.6655 23.4868 5.78148 23.5673 6.95961C23.6479 8.13774 23.3264 9.30835 22.6555 10.2801C23.3074 11.2229 23.6311 12.3539 23.5766 13.4988C23.5221 14.6437 23.0925 15.7389 22.354 16.6155L24.7392 17.409C24.8931 17.4602 25.0557 17.4803 25.2175 17.4683C25.3793 17.4562 25.5371 17.4122 25.6818 17.3389C25.8264 17.2655 25.9552 17.1642 26.0605 17.0408C26.1658 16.9174 26.2456 16.7743 26.2953 16.6199L29.3544 7.48708C29.4552 7.17311 29.4279 6.83202 29.2785 6.53807C29.129 6.24413 28.8695 6.02113 28.5563 5.91766V5.91322ZM26.8761 12.652H26.016L24.2426 10.2801L26.016 7.91269H26.9027L25.1293 10.289L26.8761 12.652Z" fill="#215C9C"/>
</svg>
