<svg width="42" height="20" viewBox="0 0 42 20" fill="none" xmlns="http://www.w3.org/2000/svg">
<path d="M24.0976 1.82812L20.8681 3.4523L17.6387 1.82812L20.8681 7.96599L24.0976 1.82812Z" fill="#FFB71B"/>
<path d="M25.2499 6.55008L27.554 5.58689V2.33854L23.5502 4.05715L21.3217 8.24979C22.179 8.34863 22.9661 8.7716 23.5216 9.43205C24.0771 10.0925 24.359 10.9404 24.3095 11.802C24.26 12.6636 23.8829 13.4736 23.2554 14.0661C22.6279 14.6586 21.7976 14.9887 20.9345 14.9887C20.0715 14.9887 19.2412 14.6586 18.6137 14.0661C17.9862 13.4736 17.6091 12.6636 17.5596 11.802C17.5101 10.9404 17.7919 10.0925 18.3474 9.43205C18.903 8.7716 19.69 8.34863 20.5474 8.24979L18.3188 4.05715L14.334 2.33854V5.58689L16.6758 6.55008C15.6601 7.43786 14.9395 8.61438 14.6102 9.92252C14.2808 11.2307 14.3583 12.6081 14.8325 13.871C15.3066 15.1339 16.1548 16.2221 17.2637 16.9903C18.3726 17.7584 19.6894 18.17 21.0384 18.17C22.3874 18.17 23.7042 17.7584 24.8131 16.9903C25.922 16.2221 26.7702 15.1339 27.2443 13.871C27.7185 12.6081 27.7961 11.2307 27.4667 9.92252C27.1373 8.61438 26.4167 7.43786 25.401 6.55008H25.2499Z" fill="#FFB71B"/>
</svg>
