<svg width="42" height="20" viewBox="0 0 42 20" fill="none" xmlns="http://www.w3.org/2000/svg">
<path d="M14.2343 14.097C14.0603 15.0528 14.5493 15.3605 15.3988 15.3605C16.0008 15.3605 16.6762 15.132 16.8123 14.5292C16.9772 13.8133 15.9092 13.6764 14.8767 13.3449C13.8442 13.0134 12.8249 12.4922 13.163 11.0011C13.5655 9.22638 15.4095 8.53116 16.8494 8.53116C18.3759 8.53116 19.7358 9.31709 19.3301 11.1504H17.3318C17.5314 10.4082 16.9294 10.1707 16.3175 10.1707C15.887 10.1707 15.3138 10.329 15.1934 10.865C15.0507 11.491 16.1319 11.6073 17.1727 11.9371C18.2134 12.267 19.1981 12.8121 18.8666 14.2801C18.399 16.3418 16.5946 17.0016 14.9081 17.0016C13.1449 17.0016 11.7742 16.1827 12.2328 14.1003L14.2343 14.097Z" fill="#005EA1"/>
<path d="M28.0644 8.70186H30.0626L28.2211 16.8276H26.2212L28.0644 8.70186Z" fill="#005EA1"/>
<path d="M20.7799 8.7027H24.3681C25.695 8.68043 27.0632 9.0433 26.6773 10.7397C26.5123 11.4679 25.9697 12.0592 25.2959 12.3784C26.0563 12.6258 26.3911 13.3804 26.1824 14.3015C25.7454 16.2371 24.2683 16.8309 22.6239 16.8309H18.9383L20.7799 8.7027ZM22.0532 11.9009H23.6003C23.9442 11.9009 24.4605 11.7062 24.59 11.1265C24.7194 10.5467 24.3714 10.3405 23.9525 10.3405H22.4062L22.0532 11.9009ZM21.3201 15.132H22.9224C23.5558 15.132 24.0498 14.892 24.2032 14.2248C24.3681 13.5074 23.9467 13.2682 23.3447 13.2682H21.7431L21.3201 15.132Z" fill="#005EA1"/>
<path d="M32.8542 5.44001C31.7491 2.50575 25.427 2.17092 18.7355 4.69119C13.963 6.48902 10.2923 9.25422 8.97852 11.758C10.7928 9.86119 13.7271 7.99738 17.2659 6.66303C23.9582 4.14194 30.2795 4.47759 31.3846 7.41268C31.7029 8.25386 31.5553 9.21793 31.0267 10.2257C32.6447 8.53673 33.3746 6.8222 32.8542 5.44248" fill="#EE303C"/>
</svg>
