<svg width="43" height="20" viewBox="0 0 43 20" fill="none" xmlns="http://www.w3.org/2000/svg">
<path fill-rule="evenodd" clip-rule="evenodd" d="M18.7248 18.3869C18.3243 18.6584 17.8561 18.813 17.3727 18.8336C16.8097 18.8233 16.2713 18.6008 15.8654 18.2106C15.4595 17.8203 15.216 17.2911 15.1836 16.729L17.4532 15.3809L20.9743 16.9583L18.7248 18.3869Z" fill="#72A3B6"/>
<path fill-rule="evenodd" clip-rule="evenodd" d="M20.0647 12.5845L18.3826 11.8441C17.6301 11.5141 16.9219 11.2284 16.9219 10.4034C16.9107 10.2427 16.9345 10.0815 16.9914 9.93076C17.0484 9.78005 17.1372 9.64341 17.2519 9.5302L20.8052 11.0916L19.9319 11.6067C19.6865 11.7515 19.5295 11.8843 19.5295 12.0735C19.5295 12.2626 19.7589 12.4477 20.0768 12.5845H20.0647Z" fill="#96CE8E"/>
<path fill-rule="evenodd" clip-rule="evenodd" d="M21.7142 4.82039L19.9878 5.87068C19.8349 5.96324 19.6256 6.10811 19.6256 6.34151C19.6256 6.57491 20.028 6.80027 20.3781 6.96928L18.2252 6.01957C17.5934 5.73788 16.9536 5.42401 16.9536 4.6554C16.9493 4.36866 17.0336 4.08758 17.195 3.85057L21.863 1.00146C22.1898 1.1811 22.4631 1.44399 22.6554 1.76346C22.8476 2.08292 22.9519 2.44758 22.9576 2.82039C22.9604 3.23874 22.8453 3.64942 22.6253 4.0053C22.4054 4.36119 22.0896 4.64787 21.7142 4.83246V4.82039Z" fill="#72A3B6"/>
<path fill-rule="evenodd" clip-rule="evenodd" d="M25.3802 8.18363L24.9537 8.42909L21.3842 6.85566L25.5291 4.35666C25.8568 4.53731 26.1314 4.80068 26.3256 5.12053C26.5197 5.44038 26.6267 5.80553 26.6358 6.1796C26.6424 6.60025 26.5274 7.01388 26.3047 7.3708C26.082 7.72772 25.761 8.01275 25.3802 8.19167V8.18363Z" fill="#96CE8E"/>
<path fill-rule="evenodd" clip-rule="evenodd" d="M22.3667 11.2192L24.4794 12.1448C25.2842 12.4989 25.5136 12.9174 25.5136 13.4405C25.5066 13.5954 25.4672 13.7471 25.3979 13.8857C25.3285 14.0243 25.2309 14.1469 25.1112 14.2454L21.5659 12.6679L22.1615 12.3379C22.6685 12.0522 22.8415 11.8872 22.8415 11.7021C22.8415 11.517 22.7168 11.3842 22.3707 11.2232L22.3667 11.2192Z" fill="#72A3B6"/>
<path fill-rule="evenodd" clip-rule="evenodd" d="M26.1375 18.999C25.1986 18.3221 24.1828 17.7588 23.1113 17.321L17.7431 14.9346C16.391 14.331 15.4936 13.5342 15.4936 12.1821C15.4936 10.83 16.1294 10.2344 16.9544 9.71129L17.2519 9.5302C17.1372 9.64341 17.0484 9.78005 16.9914 9.93076C16.9345 10.0815 16.9107 10.2427 16.9219 10.4034C16.9219 11.2284 17.6301 11.5141 18.3826 11.8441L24.6284 14.5966C25.723 15.0674 26.7129 15.8723 26.7129 17.2324C26.7264 17.8694 26.5236 18.4922 26.1375 18.999Z" fill="#4C9847"/>
<path fill-rule="evenodd" clip-rule="evenodd" d="M25.4934 13.996L25.091 14.2415C25.2107 14.143 25.3084 14.0205 25.3777 13.8818C25.447 13.7432 25.4864 13.5915 25.4934 13.4367C25.4934 12.9135 25.2479 12.495 24.4592 12.1409L17.7791 9.2073C16.427 8.59966 15.586 7.83104 15.586 6.48698C15.5816 5.9426 15.7277 5.4076 16.0082 4.94104C16.2887 4.47448 16.6926 4.09452 17.1755 3.84311C17.0141 4.08012 16.9297 4.3612 16.9341 4.64794C16.9341 5.41655 17.5739 5.73044 18.2057 6.01213L24.6966 8.87732C25.8838 9.40448 26.8415 10.2013 26.8415 11.6339C26.8552 12.1147 26.7344 12.5899 26.4927 13.0058C26.251 13.4217 25.8979 13.7619 25.4733 13.988L25.4934 13.996Z" fill="#296085"/>
</svg>
