<svg width="42" height="20" viewBox="0 0 42 20" fill="none" xmlns="http://www.w3.org/2000/svg">
<path d="M32.483 7.50473H33.1561C33.1773 7.50473 33.1977 7.49629 33.2128 7.48125C33.2278 7.46622 33.2362 7.44583 33.2362 7.42457V6.15552C33.2362 6.14506 33.2342 6.13471 33.2301 6.12507C33.2261 6.11542 33.2201 6.10668 33.2127 6.09936C33.2052 6.09203 33.1964 6.08628 33.1866 6.08241C33.1769 6.07855 33.1665 6.07666 33.1561 6.07686H32.2107C31.1171 6.07686 30.5378 6.42627 30.2066 7.16894L28.151 12.2043C28.1096 12.3431 28.0215 12.4632 27.9015 12.5443C27.7815 12.6254 27.6372 12.6624 27.493 12.649V6.15552C27.493 6.14506 27.4909 6.13471 27.4869 6.12507C27.4828 6.11542 27.4769 6.10668 27.4694 6.09936C27.462 6.09203 27.4531 6.08628 27.4434 6.08241C27.4337 6.07855 27.4233 6.07666 27.4128 6.07686H25.9003C25.8898 6.07666 25.8794 6.07855 25.8697 6.08241C25.86 6.08628 25.8511 6.09203 25.8437 6.09936C25.8362 6.10668 25.8303 6.11542 25.8262 6.12507C25.8222 6.13471 25.8201 6.14506 25.8201 6.15552V13.9377C25.8205 13.9748 25.8355 14.0101 25.8618 14.0362C25.8882 14.0623 25.9237 14.0769 25.9608 14.0769H27.6564C28.7484 14.0769 29.2491 13.7275 29.5788 12.9848L31.6087 8.01145C31.7721 7.65902 32.0065 7.50473 32.483 7.50473Z" fill="#D71920"/>
<path d="M14.0185 9.91873C14.6235 9.66613 15.1257 9.09891 15.1257 8.16111C15.1257 6.76501 13.9277 5.91797 12.4832 5.91797H8.01812C7.99726 5.91797 7.97726 5.92626 7.96251 5.94101C7.94775 5.95576 7.93947 5.97576 7.93947 5.99662V7.26567C7.93927 7.27613 7.94115 7.28652 7.94501 7.29623C7.94888 7.30595 7.95464 7.3148 7.96196 7.32227C7.96929 7.32973 7.97803 7.33566 7.98767 7.33971C7.99731 7.34376 8.00766 7.34584 8.01812 7.34584H12.1747C12.8447 7.34584 13.2985 7.75575 13.2985 8.25338C13.2985 8.75102 12.8447 9.16849 12.1747 9.16849H9.70464V8.22918C9.70485 8.2186 9.70291 8.20808 9.69896 8.19826C9.695 8.18844 9.6891 8.17952 9.68162 8.17203C9.67413 8.16455 9.66521 8.15865 9.65539 8.1547C9.64558 8.15074 9.63506 8.14881 9.62447 8.14901H8.01812C8.00766 8.14901 7.99731 8.1511 7.98767 8.15514C7.97803 8.15919 7.96929 8.16512 7.96196 8.17258C7.95464 8.18005 7.94888 8.1889 7.94501 8.19862C7.94115 8.20834 7.93927 8.21872 7.93947 8.22918V13.8363C7.93947 13.8572 7.94775 13.8772 7.96251 13.8919C7.97726 13.9067 7.99726 13.9149 8.01812 13.9149H12.4197C14.0654 13.9149 15.2437 13.1481 15.2437 11.5826C15.2471 11.21 15.1294 10.8464 14.9085 10.5464C14.6876 10.2463 14.3753 10.0261 14.0185 9.91873ZM12.2609 12.5249H9.70464V10.6493H12.2609C12.9476 10.6493 13.4135 11.0698 13.4135 11.5871C13.4135 12.1044 12.9476 12.5249 12.2609 12.5249Z" fill="#D71920"/>
<path d="M34.0474 13.9819L31.4564 10.6693C31.4553 10.6674 31.4538 10.6659 31.4519 10.6648C31.4501 10.6637 31.448 10.6631 31.4458 10.6631C31.4436 10.6631 31.4415 10.6637 31.4396 10.6648C31.4378 10.6659 31.4362 10.6674 31.4352 10.6693L30.7379 12.3755C30.7353 12.3804 30.7339 12.3858 30.7339 12.3914C30.7339 12.3969 30.7353 12.4024 30.7379 12.4073L31.8708 13.9198C31.9036 13.9694 31.9488 14.0094 32.0019 14.0359C32.0549 14.0625 32.1141 14.0746 32.1733 14.0711H33.9975C34.0085 14.0729 34.0198 14.0712 34.0298 14.0663C34.0399 14.0615 34.0482 14.0537 34.0536 14.0439C34.0591 14.0342 34.0614 14.023 34.0603 14.0119C34.0592 14.0008 34.0547 13.9903 34.0474 13.9819Z" fill="#D71920"/>
<path d="M18.0799 8.31618H16.5673C16.5461 8.31618 16.5257 8.32463 16.5107 8.33966C16.4956 8.3547 16.4872 8.37509 16.4872 8.39635V14.0035C16.4872 14.0139 16.4893 14.0243 16.4933 14.0339C16.4974 14.0436 16.5033 14.0523 16.5108 14.0596C16.5182 14.0669 16.5271 14.0727 16.5368 14.0766C16.5465 14.0804 16.5569 14.0823 16.5673 14.0821H18.0799C18.1009 14.0821 18.1211 14.0739 18.1361 14.0592C18.1511 14.0445 18.1597 14.0245 18.1601 14.0035V8.39333C18.1593 8.37259 18.1505 8.35297 18.1356 8.33858C18.1206 8.3242 18.1007 8.31617 18.0799 8.31618Z" fill="#D71920"/>
<path d="M24.3041 6.07686H22.7915C22.7812 6.07686 22.7709 6.0789 22.7614 6.08285C22.7519 6.0868 22.7432 6.0926 22.7359 6.0999C22.7286 6.10721 22.7228 6.11588 22.7188 6.12542C22.7149 6.13496 22.7128 6.14519 22.7128 6.15552V12.649C22.5687 12.6624 22.4243 12.6254 22.3043 12.5443C22.1844 12.4632 22.0962 12.3431 22.0549 12.2043L19.9963 7.16894C19.6665 6.42627 19.0887 6.07686 17.9936 6.07686H16.5688C16.5583 6.07666 16.5479 6.07855 16.5382 6.08241C16.5285 6.08628 16.5196 6.09203 16.5122 6.09936C16.5047 6.10668 16.4988 6.11542 16.4947 6.12507C16.4907 6.13471 16.4886 6.14506 16.4886 6.15552V7.42457C16.4886 7.44583 16.497 7.46622 16.5121 7.48125C16.5271 7.49629 16.5475 7.50473 16.5688 7.50473H17.7198C18.1978 7.50473 18.4307 7.65599 18.5941 8.01145L20.624 12.9848C20.9552 13.7275 21.4544 14.0769 22.548 14.0769H24.2421C24.2791 14.0769 24.3146 14.0623 24.341 14.0362C24.3673 14.0101 24.3823 13.9748 24.3827 13.9377V6.15552C24.3827 6.13466 24.3744 6.11465 24.3597 6.0999C24.3449 6.08515 24.3249 6.07686 24.3041 6.07686Z" fill="#D71920"/>
</svg>
