<svg width="41" height="20" viewBox="0 0 41 20" fill="none" xmlns="http://www.w3.org/2000/svg">
<path d="M30.5396 10.2003L30.3612 10.077C30.0123 9.73384 29.598 9.47773 29.1476 9.32675C28.6972 9.17577 28.2216 9.13361 27.7544 9.20322C26.9412 9.27588 26.1576 9.56699 25.4747 10.0502V10.0073C25.4811 9.67027 25.5043 9.33386 25.5441 8.99952C25.5738 8.65109 25.6085 8.30267 25.6085 7.97033C25.619 7.65213 25.5702 7.3349 25.4648 7.0376C25.4522 7.00242 25.4295 6.97254 25.4001 6.95229C25.3707 6.93203 25.3361 6.92248 25.3013 6.92503C24.9294 6.96286 24.5702 7.09114 24.2506 7.30027L24.1713 7.48252C24.17 7.99265 24.1185 8.50118 24.0177 8.99952C24.0067 9.04318 23.9935 9.08612 23.978 9.12817C23.8542 10.4112 23.8542 11.7047 23.978 12.9877C23.978 13.0949 24.1911 13.2611 24.3398 13.3254C24.6803 13.3344 25.0186 13.2631 25.331 13.1163H25.445C25.4677 13.1131 25.4896 13.1049 25.5093 13.0922C25.529 13.0796 25.5461 13.0627 25.5595 13.0426C25.573 13.0225 25.5825 12.9997 25.5875 12.9755C25.5925 12.9513 25.5929 12.9263 25.5887 12.9019V12.5857C25.7243 12.0354 25.9941 11.5347 26.3699 11.1358C26.7456 10.7369 27.2135 10.4545 27.7247 10.3182C27.9802 10.2584 28.2457 10.2725 28.4946 10.359C28.7434 10.4456 28.9667 10.6016 29.1421 10.8114C29.2555 11.3443 29.172 11.9041 28.9091 12.3712C28.539 13.0268 27.9641 13.5173 27.2886 13.7542C26.4948 14.0602 25.6516 14.1879 24.8106 14.1295C24.766 14.1027 23.8938 13.4648 23.8938 13.4648C23.0875 12.7987 22.2128 12.2357 21.287 11.787C21.0742 11.6586 20.8749 11.5058 20.6923 11.3313L20.608 11.2509C20.1125 10.8114 19.1461 10.1252 18.3779 9.57309L17.9666 9.26755V9.17643C17.9666 9.14962 18.4621 8.83872 18.4621 8.83872C18.839 8.63739 19.1918 8.38717 19.5128 8.09361L19.6069 8.03465L21.282 7.00544C22.8877 6.05128 24.7115 4.96847 25.668 3.89638L25.7126 3.73021V3.58547C25.7694 3.38823 25.7694 3.17699 25.7126 2.97975C25.7063 2.94531 25.6907 2.91366 25.6678 2.88885C25.6448 2.86403 25.6156 2.84716 25.5837 2.84037C24.8354 2.75997 23.874 3.24241 22.9968 4.13224C22.8345 4.29379 22.6528 4.43082 22.4566 4.53963L22.3228 4.61468C21.3316 5.20969 19.1758 6.6731 18.0359 7.46644C18.1437 5.85828 18.3373 4.2582 18.6158 2.6742L18.586 2.48658L18.4671 2.25072L18.3779 2.07918C18.2063 1.98866 18.0086 1.97519 17.8278 2.04167L17.5998 2.13279L17.2975 2.25072C17.2687 2.25735 17.2419 2.27158 17.2194 2.29216C17.1969 2.31274 17.1795 2.33902 17.1687 2.36865C16.5513 4.18107 16.1791 6.08038 16.0635 8.00784C15.228 7.44077 14.3643 6.92361 13.4765 6.45868H13.4171C13.2 6.40014 12.995 6.29834 12.8124 6.15849L12.4011 5.86902L11.7667 5.42946L11.5982 5.38659C11.2287 5.51297 10.9002 5.75104 10.6517 6.07272C10.6327 6.10675 10.6225 6.14559 10.6219 6.18529C10.6266 6.23988 10.6365 6.29379 10.6517 6.34611L10.6814 6.48547L10.7111 6.57124C11.2732 7.08109 11.8906 7.51491 12.5498 7.86311L13.4171 8.36163L14.7502 9.14427L14.9782 9.3426L15.1318 9.43908H15.1615C14.8047 9.69102 12.743 11.1866 12.743 11.1866L11.4446 12.1515C11.2066 12.2925 10.9618 12.4196 10.7111 12.5321C10.4701 12.6234 10.2665 12.8037 10.1363 13.0413L10.1016 13.1217L10.1363 13.1753L10.2354 13.2557L10.5079 13.4487L10.6368 13.4755C11.0493 13.415 11.4477 13.2713 11.8113 13.052C12.3813 12.7786 13.9275 11.7709 14.5916 11.342L14.8741 11.1544C15.0085 11.1348 15.1336 11.069 15.2309 10.9668C15.4179 10.8173 15.6169 10.6863 15.8256 10.5755C15.8256 10.5755 15.9346 10.5112 16.0288 10.4576V10.5433C16.0172 12.2205 16.1399 13.8957 16.3955 15.55V15.6036C16.5486 15.971 16.6633 16.3558 16.7375 16.7507L16.9853 17.662L17.0596 17.7478C17.3229 17.9183 17.6251 18.0056 17.9319 17.9997H18.0062L18.0508 17.8872C18.0753 17.7494 18.0869 17.6093 18.0855 17.469C18.0855 17.3029 18.0855 17.1206 18.0855 16.8955V16.5685C17.9913 15.0407 17.9021 12.8162 17.9021 11.3688V11.2509L19.1907 12.13C20.9748 13.379 23.651 15.2766 25.3013 15.7751C25.3422 15.7883 25.3857 15.7899 25.4274 15.7795C25.4691 15.7692 25.5076 15.7474 25.5391 15.7162L25.7919 15.5446H25.8365C25.8922 15.4958 25.9365 15.4335 25.9658 15.3627C25.9951 15.2919 26.0085 15.2147 26.005 15.1372C27.3778 15.0676 29.2957 14.494 30.3216 13.1003C30.688 12.5951 30.8901 11.9733 30.8965 11.3313C30.9184 10.94 30.7974 10.555 30.5595 10.2592" fill="#FCAF17"/>
</svg>
