<svg width="42" height="20" viewBox="0 0 42 20" fill="none" xmlns="http://www.w3.org/2000/svg">
<path fill-rule="evenodd" clip-rule="evenodd" d="M18.7112 18.3854C18.3106 18.6569 17.8425 18.8115 17.3591 18.8321C16.7961 18.8219 16.2577 18.5994 15.8517 18.2091C15.4458 17.8189 15.2023 17.2897 15.1699 16.7275L17.4395 15.3794L20.9607 16.9569L18.7112 18.3854Z" fill="#72A3B6"/>
<path fill-rule="evenodd" clip-rule="evenodd" d="M20.0511 12.5831L18.369 11.8426C17.6165 11.5126 16.9082 11.2269 16.9082 10.402C16.8971 10.2413 16.9208 10.08 16.9778 9.9293C17.0347 9.77858 17.1235 9.64194 17.2382 9.52874L20.7915 11.0901L19.9183 11.6052C19.6728 11.7501 19.5159 11.8829 19.5159 12.072C19.5159 12.2611 19.7452 12.4462 20.0631 12.5831H20.0511Z" fill="#96CE8E"/>
<path fill-rule="evenodd" clip-rule="evenodd" d="M21.7005 4.81892L19.9741 5.86922C19.8212 5.96177 19.612 6.10665 19.612 6.34005C19.612 6.57345 20.0144 6.7988 20.3645 6.96781L18.2116 6.01811C17.5798 5.73642 16.9399 5.42254 16.9399 4.65393C16.9356 4.36719 17.0199 4.08611 17.1814 3.8491L21.8494 1C22.1761 1.17963 22.4495 1.44253 22.6417 1.76199C22.834 2.08146 22.9382 2.44612 22.9439 2.81892C22.9468 3.23728 22.8316 3.64795 22.6117 4.00384C22.3917 4.35973 22.0759 4.64641 21.7005 4.83099V4.81892Z" fill="#72A3B6"/>
<path fill-rule="evenodd" clip-rule="evenodd" d="M25.3666 8.18216L24.94 8.42763L21.3706 6.8542L25.5154 4.35519C25.8431 4.53584 26.1177 4.79922 26.3119 5.11907C26.5061 5.43892 26.613 5.80407 26.6221 6.17813C26.6287 6.59879 26.5138 7.01242 26.291 7.36934C26.0683 7.72625 25.7473 8.01128 25.3666 8.1902V8.18216Z" fill="#96CE8E"/>
<path fill-rule="evenodd" clip-rule="evenodd" d="M22.353 11.2177L24.4657 12.1433C25.2705 12.4974 25.4999 12.9159 25.4999 13.4391C25.4929 13.5939 25.4535 13.7456 25.3842 13.8842C25.3149 14.0229 25.2172 14.1454 25.0975 14.2439L21.5522 12.6664L22.1478 12.3365C22.6548 12.0507 22.8279 11.8857 22.8279 11.7006C22.8279 11.5155 22.7031 11.3827 22.357 11.2218L22.353 11.2177Z" fill="#72A3B6"/>
<path fill-rule="evenodd" clip-rule="evenodd" d="M26.1238 18.9975C25.1849 18.3206 24.1691 17.7573 23.0977 17.3195L17.7294 14.9332C16.3773 14.3295 15.48 13.5328 15.48 12.1806C15.48 10.8285 16.1158 10.233 16.9407 9.70983L17.2382 9.52874C17.1235 9.64194 17.0347 9.77858 16.9778 9.9293C16.9208 10.08 16.8971 10.2413 16.9082 10.402C16.9082 11.2269 17.6165 11.5126 18.369 11.8426L24.6148 14.5951C25.7093 15.066 26.6993 15.8708 26.6993 17.231C26.7128 17.868 26.5099 18.4907 26.1238 18.9975Z" fill="#4C9847"/>
<path fill-rule="evenodd" clip-rule="evenodd" d="M25.4797 13.9946L25.0773 14.24C25.197 14.1415 25.2947 14.019 25.364 13.8804C25.4333 13.7417 25.4728 13.5901 25.4797 13.4352C25.4797 12.9121 25.2343 12.4936 24.4455 12.1394L17.7655 9.20584C16.4133 8.59819 15.5723 7.82957 15.5723 6.48551C15.5679 5.94114 15.714 5.40614 15.9945 4.93958C16.275 4.47302 16.679 4.09305 17.1618 3.84164C17.0004 4.07865 16.9161 4.35973 16.9204 4.64647C16.9204 5.41508 17.5602 5.72897 18.192 6.01066L24.683 8.87585C25.8701 9.40302 26.8278 10.1998 26.8278 11.6324C26.8416 12.1133 26.7208 12.5884 26.479 13.0043C26.2373 13.4203 25.8842 13.7604 25.4596 13.9865L25.4797 13.9946Z" fill="#296085"/>
</svg>
