<svg width="42" height="20" viewBox="0 0 42 20" fill="none" xmlns="http://www.w3.org/2000/svg">
<path d="M21.0007 3C15.0285 3 11.0918 6.13418 11.0918 10.0025C11.0918 13.8709 15.026 17.0025 21.0007 17.0025C26.9753 17.0025 30.907 13.8658 30.907 10.0025C30.907 6.13924 26.9703 3 21.0007 3Z" fill="white"/>
<path d="M22.7728 12.6177C24.4741 12.3215 30.2184 11.1392 29.5095 7.86329C29.2564 6.68607 28.0462 5.3924 26.2184 4.49367C24.5648 3.78321 22.78 3.42952 20.9804 3.45569C15.4386 3.45569 11.5829 6.38734 11.5829 10.0025C11.5829 12.519 13.4538 14.7038 16.4639 15.7975C17.0943 14.1165 19.6361 13.1595 22.7728 12.6177Z" fill="#007DC5"/>
<path d="M21.0007 13.7772C18.5121 14.0886 17.3728 14.8912 16.6412 15.8658C18.0344 16.3288 19.4946 16.5581 20.9627 16.5443C26.507 16.5443 30.3627 13.6152 30.3627 10.0025C30.3627 9.68571 30.333 9.36956 30.2741 9.05824C30.0994 13.3013 23.7298 13.438 21.0007 13.7772Z" fill="url(#paint0_linear_1296_36058)"/>
<path d="M15.6234 6.58483H13.7652L13.7855 6.63799C13.8593 6.92803 13.8841 7.22838 13.8589 7.5266C13.8589 7.60255 13.8589 11.8304 13.8589 11.8304H13.8943C13.8943 11.8304 14.7424 11.8608 15.5374 11.8608C17.1981 11.8608 18.3222 10.7367 18.3222 9.06078C18.3121 7.55192 17.2564 6.58483 15.6234 6.58483ZM14.6538 7.05319C14.7602 7.05319 15.0893 7.02027 15.3247 7.02027C16.745 7.02027 17.4057 7.70888 17.4057 9.18483C17.4057 10.7038 16.8184 11.4633 15.6108 11.4633C14.7247 11.4633 14.6538 11.4203 14.6538 10.8962V7.05319Z" fill="white"/>
<path d="M23.3019 11.7823C23.2741 11.4734 23.2614 11.276 23.2614 11.0861V9.25064H22.3804L22.4083 9.30887C22.4785 9.48749 22.5087 9.67933 22.4969 9.8709C22.4969 9.88356 22.4969 11.1367 22.4665 11.443C22.242 11.4923 22.0128 11.5169 21.7829 11.5165C20.3804 11.5165 19.669 10.7114 19.669 9.12659C19.669 7.91647 20.469 7.01266 21.6158 6.92912C22.1697 6.87143 22.7245 7.02918 23.1652 7.36963L23.2285 7.42533V6.68355H23.1981C22.8002 6.59746 22.395 6.54915 21.988 6.53925C19.9627 6.53925 18.7652 7.60001 18.7652 9.37976C18.7652 11.2734 20.2361 11.9494 21.6133 11.9494C22.1675 11.9512 22.721 11.9105 23.269 11.8279H23.3045L23.3019 11.7823Z" fill="white"/>
<path d="M26.4538 8.94433C26.7311 8.87742 26.9785 8.72075 27.1575 8.49869C27.3365 8.27663 27.4371 8.00163 27.4437 7.71648C27.4437 7.00762 26.8032 6.58483 25.7323 6.58483H24.1424V6.6304C24.1828 6.85929 24.1989 7.0918 24.1905 7.32407V11.8633H24.2285C24.2285 11.8633 24.8538 11.8507 25.6209 11.8507C26.9576 11.8507 27.7247 11.2709 27.7247 10.2583C27.7348 9.63293 27.2159 9.10888 26.4538 8.94433ZM24.9931 9.19749H25.4032C26.35 9.19749 26.831 9.56964 26.831 10.3038C26.831 11.038 26.4184 11.4532 25.5652 11.4532C25.1551 11.4532 24.9931 11.3038 24.9931 10.9215V9.19749ZM24.9931 6.99242H25.5121C26.3298 6.99242 26.6791 7.24559 26.6791 7.82027C26.6791 8.4785 26.2513 8.78736 25.3298 8.78736H24.9905L24.9931 6.99242Z" fill="white"/>
<defs>
<linearGradient id="paint0_linear_1296_36058" x1="10.7664" y1="9.99835" x2="31.0715" y2="9.99835" gradientUnits="userSpaceOnUse">
<stop offset="0.1" stop-color="#007DC5"/>
<stop offset="0.23" stop-color="#0083CB"/>
<stop offset="0.4" stop-color="#0095DA"/>
<stop offset="0.75" stop-color="#00B49D"/>
<stop offset="1" stop-color="#72BF44"/>
</linearGradient>
</defs>
</svg>
