<svg width="42" height="20" viewBox="0 0 42 20" fill="none" xmlns="http://www.w3.org/2000/svg">
<path d="M28.0407 14.1138H28.0194L27.9856 14.0658H27.9678L27.8825 13.9662L27.8292 13.9129V13.8987L27.7936 13.8667V13.8489H27.7829L27.7652 13.8222H27.7456L27.7367 13.8044L27.6905 13.7884V13.7796L27.6549 13.7653V13.7564L27.6176 13.7404L27.6087 13.7227L27.5554 13.6942L27.5252 13.6836L27.5163 13.6622L27.4825 13.648L27.4701 13.6302H27.4541L27.4434 13.6124L27.4167 13.5982L27.3989 13.5716H27.3776V13.5538H27.3545L27.3189 13.504H27.3029L27.2283 13.4133H27.2123V13.4044L27.1838 13.3831V13.3209L27.1109 13.2462V13.2302L27.0932 13.2178L27.0629 13.1769V13.1609L27.1109 13.1093H27.1287L27.1483 13.0862H27.1661L27.1767 13.0702H27.2034V13.0596H27.2212L27.2318 13.0436H27.2461L27.2585 13.0293H27.2745L27.2834 13.0133H27.3136L27.3385 12.9849H27.3581L27.3669 12.9689H27.3865L27.4398 12.9191H27.4701V12.9031L27.5269 12.8622L27.5625 12.8427L27.5732 12.8196L27.5998 12.8089V12.7893L27.6283 12.7787V12.7876H27.6461V12.7716H27.6638V12.7556H27.6816L27.6923 12.7324L27.7029 12.7004H27.7189L27.7314 12.6667H27.7581L27.7829 12.6364H27.8025L27.8203 12.6133H27.8381L27.8487 12.5973H27.8647L27.9021 12.5618H27.9234L27.9856 12.5067H28.0034L28.0123 12.4924L28.0407 12.48V12.464L28.0781 12.4284H28.0958V12.4107L28.1154 12.3876L28.1492 12.3698V12.352L28.1776 12.3378V12.3236L28.2061 12.3129V12.2933H28.2256V12.2542H28.2452V12.2276L28.3269 12.1742V12.1582L28.3998 12.1369V12.1209L28.4567 12.1049V12.0871L28.5385 12.0516V12.0356H28.5563L28.6238 11.9556H28.6398V11.9378H28.6594V11.9218H28.6807L28.7163 11.8773V11.8524L28.7447 11.84L28.7607 11.792H28.7821L28.7981 11.7351H28.8158V11.7031H28.8336V11.6693H28.8532L28.8621 11.6284L28.8727 11.5698H28.8816V11.5538H28.8905V11.52H28.8994V11.5431H28.9083V11.5004H28.9261V11.4382H28.9438V11.3618H28.9616V11.2142H28.9723V11.1787H28.9812L28.9598 11.0631V10.9156H28.9421V10.832L28.9225 10.8196V10.7591L28.9047 10.7467V10.704H28.8958V10.688H28.8852V10.6542H28.8763V10.6276H28.8638V10.6133V10.5778H28.8514V10.5333H28.8336H28.8496L28.8621 10.5511H28.8763L28.8976 10.5813H28.9172V10.6009H28.9296L28.9652 10.6507H28.9847L29.0594 10.7413L29.1163 10.7822L29.1429 10.8302H29.1607L29.1696 10.8569L29.2158 10.8996V10.9173L29.2621 10.9582V10.9742L29.2816 10.9867V11.0044L29.3083 11.024V11.0418L29.3261 11.0524V11.0702L29.3421 11.0809L29.3509 11.1076H29.3598L29.9234 11.7333L29.9412 11.7422V11.76L29.9607 11.7724L29.9696 11.7973H29.9785L30.1065 11.9467H30.1261L30.1438 11.9716H30.1616L30.1918 12.0089H30.2078L30.2381 12.048H30.2523L30.3109 12.1173L30.4283 12.24L30.4656 12.2898L30.6238 12.4516L30.6345 12.4693L30.6701 12.4853L30.6789 12.5031L30.7145 12.5191L30.7252 12.5369L31.0807 12.8924H31.0985L31.1252 12.9404H31.1341V12.9564L31.1536 12.9689L31.1714 12.9813V12.9973L31.1892 13.0116V13.0276L31.2158 13.0489L31.3634 13.2036H31.3794L31.3901 13.2213H31.4078L31.4256 13.248H31.4434L31.4612 13.2747H31.4807L31.5092 13.312H31.5269L31.5998 13.4027H31.6194L31.6461 13.4258V13.4987L31.7296 13.5822L31.8523 13.696V13.7049H31.8683V13.7156L31.8843 13.7244L31.9216 13.7422L31.9696 13.7742V13.7938L31.9981 13.8169H32.0158L32.0443 13.8364V13.856L32.0709 13.8756H32.0905L32.1083 13.8969L32.1189 13.9164L32.2647 14.0587L32.4781 14.2738L32.4976 14.2951H32.5118L32.5243 14.3129L33.0185 14.7609L33.0469 14.7822L33.3243 15.0844H33.3421L33.3794 15.1342H33.3972L33.4061 15.1538L33.4612 15.2053L33.4985 15.248L33.5447 15.3049L33.5821 15.3547L33.6087 15.3938L33.6265 15.4204L33.6567 15.4756L33.6905 15.5236L33.7101 15.5627L33.7207 15.5805L33.7492 15.6373V15.6622H33.7581V15.696H33.7669V15.7209H33.7758V15.7387H33.7847V15.7653H33.7954V15.8187L33.8558 16.0711V16.1724H33.8647V16.4462H33.8558V16.528H33.8452V16.56H33.8363V16.5938H33.8256V16.6204H33.8167V16.6791H33.8078V16.6951H33.7972V16.72H33.7865V16.7609H33.7776L33.7598 16.8089H33.7492V16.8249H33.7403V16.864H33.7296L33.7154 16.9102H33.7047V16.9333H33.6852V16.9671H33.6656V16.9831L33.6389 16.9956V17.0133L33.6123 17.024V17.0542H33.5518V17.0738L33.4701 17.1218L33.3972 17.1876H33.3812L33.3527 17.2142H33.3332L33.3172 17.2373H33.2958L33.2798 17.2569H33.2621L33.2532 17.2711H33.1892L33.1803 17.2853H33.1252L33.1163 17.2996L33.0363 17.3102V17.3191H32.7269C32.7269 17.3191 32.4532 17.2836 32.3447 17.2569C32.2363 17.2302 31.9572 17.1253 31.9572 17.1253L31.9181 17.1129H31.9056V17.104L31.8576 17.088V17.0791L31.8238 17.0667V17.056H31.7936L31.7563 17.0418V17.0311L31.7207 17.0151L31.7118 16.9973L31.6549 16.9707L31.3918 16.8036H31.3545V16.7929H31.3278V16.784H31.2994L31.2709 16.7716L30.8514 16.4818H30.8318L30.7945 16.4302H30.7749L30.5189 16.2347V16.224L30.4852 16.208H30.4549V16.1973L30.4016 16.1689H30.3821V16.16L30.3447 16.144L30.3341 16.1244L30.2807 16.0978L30.2701 16.08H30.2541V16.0693L30.2274 16.0587L30.2167 16.0373H30.1989L30.1776 16.0089H30.1634L30.1527 15.9911H30.1349L30.0958 15.9413H30.0781L29.7758 15.6925V15.6836L29.7207 15.6551H29.7029V15.6462H29.6834L29.6301 15.6213L29.6212 15.6L29.5838 15.5876L29.5732 15.5662L29.5376 15.552L29.5198 15.5218H29.5003L29.4914 15.504H29.4718L29.4523 15.4756C29.4523 15.4756 29.1429 15.2284 29.0221 15.12C28.9012 15.0116 28.5314 14.6738 28.4887 14.6276L28.4567 14.5956V14.5778L28.4087 14.5351V14.5102L28.3909 14.4818L28.0407 14.1138Z" fill="#A3CF62"/>
<path d="M21.4345 12.1244V12.1404L21.5074 12.1902V12.2062L21.5838 12.2524V12.2702L21.6105 12.2773V12.2844L21.6194 12.304L21.6478 12.3324L21.6656 12.3378V12.3627L21.6869 12.3662L21.7065 12.4124L21.7154 12.4142V12.4302L21.7332 12.4444V12.4675L21.7509 12.4729V12.4889L21.7687 12.4924L21.7901 12.5387L21.8078 12.5422V12.5582L21.8274 12.5635L21.8718 12.64L21.8914 12.6418V12.6595L21.9661 12.7147L21.9678 12.7324L21.9856 12.7378V12.7538L22.0336 12.7787V12.7964L22.0514 12.8V12.8178L22.1154 12.8551L22.1261 12.8729L22.1527 12.88L22.1634 12.8978L22.1812 12.9013V12.9084L22.2114 12.9244V12.9404L22.2452 12.9475V12.9653L22.2932 12.9902L22.4247 13.1502V13.168L22.4443 13.1715L22.5438 13.2835V13.2995L22.5652 13.3031V13.3209L22.5936 13.3244V13.344L22.6096 13.3475V13.3635L22.7323 13.4471L22.7696 13.4791V13.4862L22.7892 13.4898V13.4969L22.8087 13.5022L22.8158 13.5182L22.8461 13.5253L22.8532 13.5449L22.8816 13.5484V13.5591L22.9172 13.5733V13.5893L22.9652 13.6178V13.6338L22.9847 13.6373V13.6533L23.0007 13.6569L23.0327 13.6889V13.7049L23.0487 13.7084V13.7262L23.0683 13.728L23.1163 13.7795V13.7973L23.1341 13.7991L23.2816 13.9307V13.9467L23.3118 13.952V13.9698L23.3563 13.9947V14.0018L23.3847 14.0107V14.0178L23.4221 14.032V14.0498L23.4612 14.0569V14.0747L23.5252 14.0942L23.5341 14.112L23.5714 14.1209V14.1351L23.6176 14.1458L23.6265 14.1653L23.6763 14.1724V14.1813L23.7029 14.1867V14.1955L23.7385 14.2027V14.2098L23.8043 14.224L23.8132 14.2418L23.9163 14.2613L23.9252 14.2809L24.0158 14.2951V14.304L24.0443 14.3075V14.3182L24.0905 14.3253V14.336L24.1118 14.3395L24.1207 14.3591L24.1954 14.3787V14.3964L24.5278 14.4942L24.6469 14.5138V14.5067L24.6647 14.5102V14.5013L24.8425 14.5155V14.4995L25.0078 14.4889V14.4711L25.0327 14.4729L25.0256 14.4764V14.4942L24.9794 14.5209L24.9278 14.56V14.5742L24.8994 14.5795L24.8389 14.6364L24.8194 14.6329L24.7909 14.6595L24.7732 14.656L24.7447 14.6844L24.7269 14.6809L24.7092 14.7022L24.6896 14.7004L24.6807 14.7147L24.6558 14.7182V14.7271L24.6363 14.7235L24.6292 14.7378L24.6007 14.7431V14.7502L24.5474 14.7555L24.5367 14.7715H24.4994V14.7804L24.4834 14.7769V14.7875L24.4656 14.7822V14.7929L24.4105 14.8V14.8071L24.3856 14.8018V14.8089L24.3803 14.832L24.3625 14.8284L24.3181 14.8711L24.2754 14.8658V14.8818L24.2221 14.9138L24.1421 14.9831L24.1207 14.9813L24.0478 15.0258L23.9412 15.0755L23.9145 15.0791V15.088L23.8949 15.0827L23.8861 15.1004H23.8487L23.8434 15.1147H23.8221L23.8043 15.1271L23.7865 15.1218V15.1307L23.7687 15.1271V15.136L23.7509 15.1324V15.1413L23.7332 15.1378V15.1467L23.7136 15.1431V15.1502L23.6958 15.1484V15.1555L23.6407 15.1627V15.1715L23.6123 15.1662V15.1733L23.5963 15.1715V15.1804L23.5696 15.1733V15.1804L23.5429 15.1911V15.2L23.5163 15.1947V15.2018L23.4896 15.1982V15.2053L23.3616 15.2587L23.3261 15.2924L23.3065 15.2907L23.2709 15.3262L23.2514 15.3227L23.2354 15.3422L23.2176 15.3404L23.1981 15.3618L23.1803 15.3582L23.1714 15.3724L23.1341 15.3742L23.1252 15.3902L23.0985 15.3938V15.4027H23.0612L23.0541 15.4204L22.9972 15.4258V15.4329L22.9812 15.4311V15.4382L22.9616 15.4347V15.4435L22.9438 15.4418V15.4507L22.8887 15.456V15.4649L22.8638 15.456V15.4667L22.8461 15.4649V15.472L22.8158 15.4667L22.8176 15.4755L22.7981 15.472V15.4827L22.7714 15.4755L22.7732 15.4827L22.7465 15.4791V15.488L22.5705 15.5555L22.5545 15.5538L22.5189 15.5875L22.5012 15.584L22.4816 15.6071L22.4638 15.6035L22.4443 15.6249L22.4265 15.6213L22.4194 15.6373L22.4016 15.6338L22.3821 15.6551L22.3465 15.6569L22.3376 15.6729L22.3021 15.6747L22.2932 15.6889L22.2381 15.6942L22.2292 15.7084L22.2025 15.7049L22.1918 15.7209L21.8932 15.7742L21.8576 15.7671V15.776L21.8185 15.7689V15.7778L21.7829 15.7724V15.7778L21.7474 15.7724V15.7813L21.7029 15.7724V15.7813L21.6567 15.7724V15.7813L21.5838 15.7671V15.776L21.2461 15.7209V15.7138L21.1376 15.6924V15.6835L21.0629 15.6693L21.0612 15.664L21.0096 15.6533V15.6427L20.9723 15.6373V15.6284L20.9261 15.6195V15.6107L20.8247 15.5751V15.568L20.7963 15.5627V15.5538L20.7323 15.5342V15.5271L20.7145 15.5235V15.5147L20.6878 15.5093V15.5004L20.6701 15.4969V15.4898L20.6434 15.4827V15.4755L20.6061 15.4613V15.4524L20.5794 15.4471V15.4382L20.5225 15.4115V15.4027L20.5065 15.3973V15.3902L20.4692 15.376L20.4603 15.3582L20.4034 15.3298L20.3945 15.312L20.3589 15.2978V15.2871L20.3305 15.2747L20.3216 15.2569L20.3038 15.2533L20.2932 15.2338L20.2754 15.2302L20.2576 15.2018L20.2398 15.2L20.2203 15.1715L20.2025 15.168L20.1847 15.1378L20.1563 15.1253L20.0745 15.0258L20.0549 15.024L19.9874 14.9351L19.9732 14.9315L19.9252 14.8729V14.8551L19.9074 14.8444V14.8355L19.8896 14.8231V14.8071L19.8629 14.7858V14.768L19.8363 14.7484V14.7289L19.8149 14.7182L19.8061 14.6915L19.7954 14.6898V14.672L19.7776 14.6595L19.7705 14.6364L19.7598 14.6329L19.7474 14.5973L19.7314 14.5831V14.5689L19.7118 14.5475V14.5333L19.7029 14.5298V14.512H19.6941V14.4942H19.6852L19.6656 14.4391H19.6567L19.6478 14.3947L19.6389 14.3911V14.3733H19.6283V14.3484L19.6194 14.3467L19.6105 14.3111H19.5998L19.5821 14.224L19.5732 14.2222V14.1955H19.5625V14.1707L19.5536 14.1671L19.5429 14.1067L19.5341 14.1049V14.0711L19.5252 14.0693L19.5145 13.9662L19.5341 13.2587H19.5429V13.2355H19.5518V13.2107L19.5607 13.2124L19.5856 13.1075L19.5981 13.1093V13.0933L19.6052 13.0969V13.0702L19.6141 13.072L19.6229 13.0382L19.6283 13.0418V13.0169L19.6407 13.0187L19.6514 12.9849L19.6603 12.9884V12.9618L19.6763 12.9564V12.9404L19.6941 12.928V12.9102L19.7029 12.912V12.8942L19.7101 12.896V12.88L19.7296 12.8747L19.7367 12.8427L19.7563 12.8391V12.8213L19.7741 12.8142L19.7829 12.7858L19.8007 12.7787V12.7609L19.8274 12.752V12.7324L19.8541 12.7218V12.704L19.8985 12.6791V12.6631L19.9341 12.6453V12.6275L19.9536 12.6151L19.9821 12.6115V12.5955L19.9998 12.5884L20.0158 12.5671L20.0621 12.5511V12.5351L20.0798 12.5209L20.0976 12.5244L20.1261 12.4942L20.1456 12.4995L20.1776 12.4622L20.1972 12.4675L20.2149 12.4444L20.2345 12.448L20.2523 12.4267L20.2718 12.4302L20.2789 12.416L20.3145 12.4142L20.3234 12.3982L20.3518 12.3964V12.3858H20.3892L20.3981 12.3698L20.4141 12.3733L20.4318 12.3591L20.4532 12.3627V12.3538L20.4692 12.3591V12.3502L20.4887 12.3538L20.4958 12.3378L20.5225 12.3431V12.3342L20.5598 12.3324V12.3235L20.5883 12.3289V12.3218L20.6221 12.32V12.3111L20.6505 12.3164V12.3075L20.6701 12.3111V12.304L20.7874 12.3004V12.2915L20.8158 12.2951V12.2862L20.8425 12.2933V12.2844L20.9509 12.2862L20.9616 12.272L20.9794 12.2773L20.9954 12.2542L21.0149 12.2595L21.0309 12.2347L21.0505 12.2382L21.0683 12.2151L21.0861 12.2204L21.0967 12.2062L21.1323 12.2044L21.1429 12.1902L21.1589 12.192L21.1696 12.176L21.1856 12.1795L21.1945 12.1653L21.2141 12.1689L21.2336 12.1564L21.2496 12.1582V12.1529H21.2692V12.1458L21.2869 12.1493L21.4185 12.1155L21.4345 12.1244Z" fill="#A3CF62"/>
<path d="M24.3803 10.6773L24.3536 10.704L24.3341 10.7111L24.3358 10.7253L24.3181 10.7396L24.3003 10.7378L24.2896 10.752L24.2718 10.7484V10.7573L24.2541 10.752V10.7627L24.2256 10.7573V10.7662L24.1723 10.7716V10.7804L24.1527 10.7769L24.1545 10.7876L24.1012 10.7929L24.0905 10.8071L24.0532 10.8107L24.0461 10.8249L24.0283 10.8213L24.0194 10.8356L23.9998 10.832L23.9909 10.848L23.9732 10.8444L23.9643 10.8587L23.9465 10.8569L23.9358 10.8711L23.8932 10.8836V10.9049L23.9323 10.928V10.944L24.0052 11.0009V11.0187L24.0247 11.0204V11.0382L24.0443 11.0436V11.0578L24.0621 11.0631L24.0638 11.0791L24.0816 11.0844L24.1261 11.1591L24.1456 11.1627L24.1669 11.2071L24.1865 11.2142V11.2284L24.2025 11.232L24.2487 11.3351L24.2683 11.3369L24.3074 11.4133L24.3429 11.456L24.4016 11.4827V11.5004L24.4372 11.5147V11.5307L24.4834 11.5573V11.5733L24.5012 11.5769V11.5947L24.5207 11.5982L24.5225 11.616L24.5687 11.6658L24.5883 11.6693V11.6871L24.6061 11.6907V11.7067L24.6238 11.7102L24.6896 11.8169L24.7092 11.8187V11.8382L24.7269 11.84V11.8649L24.7447 11.8702L24.7661 11.9236L24.7732 11.9253L24.7927 11.9716L24.8123 11.9751L24.8301 12.0213L24.8496 12.0249L24.9065 12.0693V12.0853L24.9243 12.0889V12.1067L24.9883 12.144V12.1618L25.0078 12.1653L25.0363 12.2116L25.0541 12.2151L25.0558 12.2347L25.0736 12.2382L25.1021 12.2844L25.1198 12.2862V12.3058L25.1376 12.3076L25.1678 12.3733L25.1874 12.3769V12.3964L25.2052 12.3982L25.2336 12.4604L25.2514 12.4658V12.4907L25.2692 12.4942L25.2798 12.5209L25.2887 12.5227L25.2994 12.5671L25.3172 12.5796V12.5973L25.3367 12.6098V12.6347L25.3563 12.6453L25.3652 12.7004L25.3847 12.7093V12.7467H25.3918L25.4025 12.7911L25.4221 12.7947L25.4327 12.8818L25.4416 12.8853V12.9013H25.4505V12.9529L25.47 12.9653L25.4789 13.0453L25.4985 13.056L25.518 13.1289L25.5376 13.1307L25.5554 13.2036L25.5732 13.2053L25.5856 13.2676L25.6034 13.2711L25.614 13.3582L25.6318 13.3636L25.6621 13.664H25.6532L25.6567 13.7991L25.646 13.7973V13.8578L25.6372 13.856V13.9076L25.6212 13.9111L25.614 13.9787L25.5945 13.9751L25.55 14.1102L25.5287 14.1067L25.4594 14.2329L25.4398 14.2364L25.4292 14.2347L25.4309 14.2596L25.4114 14.2578V14.2667L25.3758 14.2862L25.3474 14.304L25.3509 14.3307L25.2834 14.3502V14.3662L25.2976 14.368L25.3047 14.352L25.326 14.3556L25.3314 14.3413L25.3527 14.3449L25.3598 14.3307H25.3776V14.3236L25.406 14.3218L25.4132 14.3076H25.4327L25.4612 14.2809L25.4789 14.2862L25.5145 14.2507H25.534L25.5963 14.1956L25.614 14.2009V14.192L25.6407 14.1796L25.6514 14.1564L25.7136 14.1173V14.0996L25.7563 14.0747V14.0587L25.7758 14.0551V14.0462L25.7954 14.0427L25.7936 14.0249L25.8149 14.0196V14.0018L25.8309 13.9964V13.9804L25.8576 13.968L25.886 13.9289L25.9198 13.9093L25.9287 13.8951L25.9465 13.8969L25.9536 13.8684L25.9749 13.8738L25.982 13.8578L25.9998 13.8613L26.0087 13.8453L26.0283 13.8507L26.0372 13.8347L26.0656 13.8329L26.1012 13.7973L26.1207 13.7991L26.1563 13.7636L26.1723 13.7671V13.7582L26.1901 13.7529V13.7369L26.2096 13.7404L26.2434 13.7049L26.2523 13.7067V13.6907L26.2896 13.6782V13.664L26.3358 13.6373V13.6196L26.3714 13.6018V13.5858L26.398 13.5876V13.5716L26.4692 13.5253L26.5083 13.5236L26.5154 13.4933H26.5527V13.4844L26.5794 13.4827L26.59 13.4667L26.606 13.4702V13.4613L26.6345 13.4578L26.6416 13.4436L26.6612 13.4471L26.6772 13.424L26.6967 13.4293L26.7056 13.4116L26.7163 13.4151L26.7252 13.3991L26.7429 13.4027V13.3956L26.7785 13.3849V13.3671L26.9492 13.2569V13.2409L26.974 13.2302V13.2107L27.0007 13.2L27.0363 13.168L27.0114 13.1307L26.9989 13.1289L26.9918 13.0933L26.9634 13.072L26.9545 13.0276L26.9456 13.0258L26.9065 12.9671L26.7874 12.8853V12.8676L26.7589 12.8551L26.75 12.8356L26.7287 12.8338L26.702 12.7947L26.6825 12.7911L26.638 12.7378L26.6167 12.7093L26.6007 12.7058L26.5705 12.6578L26.5527 12.656L26.5065 12.5884L26.4958 12.5849V12.5671L26.4389 12.5156V12.4996L26.4229 12.4853V12.4676L26.4034 12.4569V12.4409L26.382 12.4196L26.366 12.416L26.2985 12.2773L26.2825 12.272L26.2025 12.0978L26.1847 12.0836V12.0676L26.1758 12.0658L26.1669 12.0124L26.1563 12.0107V11.9858L26.1474 11.984V11.9591L26.1385 11.9573V11.9324L26.1296 11.9307L26.1278 11.8951H26.1207L26.1083 11.84L26.0994 11.8382V11.8222L26.0905 11.8187V11.7867L26.0816 11.7849L26.0798 11.7333L26.0709 11.7316L26.0692 11.6871H26.062L26.0603 11.6178L26.0514 11.616L26.0407 11.4116L26.0301 11.4098V11.3849L26.0123 11.3724L25.9998 11.3102L25.982 11.3067L25.9732 11.2711L25.9643 11.2693V11.2356L25.9536 11.2338V11.2071L25.934 11.1964V11.152L25.9145 11.1502L25.9056 11.0631L25.8967 11.0613V11.0436H25.8878L25.886 10.9831L25.8665 10.9689V10.8782L25.8469 10.8676L25.8434 10.5991L25.8629 10.5973V10.4996L25.8807 10.5049L25.8878 10.4231H25.8967V10.3893L25.9056 10.3911V10.3467L25.9234 10.3431V10.3093L25.9429 10.3058L25.9518 10.2471L25.9714 10.2507L25.9945 10.16L26.014 10.1636V10.1387L26.0318 10.1422L26.1065 10.0284L26.1243 10.032L26.1527 9.97689L26.1705 9.98044V9.96267L26.1883 9.96444L26.2345 9.90578L26.2505 9.90933V9.89155L26.2825 9.89866L26.3092 9.87733L26.3056 9.86133L26.3252 9.86489V9.84711L26.3429 9.85067L26.3625 9.82933L26.3785 9.83111L26.3892 9.81689L26.4158 9.81155V9.79555L26.462 9.77066L26.5456 9.76V9.744L26.638 9.73689V9.71733L26.7198 9.70666L26.75 9.71378V9.70489L26.7678 9.70666V9.69778L26.8016 9.70489L26.814 9.69066L26.9136 9.70133L26.9207 9.68533L27.006 9.70133L27.0167 9.68533L27.1625 9.71378L27.1838 9.70666L27.4309 9.76355V9.78133L27.6372 9.84355V9.86133L27.6834 9.86844V9.88622L27.7954 9.93244V9.94844L27.886 9.99111V10.0107L27.9234 10.0249L27.9269 10.0338L27.9536 10.0391L27.9714 10.0676L27.9998 10.0729V10.08L28.0212 10.0818V10.0924L28.0923 10.1049V10.1156L28.1563 10.1262V10.1351L28.2043 10.144V10.1529L28.2594 10.1636V10.1724L28.2967 10.1796L28.3056 10.1956L28.3429 10.2044V10.2133L28.3696 10.2187V10.2258L28.3998 10.2311V10.2418L28.4372 10.2471V10.256L28.5669 10.3129V10.3307L28.75 10.4338V10.4498L28.7838 10.464L28.7714 10.4498V10.4356L28.7536 10.4231V10.4071L28.7358 10.3858V10.3698L28.7163 10.3573L28.7074 10.3218L28.6896 10.3093V10.2933L28.6807 10.2898L28.6718 10.2649L28.6523 10.2524V10.2364L28.6149 10.2044V10.1867L28.5758 10.1547V10.1387L28.5118 10.0764L28.5047 10.0498L28.4869 10.0462V10.0284L28.4674 10.0249L28.3376 9.90222L28.3216 9.87378L28.3038 9.86844L28.2914 9.85067L28.2754 9.84711L28.2558 9.81867L28.2203 9.80266L28.2114 9.78489L28.1812 9.77066V9.76355L28.126 9.73689V9.72622L28.11 9.72444V9.71555L28.0549 9.68889V9.68178L28.0087 9.66222V9.65689L27.9909 9.65155V9.64267L27.9625 9.63911V9.63022L27.9447 9.62667V9.61778L27.918 9.61244V9.60355H27.8985V9.59289L27.8345 9.57155V9.56444L27.806 9.55911V9.552L27.7705 9.54489V9.536L27.7243 9.52889V9.51822L27.6798 9.50933V9.50222L27.534 9.46667V9.45955L27.134 9.40089V9.408L27.0843 9.40089V9.408L27.0416 9.40089V9.408L27.0149 9.40444V9.41333L26.9776 9.40444V9.41511L26.9403 9.40622V9.41689L26.9207 9.41155V9.42044L26.8674 9.41866V9.42755L26.8514 9.424V9.43111L26.8229 9.42933V9.43644H26.7874V9.44533L26.7589 9.44V9.44889L26.7038 9.456V9.46489L26.6878 9.45955V9.47022L26.6505 9.472L26.6416 9.48444L26.606 9.488L26.5972 9.50222L26.5758 9.50044V9.50755L26.5492 9.50933L26.542 9.52711L26.5225 9.52178L26.5065 9.54489L26.4869 9.54133L26.4692 9.56266L26.4514 9.55911L26.4229 9.58933L26.4052 9.58578L25.4309 10.1316L25.3918 10.1351V10.144L25.3652 10.1476L25.3563 10.1618L25.3367 10.1564V10.1671L25.3029 10.1849L25.0025 10.3662L25.0061 10.3804L24.9865 10.3858L24.9598 10.416L24.9403 10.4107L24.9243 10.4231L24.3803 10.6773Z" fill="#A3CF62"/>
<path d="M12.9954 9.70667L13.0149 9.66933H13.0221L13.0309 9.63911L13.0416 9.64089L13.0398 9.62311L13.0487 9.62489V9.59822L13.0576 9.6L13.0754 9.55378L13.0843 9.55556V9.53778L13.0949 9.54133V9.52356L13.1038 9.52711L13.1021 9.50933H13.1109V9.49333L13.1234 9.49689V9.47911L13.1376 9.46489V9.44889L13.1554 9.44356L13.1643 9.41156L13.1838 9.40622L13.1909 9.37422L13.2123 9.36889L13.2087 9.35467H13.2176V9.33689L13.2372 9.33333V9.31556L13.2532 9.312V9.29422L13.2745 9.28889L13.2709 9.27111L13.2905 9.26578V9.24978L13.3172 9.23911V9.22133L13.3456 9.21067V9.19111L13.3918 9.168V9.152L13.4096 9.14667V9.13778L13.4256 9.13244V9.11644L13.6514 8.83911H13.6603L13.6834 8.81067L13.6923 8.81422V8.78756L13.7012 8.78933L13.6994 8.77511H13.7083V8.74844L13.7207 8.752L13.7367 8.704H13.7456V8.68978L13.7545 8.69156V8.67556H13.7634V8.65956H13.7705V8.64356L13.7812 8.64533V8.62756L13.7901 8.63111V8.61333L13.7972 8.61511V8.59733L13.8167 8.58489V8.56711L13.8345 8.56356L13.8434 8.53156L13.8594 8.52622L13.8718 8.49422L13.8861 8.48889V8.47289H13.8967V8.45867L13.9234 8.44622L13.9305 8.41067L13.9607 8.40356L13.9589 8.384L13.9856 8.37333L14.0336 8.32356V8.30578L14.0514 8.30933L14.0674 8.28089H14.0763V8.26489L14.0852 8.26667L14.1136 8.23822L14.1314 8.23467V8.21511L14.1385 8.21689L14.1669 8.18844L14.1829 8.19378L14.4229 7.93244L14.4212 7.91822L14.4318 7.92L14.4389 7.88622L14.4478 7.88978V7.872L14.4585 7.87378V7.856L14.4656 7.85778V7.84178L14.4763 7.84356V7.82578L14.4852 7.82933V7.81333H14.4941V7.79378L14.5012 7.79911V7.78133L14.5118 7.78311L14.5101 7.76711L14.5296 7.75111V7.73689L14.5474 7.73156L14.5563 7.69956L14.5829 7.68711L14.5901 7.65511L14.6096 7.65156V7.63378L14.6185 7.63556V7.61778L14.6363 7.61422L14.6452 7.58933L14.6736 7.57867V7.56267L14.7003 7.55022L14.7092 7.51822L14.7554 7.49156V7.47556L14.7981 7.45067V7.43467L14.9332 7.28L14.9403 7.28356V7.26756L14.9492 7.26933L14.9598 7.21244L14.9705 7.21422L14.9669 7.19644L14.9794 7.19822L14.9865 7.15022L14.9954 7.152V7.13422L15.0043 7.13778V7.11289H15.0132L15.0221 7.08267H15.0292V7.05778L15.0381 7.05956L15.0576 7.01333H15.0665V6.99733L15.0754 6.99911V6.98311H15.0843V6.96533L15.0932 6.96889V6.95289H15.1003V6.93689H15.1109V6.92089L15.1181 6.92444V6.90667L15.1376 6.89244V6.87644L15.1554 6.87111L15.1749 6.82311L15.1909 6.81956V6.80178L15.2194 6.79111L15.2265 6.75911L15.2461 6.75378V6.73778L15.2727 6.72711V6.70933H15.2798L15.2887 6.68622L15.3083 6.68089V6.66311L15.3456 6.64711V6.62933L15.3883 6.60622V6.58844L15.4434 6.55644V6.53867L15.5483 6.37511H15.5607L15.5572 6.35911L15.5678 6.36267L15.5856 6.288L15.5945 6.29156V6.27378L15.6034 6.27556V6.25067L15.6123 6.25244L15.6212 6.22044L15.6318 6.22222V6.19556L15.6372 6.19733L15.6549 6.15111L15.6656 6.15289V6.13689L15.6745 6.13867V6.12089H15.6852L15.6834 6.10489L15.6958 6.10844L15.6905 6.09067L15.7029 6.09244L15.7012 6.07467L15.7118 6.07644L15.7083 6.06044L15.7189 6.06222V6.04267L15.7367 6.032V6.016L15.7563 6.00889L15.7652 5.97867L15.7812 5.97156L15.7901 5.94133L15.8096 5.936V5.92L15.8274 5.91467V5.89867L15.8452 5.89333V5.87556L15.8612 5.87022V5.85244L15.8825 5.84889L15.8754 5.82222L15.9003 5.80978V5.79378L15.9376 5.776L15.9465 5.75111L16.0265 5.64089V5.6L16.0372 5.60178V5.57511L16.0461 5.57867L16.0425 5.552L16.0532 5.55378V5.52L16.0621 5.52356V5.49689L16.0852 5.50044V5.47556L16.0958 5.47911L16.0941 5.45244H16.1029V5.43644L16.1118 5.44L16.1207 5.39022L16.1314 5.392L16.1278 5.37422L16.1385 5.376V5.35111L16.1474 5.35289L16.1563 5.32089L16.1669 5.32444L16.1652 5.30489L16.1741 5.30844V5.28356L16.1847 5.28533L16.2007 5.23911H16.2096V5.22311H16.2203L16.2167 5.20889H16.2292L16.2452 5.16089L16.2647 5.15556V5.13067L16.2807 5.12533L16.2914 5.09511L16.3074 5.08978V5.072L16.3252 5.06844V5.05067L16.3447 5.04533V5.02933L16.3607 5.024V5.008L16.3821 5.00267V4.98667H16.3909L16.3963 4.96356L16.4176 4.96V4.94222L16.4425 4.92978V4.91378L16.4887 4.88889V4.87289L16.6221 4.67733V4.65422H16.6309V4.62933L16.6381 4.63289V4.59733H16.6487L16.6469 4.58311L16.6558 4.58489V4.56L16.6665 4.56178V4.544L16.6736 4.54578V4.51911L16.6825 4.52267V4.50489L16.6932 4.50667V4.48178L16.7003 4.48356L16.7092 4.45156L16.7181 4.45333V4.43733H16.7269V4.41244L16.7465 4.40711V4.384L16.7554 4.38578V4.368H16.7625V4.352L16.7821 4.34667L16.7803 4.33067L16.7998 4.31822V4.30044H16.8069V4.28444L16.8176 4.288V4.27022L16.8354 4.26489L16.8443 4.23289L16.8621 4.22933V4.21156L16.8798 4.20622V4.19022L16.8994 4.18489L16.8976 4.16711L16.9154 4.16356V4.14578L16.9332 4.14044V4.12444L16.9616 4.112V4.09778L16.9865 4.08356V4.06578L17.1038 3.90222L17.1127 3.90578V3.88089L17.1234 3.88267V3.856L17.1305 3.85956V3.83289L17.1394 3.83467V3.80267L17.1483 3.80444V3.78667H17.1572L17.1767 3.71556L17.1838 3.71733V3.69956L17.1945 3.70133L17.1927 3.67644L17.2016 3.68L17.2105 3.648H17.2194L17.2283 3.61067H17.2372L17.2532 3.56267L17.2621 3.56444V3.54667L17.2745 3.55022L17.2727 3.53422L17.2834 3.536L17.2816 3.51822L17.2905 3.52V3.504L17.3101 3.48978V3.472L17.3261 3.46844L17.3349 3.43467L17.3527 3.43111L17.3616 3.39911L17.3794 3.392L17.3901 3.36L17.4167 3.35111L17.4149 3.33333L17.4327 3.328V3.31022L17.4523 3.30667L17.4594 3.28178L17.4861 3.27111V3.25333L17.5074 3.24978L17.5038 3.24089L17.5234 3.23733V3.21956L17.5589 3.2V3.184L17.8007 2.85867V2.84267L17.8096 2.84622V2.82844L17.8292 2.82311V2.80711L17.8469 2.79289V2.77511L17.8541 2.77689V2.76089L17.8718 2.75556L17.8807 2.72356L17.8896 2.72533L17.9003 2.704L17.9163 2.69689L17.9269 2.66489L17.9518 2.65244V2.63644L17.9696 2.63111V2.61156L17.9981 2.60267V2.58489L18.0318 2.56889V2.54933L18.0692 2.53156V2.51733L18.1527 2.464L18.1492 2.44622L18.1705 2.44267L18.1865 2.41956L18.2061 2.42311L18.2789 2.36089L18.2967 2.36444L18.3234 2.336L18.3412 2.33956L18.3767 2.304L18.3927 2.30756L18.4123 2.28622L18.4318 2.288L18.4425 2.27378L18.4674 2.27022V2.26133L18.4852 2.26667L18.4941 2.25244L18.5136 2.256L18.5225 2.23822L18.5509 2.23467V2.22578L18.6043 2.22044L18.6114 2.20622L18.6309 2.20978L18.6487 2.19378L18.6665 2.19733V2.19022L18.6843 2.19378V2.18667L18.7056 2.18844L18.7127 2.17244L18.7376 2.17778V2.17067L18.7749 2.16711V2.16L18.8016 2.16533V2.15644L18.8389 2.15467V2.14756L18.8674 2.15111V2.144L18.8852 2.14756V2.13867L18.9136 2.144V2.13689L18.9278 2.13867V2.128L19.0843 2.10133L19.1003 2.10489L19.1109 2.08711H19.1483L19.1554 2.07111L19.1927 2.06933V2.06044L19.2123 2.064V2.05689L19.2638 2.04978V2.04267L19.2923 2.04444V2.03733L19.3296 2.03556V2.02844L19.3563 2.03378V2.02311L19.3758 2.02844V2.01778L19.4274 2.02133L19.4292 2.01244L19.4558 2.01778V2.00889L19.4825 2.01422V2.00711L19.5109 2.01067V2.00178L19.5465 2.00889V2L19.5838 2.00711V2L19.6283 2.00711V2L20.3483 2.16711V2.176L20.3767 2.18133V2.18844L20.4034 2.19378V2.20267L20.4318 2.208V2.21689L20.4603 2.22044V2.22933L20.4781 2.23289V2.24L20.5065 2.24533V2.256L20.5421 2.27022V2.27733L20.5705 2.28267V2.29333L20.6256 2.32V2.32711L20.6612 2.34133L20.6701 2.35911L20.7074 2.37511L20.7163 2.39289L20.7358 2.39644L20.7447 2.416L20.7625 2.41956L20.7732 2.43733L20.7892 2.44089L20.7998 2.45867L20.8176 2.46222L20.8283 2.48178L20.8461 2.48533L20.8727 2.52267L20.8923 2.52622L20.9278 2.576L20.9474 2.57956V2.58489L20.9652 2.59911V2.61689L21.1127 2.78578L21.1394 2.80889V2.82311L21.1696 2.84622V2.86222L21.1856 2.87289L21.1945 2.90311H21.2052V2.92089L21.2229 2.93156L21.2336 2.95822L21.2407 2.96178V2.97778L21.2621 2.99911V3.01333L21.2709 3.01511V3.03289L21.2798 3.03644V3.05244H21.2887V3.06844L21.2976 3.072V3.08978H21.3047L21.3261 3.14311L21.3349 3.14667V3.16978L21.3456 3.17333V3.18933L21.3527 3.19111V3.216L21.3616 3.21778V3.23733H21.3741V3.26222L21.3812 3.264V3.28889L21.3918 3.29067L21.4025 3.35111H21.4096L21.5056 3.63733L21.5109 3.64089L21.5252 3.67467L21.5323 3.67644L21.5429 3.72978H21.5518V3.74756H21.5607L21.5909 3.86311L21.5963 3.86489V3.89156H21.6087V3.91822H21.6176V3.95022L21.6265 3.95378L21.6461 4.08356V4.77867L21.6283 4.89422L21.6194 4.89067V4.91733L21.6105 4.91556V4.94044L21.5323 5.37778L21.5252 5.376L21.5287 5.47911H21.5163L21.5198 5.552L21.5092 5.55022V5.6H21.5003V5.648H21.4896V5.68889L21.4825 5.68711V5.71911H21.4754L21.3776 6.03022L21.3705 6.02667L21.3598 6.06044L21.3509 6.05867V6.08356L21.3421 6.08178L21.3332 6.11378L21.3243 6.11022V6.128L21.3136 6.12622L21.3172 6.15111L21.2976 6.15644V6.17422L21.2798 6.18667L21.1803 6.40356L21.1732 6.42489L21.1643 6.40356L21.1376 6.38222L21.1287 6.34489L21.1003 6.32533V6.30756L21.0825 6.29511V6.27733L21.0541 6.256L21.0345 6.22756L21.0256 6.224V6.208L20.9883 6.176L20.9421 6.10844L20.9243 6.10489L20.9136 6.07644H20.9047V6.05156L20.8941 6.048V6.02133H20.8852V5.99467L20.8745 5.99289V5.968L20.8656 5.96622V5.94133H20.8567V5.91467L20.8478 5.91289L20.8301 5.85778H20.8176V5.84L20.8105 5.83822V5.82222L20.7998 5.81867V5.80267L20.7892 5.80089V5.78311L20.7821 5.78133V5.76533L20.7625 5.74578V5.728L20.7447 5.71556L20.7269 5.66222L20.6967 5.63911V5.62133L20.6594 5.59111L20.6505 5.56267L20.6309 5.55022V5.53422L20.6025 5.51111V5.49511L20.5758 5.47378V5.456L20.5101 5.392L20.5012 5.36533L20.4834 5.36178V5.34578L20.4461 5.32089L20.3998 5.26222L20.3785 5.25867V5.25156L20.3323 5.21422V5.2L20.3074 5.184V5.17689L20.2789 5.16444L20.2701 5.14489L20.2132 5.11822L20.2043 5.09867L20.1758 5.08622V5.07733L20.1598 5.07556L20.1367 5.05244L20.1207 5.05067V5.04178L20.1029 5.03822L20.0923 5.01867L20.0745 5.01689V5.008L20.0549 5.00444L20.0354 4.98489L20.0176 4.98133L20.0087 4.96178L19.9252 4.92089V4.912L19.9074 4.90844V4.89956L19.8523 4.88178L19.6389 4.78222L19.5394 4.75378V4.74844L19.2443 4.68444L18.6914 4.69156L18.6612 4.68622V4.69511L18.6096 4.704V4.70933L18.5723 4.71289L18.5634 4.72711L18.5456 4.72356V4.73244L18.5278 4.72889V4.73778L18.5083 4.73422L18.4887 4.74844L18.4727 4.74311L18.4621 4.75911L18.4087 4.768L18.3892 4.78756L18.3501 4.79111L18.3447 4.80533L18.3145 4.80889V4.816L18.2878 4.82133L18.2896 4.83733L18.2416 4.85511V4.86222L18.2256 4.85867L18.1794 4.90311L18.1438 4.912V4.92978L18.1154 4.93156V4.94933L18.0976 4.95289V4.96356L18.0781 4.96L18.0318 5.00089V5.01867L18.0265 5.01689L18.0087 5.04889L17.9892 5.04356L17.9803 5.06667H17.9696L17.9607 5.08978L17.9412 5.09511L17.9341 5.12711L17.9092 5.13956L17.8878 5.184L17.8683 5.19111L17.8718 5.20889L17.8541 5.22311V5.23911H17.8452V5.25511H17.8345V5.26933L17.8256 5.26756V5.28533L17.8167 5.28356V5.29956L17.8078 5.29778L17.7883 5.34578H17.7794L17.6905 5.60711L17.6763 5.77422L17.6656 5.77244L17.6603 5.96622H17.6674L17.6781 6.13867L17.6887 6.14222L17.6994 6.24533L17.7065 6.24711L17.7083 6.27911L17.7172 6.28089V6.31467L17.7261 6.31822L17.7296 6.35022L17.7367 6.352L17.7403 6.37689L17.7474 6.38044V6.40533L17.7563 6.40889V6.43378H17.7652V6.46044H17.7758V6.48711L17.7847 6.48889V6.51378L17.7936 6.51733V6.54222H17.8025L17.8238 6.59733L17.8327 6.59911V6.61511H17.8398L17.8416 6.63289L17.8523 6.63644V6.65422H17.8612V6.67378H17.8683V6.68978L17.8878 6.71111V6.72711L17.9092 6.73956L17.9269 6.79289L17.9518 6.816L17.9625 6.85156L17.9821 6.864L17.9909 6.89067L17.9998 6.89244L18.0105 6.92089L18.0265 6.92444V6.93867L18.0549 6.96178V6.97778L18.0763 6.99022V7.008L18.1029 7.03111V7.04L18.1207 7.04178L18.1403 7.06311L18.1492 7.088L18.1865 7.12178V7.14667L18.1954 7.15022V7.17333L18.2061 7.17689L18.2078 7.2L18.2167 7.20356V7.22844L18.2256 7.23022V7.248H18.2345L18.2434 7.30133L18.2541 7.30311L18.2736 7.35822L18.2843 7.36V7.376L18.2932 7.37956V7.39556H18.2985V7.41333L18.3109 7.41689V7.43111L18.3287 7.45422V7.47022L18.3465 7.48089L18.3661 7.536L18.3927 7.55911L18.4052 7.59289L18.4229 7.60533L18.4318 7.63378L18.4692 7.664V7.68356L18.5154 7.72622V7.74044L18.5812 7.80444L18.5901 7.83111L18.6096 7.83467L18.6381 7.90044L18.6558 7.97867L18.6665 7.98044V7.99822L18.6754 8V8.02489L18.6843 8.02667L18.7056 8.08L18.7127 8.08356V8.09956L18.7216 8.10133V8.11911L18.7323 8.12089V8.13689L18.7394 8.13867V8.16356L18.7589 8.176L18.7696 8.21156L18.7892 8.224L18.8069 8.27733L18.8247 8.28978V8.30756L18.8443 8.32L18.8549 8.35556L18.8709 8.36622V8.384L18.9083 8.41422V8.43378L18.9474 8.464V8.48356L18.9758 8.50489L18.9865 8.52267L19.0043 8.52622V8.53511L19.0203 8.54756V8.56356L19.0505 8.576L19.0612 8.60444L19.0772 8.608L19.0878 8.62578L19.0967 8.62756V8.64533L19.1145 8.65778L19.1234 8.70756L19.1341 8.71289V8.72889L19.1447 8.73067V8.75556L19.1536 8.75733L19.1732 8.81067L19.1803 8.81422V8.83022L19.1909 8.832V8.84978L19.1998 8.85156V8.86756H19.2105V8.88711H19.2194V8.90667L19.2372 8.92622V8.94222L19.2585 8.95644L19.2745 9.00978L19.3029 9.03111L19.3118 9.05778H19.3225V9.07556L19.3492 9.09867V9.11644L19.3883 9.14844V9.16444L19.4238 9.19644V9.21422L19.4896 9.28L19.4985 9.30489L19.5181 9.30667V9.32444L19.5447 9.33689V9.34578L19.5927 9.39022V9.40622L19.6105 9.41867V9.43467L19.6194 9.43644V9.45422L19.6283 9.456V9.48089L19.6389 9.48267L19.6656 9.552H19.6621L19.6549 9.6L19.6461 9.59822V9.616L19.6372 9.61244V9.63911L19.6265 9.63556V9.66222H19.6194V9.67822L19.6105 9.67467V9.70133L19.5998 9.69778L19.5927 9.72978L19.5838 9.728V9.75467L19.5749 9.75289L19.5554 9.79911L19.5465 9.79733V9.81689L19.5394 9.81156V9.83822L19.5234 9.84356V9.85956L19.5127 9.85778V9.88444L19.4949 9.888V9.90578L19.4861 9.904V9.92L19.4683 9.93422V9.95022L19.4505 9.95556L19.4327 10.0018L19.4132 10.0089V10.0249L19.3883 10.0356L19.3794 10.0676L19.3527 10.08V10.0978L19.3332 10.1013L19.3243 10.1262L19.3154 10.1227V10.1404L19.2869 10.1529V10.1707L19.2443 10.2116L19.1412 10.3484L19.1252 10.3751L19.1181 10.3733V10.3964L19.1092 10.3947V10.4284H19.0985V10.4533L19.0914 10.4498L19.0772 10.4747L19.0683 10.4711V10.4978L19.0612 10.496V10.5209L19.0505 10.5191V10.5351L19.0416 10.5333V10.56L19.0327 10.5564V10.5742L19.0238 10.5724L18.9989 10.6169H18.9936L18.9812 10.6489L18.9758 10.6453V10.6631L18.9652 10.6613V10.688L18.9563 10.6862L18.9385 10.6933H18.9438L18.9456 10.7111L18.9332 10.7093L18.9189 10.7573L18.8994 10.7609L18.8816 10.8089L18.8621 10.8142L18.8461 10.8587L18.8283 10.8676V10.88L18.8087 10.8853V10.9049L18.7909 10.9084V10.9262H18.7803L18.7714 10.9493L18.7536 10.9529V10.9689L18.7287 10.9813V10.9991L18.7109 11.0027V11.0204L18.6914 11.0258L18.7092 11.0364L18.6878 11.04V11.0578L18.6523 11.1164V11.1342L18.5901 11.1698V11.1893L18.5545 11.2053L18.3661 11.4489L18.3572 11.4471L18.3465 11.4791L18.3412 11.4773V11.4951L18.3287 11.4933V11.5164H18.3234L18.3038 11.5627H18.2932V11.5769L18.2861 11.5751V11.5947L18.2754 11.5911L18.2789 11.6089L18.2683 11.6071V11.6231L18.2505 11.6356V11.6533L18.2327 11.6587V11.6836L18.2238 11.68L18.2132 11.7067L18.1954 11.7084L18.1865 11.7422L18.1705 11.7476V11.7636L18.1598 11.7618V11.7796L18.1438 11.7849V11.8009L18.1154 11.8133L18.1065 11.8453L18.0781 11.856V11.8738L18.0532 11.8862V11.9022L18.0354 11.9076V11.9236L17.9981 11.9431V11.9591L17.9518 11.984V12.0018L17.8167 12.1671H17.8078V12.2009L17.7972 12.1973V12.2151L17.7883 12.2133L17.7563 12.2844L17.7474 12.2809L17.7403 12.3218H17.7296V12.3378L17.7225 12.3342V12.3591H17.7136L17.6941 12.4053L17.6852 12.4036V12.4196L17.6763 12.4178V12.4356H17.6674V12.4587L17.6496 12.4658V12.4889L17.6336 12.4942V12.512L17.6229 12.5084V12.5262L17.6141 12.5244V12.5422L17.6052 12.5404V12.5564L17.5874 12.5707V12.5884L17.5696 12.5938L17.5607 12.624L17.5429 12.6276L17.5341 12.6613L17.5074 12.6738L17.4967 12.704L17.4736 12.7147L17.4629 12.7396L17.4452 12.7467L17.4345 12.7787L17.4061 12.7876V12.8053L17.3634 12.832V12.848L17.3172 12.8711V12.8907L17.1661 13.0631L17.1572 13.0862L17.1483 13.0844V13.1182L17.1394 13.1147L17.1305 13.1467L17.1234 13.1449L17.1127 13.1947L17.1038 13.1929L17.0967 13.2356L17.0861 13.232L17.0772 13.2622L17.0683 13.2604V13.2782L17.0576 13.2764V13.3031L17.0487 13.2996L17.0327 13.3493L17.0238 13.3476V13.3636H17.0149L16.9954 13.408L16.9776 13.4116V13.4311L16.9616 13.4436V13.4596L16.9527 13.4578V13.4756H16.9438V13.4898L16.9278 13.4969L16.9172 13.5271L16.8994 13.5324V13.5484L16.8798 13.5538V13.5716L16.8621 13.5751V13.5911L16.8443 13.5982V13.6142L16.8265 13.6196V13.6373L16.7998 13.648V13.664L16.7821 13.6693V13.6889L16.7465 13.7067V13.7227L16.7003 13.7476V13.7636L16.6665 13.7831V13.792L16.6469 13.7973L16.4905 13.9929L16.4816 14.0071L16.4621 14.0551H16.4549L16.4478 14.0871L16.4389 14.0853V14.1084L16.4283 14.1067V14.1244L16.4194 14.1227V14.1476H16.4087L16.3785 14.192L16.3696 14.1884V14.2062L16.3607 14.2044V14.2293L16.3447 14.2347V14.2507L16.3252 14.2631V14.2809H16.3163V14.2951H16.3074V14.3111L16.2896 14.3253V14.3413L16.2718 14.3467L16.2612 14.3787L16.2452 14.384V14.4L16.2274 14.4053V14.4213L16.2078 14.4267L16.1989 14.4604L16.1705 14.4711L16.1652 14.5031L16.1367 14.5138L16.0905 14.5653V14.5831L16.0763 14.5778L16.0567 14.6098L16.0478 14.608V14.6222L16.0301 14.6276V14.6364L16.0105 14.6418V14.6596L15.9127 14.7253V14.7413L15.8932 14.7449L15.8505 14.7876L15.8309 14.7858L15.8203 14.8L15.5323 15.0667L15.5234 15.0631L15.5269 15.0791H15.5163V15.0951L15.4985 15.1093V15.1271L15.4789 15.1307L15.4701 15.1627L15.4541 15.168L15.4434 15.2L15.4167 15.2107L15.4096 15.2427L15.3812 15.2551L15.3723 15.2871L15.3474 15.2978V15.3156L15.3189 15.328V15.344L15.2816 15.3618L15.2763 15.3867L15.2656 15.3849V15.4009L15.2478 15.3973L15.0665 15.5662L15.0487 15.5627L15.0381 15.5751L14.9669 15.6142V15.632L14.9581 15.6284L14.9207 15.648V15.6569L14.9065 15.6533V15.6693L14.8674 15.68V15.6889L14.8514 15.6836L14.8407 15.6996L14.8318 15.6978L14.8212 15.7138L14.6416 15.8898L14.6256 15.8951L14.6149 15.9271L14.5972 15.9307V15.9484L14.5776 15.9538V15.9698L14.5616 15.9751V15.9911L14.5438 15.9982V16.0124L14.5261 16.0196V16.0356L14.4976 16.0462V16.064L14.4816 16.0693V16.0853L14.4638 16.0889V16.0978L14.4461 16.1049V16.1209L14.4087 16.1404V16.1564L14.3465 16.1956V16.2116L14.2825 16.2507L14.2736 16.2738L14.2576 16.272L14.2487 16.2933L14.2203 16.2987L14.1385 16.3484L13.9038 16.5813L13.8701 16.6276V16.6436L13.8505 16.6471L13.8416 16.6809L13.8238 16.6862L13.8256 16.7022L13.8061 16.7076L13.7901 16.7307V16.7449L13.7705 16.7502L13.7563 16.752L13.7385 16.7556V16.7716L13.7207 16.7787V16.7947L13.6923 16.8071L13.6478 16.8569V16.8747L13.6301 16.8693L13.6194 16.8942L13.5945 16.9049V16.9227L13.5483 16.9476L13.3776 17.0756V17.0916L13.3616 17.1058L13.3403 17.1022L13.3243 17.1236L13.2318 17.1662L13.2354 17.1804L13.2069 17.1858L13.1518 17.2089L13.1341 17.2302L13.1163 17.2267L13.0878 17.2391L13.0789 17.2551L13.0736 17.2676L13.0665 17.2818L13.0043 17.296V17.3138L12.9687 17.3156V17.3227L12.9492 17.3191L12.9403 17.3333L12.9207 17.3298V17.3404L12.9047 17.3351L12.8852 17.3404L12.3341 17.6996L12.3181 17.696L12.2878 17.7262L12.2718 17.7227V17.7298L12.2452 17.744L12.2345 17.7582L12.2167 17.7529L12.2096 17.7707L12.1883 17.7653L12.1705 17.7867L12.1527 17.7831L12.1349 17.8062L12.0976 17.808L12.0816 17.8293L12.0638 17.8276L12.0549 17.84L12.0158 17.8418L12.0069 17.8578L11.9732 17.8596L11.9643 17.8738L11.9447 17.8702L11.9269 17.8862L11.9092 17.8809V17.8898L11.8914 17.8862L11.8825 17.9022L11.8434 17.904L11.8469 17.9111L11.8292 17.9093V17.9147L11.7741 17.9236V17.9342L11.7456 17.9253V17.936L11.7278 17.9342V17.9396L11.6745 17.9467V17.9556L11.6194 17.952V17.9609L11.5998 17.9573V17.968L11.5181 17.9698V17.9751L11.5003 17.9733V17.9804L11.4647 17.9751V17.9822L11.4381 17.9787V17.9876L11.4096 17.9804V17.9911L11.3829 17.9858V17.9929L11.3474 17.9876L11.1945 18L11.1038 17.9911V18L10.5563 17.9236V17.9147L10.3625 17.8702L9.99627 17.7369V17.7262L9.87716 17.68V17.6729L9.86116 17.6693V17.6587L9.83272 17.6551V17.6462L9.77761 17.6284V17.6196L9.75805 17.616V17.6089L9.72961 17.6018V17.5947L9.69583 17.5787V17.5716L9.67805 17.568V17.5591L9.64961 17.5556V17.5467L9.61227 17.5307V17.5218L9.59627 17.52V17.5129L9.56605 17.5058L9.55894 17.4862L9.53761 17.4844V17.4756L9.52161 17.472V17.4631L9.50205 17.4613V17.4524L9.48427 17.4471L9.46472 17.4293L9.44694 17.424L9.43805 17.4062L9.38294 17.3778L9.37405 17.3618L9.33672 17.3476L9.31894 17.3173L9.30116 17.3138L9.28872 17.296L9.27272 17.2924L9.27094 17.2836L9.24427 17.2711L9.23539 17.2516L9.21761 17.248L9.19983 17.2196L9.18027 17.216L9.17139 17.1982L9.15183 17.1947L9.13405 17.1662L9.11627 17.1644L9.07894 17.1147L9.06116 17.1111L9.01494 17.0524L8.99716 17.0489L8.87805 16.9102L8.80339 16.8356V16.8196L8.73761 16.7556V16.7396L8.70383 16.7076V16.6916L8.6665 16.6578L8.66294 16.6436L8.64516 16.6311V16.6133L8.6185 16.592V16.576L8.59894 16.5636L8.59005 16.5369L8.58116 16.5351V16.5191L8.56161 16.5067V16.4907L8.54383 16.4764V16.4604L8.52783 16.448L8.50827 16.3947L8.48872 16.384L8.47094 16.3307L8.45139 16.3182L8.44072 16.2844L8.43183 16.2809V16.2649L8.42294 16.2631V16.2453H8.41227V16.2276L8.40694 16.2258L8.40339 16.208L8.3945 16.2062V16.1813L8.37494 16.1707V16.1458L8.36605 16.1422L8.35716 16.1084H8.34827V16.0818H8.33939L8.3305 16.0444L8.32161 16.0427L8.31094 15.9911L8.30027 15.9876V15.9716L8.29139 15.9698V15.936L8.2825 15.9342V15.9182L8.27539 15.9164V15.8844L8.26294 15.8809V15.856L8.25405 15.8542V15.8276H8.24516L8.2345 15.7671L8.22739 15.7653L8.21672 15.6889L8.20605 15.6871V15.6533L8.19894 15.6516V15.616H8.18827V15.5662L8.17939 15.5644L8.16872 15.4436L8.15983 15.4418L8.13672 15.12L8.14739 15.1218L8.15983 14.8142L8.16872 14.816V14.7644L8.17939 14.7662V14.7164L8.18827 14.7182L8.19539 14.6436L8.20427 14.6471L8.2025 14.6044L8.21316 14.6062L8.21139 14.5742H8.22205L8.23094 14.5156L8.23805 14.5209V14.4942H8.24694V14.4693L8.25761 14.4711V14.4391H8.2665L8.26294 14.4213L8.27539 14.4231L8.29139 14.3502L8.30027 14.352L8.31094 14.3218L8.31805 14.3236L8.32516 14.272L8.33761 14.2773L8.35539 14.2293L8.36605 14.2329V14.2133L8.37139 14.2169L8.38027 14.176L8.39805 14.1707L8.40694 14.1316L8.42827 14.1244L8.42472 14.1084L8.44427 14.096V14.0764L8.45139 14.08V14.064H8.46027V14.048L8.47805 14.0444L8.49939 13.9947L8.50472 13.9964L8.51361 13.9733L8.53316 13.9698V13.952L8.55094 13.9467V13.9307L8.57939 13.9182L8.58827 13.8844L8.61494 13.8773V13.8578L8.63983 13.8471V13.8293L8.68427 13.8044V13.7884L8.7305 13.7618V13.7458L8.76427 13.728V13.7084L8.82294 13.6889V13.6711L8.88516 13.6338L8.89405 13.6178L8.91183 13.6196L8.93139 13.6071L8.92961 13.5893L9.0185 13.5467V13.5307L9.09139 13.5022L9.10027 13.488L9.11805 13.4898L9.13761 13.4684L9.15539 13.4738L9.17316 13.4507L9.19272 13.4524L9.19983 13.44L9.2265 13.4347V13.4276L9.24427 13.4311L9.25494 13.4151L9.27272 13.4204L9.28161 13.4044L9.30116 13.408L9.53405 13.248L9.66916 13.1076H9.67983L9.74205 13.0453H9.75094V13.0293L9.7865 13.0027L9.81316 12.9991L9.87716 12.944L10.1403 12.7573V12.7413L10.1545 12.72L10.1741 12.7058V12.688L10.1829 12.6898V12.6738L10.2007 12.6684V12.6524L10.2203 12.6382L10.2167 12.6222L10.2345 12.6169V12.5991L10.2541 12.5956V12.5778L10.2718 12.5564L10.2914 12.5511L10.3358 12.5013L10.3892 12.4444V12.4267L10.4087 12.4302L10.4567 12.4053L10.4638 12.4071V12.3911L10.4976 12.3716V12.3627L10.5154 12.3591V12.3431L10.5723 12.3093L10.6772 12.1956L10.6949 12.1973L10.7518 12.1493L10.7696 12.1529L10.7838 12.1049L10.8034 12.1102L10.8407 12.0729L10.8585 12.0764L10.8674 12.0622L10.8869 12.064L10.9029 12.0427L10.9794 11.9893L10.9972 11.9769L11.0078 11.9716L11.0807 11.8933L11.0878 11.8596L11.0967 11.8613L11.1074 11.8382L11.1252 11.8347V11.8169L11.1412 11.8133V11.7956L11.1803 11.776L11.1874 11.744L11.2052 11.7387L11.2141 11.7173L11.2603 11.6907V11.6747L11.3047 11.6498V11.632L11.3936 11.5733L11.4025 11.5502L11.7474 11.1947L11.7669 11.1911L11.7847 11.1449L11.8043 11.1378L11.8203 11.0898L11.8292 11.0916L11.8381 11.0684L11.8558 11.0631L11.8647 11.0311L11.8914 11.0204L11.9003 10.9884L11.9269 10.976V10.96L11.9554 10.9493V10.9298L11.9732 10.9262V10.9084L12.0194 10.8836L12.0158 10.8676L12.0638 10.8409V10.8267L12.4532 10.272L12.4638 10.2542L12.4834 10.2507L12.4923 10.2169L12.5118 10.2133L12.5207 10.1796L12.5385 10.176V10.1582L12.5563 10.1529L12.5545 10.1351L12.5723 10.1316V10.1138L12.5918 10.1102V10.0942L12.6167 10.08V10.0658L12.6452 10.0516L12.6434 10.0356L12.6914 10.0124V9.99289L12.7358 9.96978V9.95378L12.7732 9.93422L12.7714 9.91644L12.7909 9.904L12.8087 9.90756" fill="#00B9AD"/>
<path d="M19.6763 9.51467L19.7029 9.41867L19.7207 9.42222L19.7474 9.31022L19.7652 9.30133L19.7741 9.28H19.7829L19.7936 9.25689L19.8114 9.25867L19.8487 9.2L19.8665 9.20356L19.9003 9.13244L19.9198 9.136L19.9554 9.05778L19.9749 9.06133L20.0123 9.00089V8.97422L20.0301 8.97067L20.0283 8.94578L20.0443 8.94045L20.0549 8.89778L20.0638 8.90133V8.88356L20.0834 8.88L20.0923 8.82844L20.1101 8.83378L20.1189 8.77511L20.1349 8.76978L20.1456 8.704L20.1634 8.69867L20.1723 8.63111L20.1918 8.62756V8.58489L20.1972 8.58667V8.55467L20.2185 8.54756L20.2256 8.448L20.2434 8.44089L20.2416 8.37333L20.2505 8.37511V8.35022L20.2594 8.352L20.2701 8.31289L20.2789 8.31467L20.2967 8.30756L20.3056 8.26845L20.3323 8.26489L20.3305 8.24L20.3483 8.24178L20.3607 8.20089L20.3892 8.19911L20.3856 8.17245L20.4034 8.176L20.4229 8.12089L20.4407 8.12445L20.4514 8.07467L20.4692 8.07822L20.5314 7.93778L20.5492 7.94133L20.5581 7.89156L20.5758 7.89511L20.5865 7.83822L20.6025 7.84178L20.6114 7.76711L20.6292 7.77067L20.6558 7.65511L20.6665 7.65689L20.6754 7.57333L20.6914 7.56978L20.6985 7.45245L20.7198 7.44711V7.41333H20.7287L20.7536 7.36L20.7732 7.36356L20.7998 7.344L20.8461 7.24978L20.8621 7.25333L20.8994 7.17333L20.9172 7.17867L21.166 6.47111L21.1767 6.47289L21.1838 6.45511H21.1927V6.47289H21.2016V6.49244H21.2105V6.50845L21.2194 6.51022V6.528L21.2301 6.52978V6.54578L21.2389 6.54756V6.56533L21.2478 6.56711V6.58311L21.2567 6.58489L21.2763 6.63822L21.2852 6.64178L21.4523 6.92978V6.94933L21.4878 6.98133V6.99733L21.5163 7.01867V7.03467L21.5447 7.05778V7.07556L21.5625 7.08622V7.104L21.582 7.11467L21.5909 7.14311H21.5998V7.16089L21.6194 7.17867V7.19644L21.6283 7.19822V7.21778L21.6478 7.22667L21.6567 7.26222L21.6638 7.26578L21.6834 7.31911L21.694 7.32089V7.34756H21.7029L21.7118 7.38133L21.7207 7.38489L21.8807 7.60533V7.62311L21.9252 7.664V7.68178L21.9625 7.71378V7.72978L21.9892 7.75111V7.76711L22.0087 7.78133V7.79911L22.0354 7.82045V7.83822L22.0549 7.84711L22.0638 7.88444L22.0816 7.89511L22.1012 7.94844L22.1189 7.96267L22.1278 7.99645L22.1367 7.99822L22.1492 8.03378H22.158V8.06045H22.1669L22.1776 8.09778L22.1847 8.09956L22.1936 8.14222L22.2043 8.144L22.3607 8.36622V8.384L22.4069 8.42489V8.44089L22.4354 8.464V8.48L22.4603 8.50311V8.51911L22.4798 8.52978L22.4923 8.55822L22.5012 8.56V8.576L22.5189 8.58667L22.5278 8.624L22.5438 8.63467L22.5652 8.68978H22.574V8.70578L22.5829 8.70756V8.72711H22.5936V8.74489L22.6025 8.74667L22.6203 8.8L22.6292 8.80178V8.82667L22.638 8.82844V8.84445L22.6469 8.84622L22.6505 8.87111L22.6594 8.87289V8.89067L22.6683 8.89245V8.91556L22.6772 8.91911V8.94222L22.686 8.94578V8.97067L22.6949 8.97245L22.75 9.05778L22.7963 9.12533L22.8052 9.12711L22.8158 9.15378L22.8425 9.17689V9.19111L22.8638 9.20533V9.22133L22.8887 9.24267V9.25867L22.9065 9.27111L22.9172 9.29956H22.926L22.9367 9.33511L22.9563 9.34933V9.36533L22.974 9.38489V9.40267H22.9847V9.42045L22.99 9.42222L22.9918 9.44L23.0114 9.45067V9.47556L23.0203 9.47733V9.49333L23.0292 9.49689L23.038 9.53067L23.0469 9.53244V9.55911H23.0558V9.57689H23.0647L23.0772 9.62311H23.086V9.648L23.0949 9.64978L23.2052 9.84711L23.2407 9.87733V9.89689L23.2709 9.91822V9.93422L23.2887 9.94667V9.96267L23.3527 10.0676L23.3705 10.0782V10.096L23.3918 10.1173V10.1316L23.4007 10.1351V10.1511L23.4114 10.1529V10.1724H23.4203V10.1867L23.4274 10.1884L23.4469 10.2436L23.4558 10.2471L23.6123 10.4676L23.6318 10.4978H23.6407V10.5138L23.6798 10.544V10.5636L23.7047 10.5867V10.6027L23.7349 10.624V10.64L23.7527 10.6542V10.6702L23.7705 10.6809L23.7812 10.7076L23.79 10.7093L23.7989 10.7467L23.8167 10.7573L23.8256 10.7929L23.8718 10.8836H23.886L23.8843 10.8924L23.8558 10.9049V10.912L23.8398 10.9102V10.9191L23.8185 10.9138L23.8043 10.9369L23.7918 10.9351V10.9529L23.7865 10.9511L23.7723 10.9653L23.7563 10.9636L23.7474 10.9867L23.7207 11.008L23.7083 11.0044V11.0151L23.6923 11.0098V11.0187L23.6656 11.0311V11.0471L23.6478 11.0542V11.0702L23.6105 11.0898L23.5643 11.1236V11.1396L23.5554 11.1378V11.1556L23.5287 11.168V11.1751L23.5092 11.1733L23.5003 11.1893L23.4629 11.1911L23.3705 11.216L23.3438 11.2356V11.2444L23.326 11.2409V11.248L23.3065 11.2444L23.2887 11.2676L23.2709 11.2658L23.2603 11.2782H23.2407L23.1874 11.3244L23.1696 11.3227L23.1412 11.3511L23.1145 11.3547L23.1038 11.3778L23.0772 11.3813V11.3991L23.0487 11.4204L23.0416 11.4169V11.4258L23.0132 11.4311L23.006 11.4436L22.9758 11.44L22.9687 11.456L22.9509 11.4524V11.4613L22.9314 11.4578V11.4649L22.894 11.4578V11.4667L22.8372 11.4738V11.4827L22.8105 11.4773L22.8123 11.488L22.7945 11.4827L22.7838 11.4987L22.7465 11.5004L22.6505 11.5627L22.5243 11.6231L22.3145 11.7262L22.286 11.7458L22.1776 11.8453L22.1509 11.8649L22.0674 11.8756L22.0496 11.8969L21.966 11.9076L21.9572 11.9236H21.9198L21.9038 11.9467L21.8843 11.9449L21.8754 11.9591L21.8363 11.9609L21.8185 11.9822L21.7829 12.0018L21.7652 11.9982V12.0142L21.7474 12.0107L21.7278 12.0356L21.7065 12.0302L21.71 12.0391L21.6905 12.0356V12.0427L21.6709 12.0498L21.6727 12.0658L21.6549 12.0711V12.08L21.6176 12.0818L21.6087 12.0942L21.4203 12.112L21.3136 11.9769L21.2852 11.9556L21.2763 11.9307L21.2372 11.8969V11.8809L21.2105 11.856V11.8436L21.1803 11.8187V11.8027L21.1625 11.7902V11.7724L21.1429 11.7618L21.1341 11.728L21.1163 11.7138L21.1074 11.68L21.0985 11.6782L21.0896 11.6427L21.0807 11.6391V11.6249L21.0701 11.6213L21.0541 11.6036L21.0487 11.6018L20.9634 11.488L20.8958 11.4062V11.3956L20.8567 11.3653V11.3511L20.7678 11.2551V11.2391L20.7447 11.2089V11.1929L20.7269 11.1804V11.1644L20.7038 11.152V11.1378L20.6878 11.1236V11.1076L20.6701 11.0969V11.0791L20.6505 11.0667V11.0489H20.6416L20.6309 11.0133L20.6132 11.0009L20.6025 10.9653H20.5954L20.5598 10.9084L20.5509 10.9067V10.88H20.5438L20.5332 10.8427L20.5225 10.8409L20.3483 10.5991V10.5831L20.3038 10.5422V10.5244L20.2754 10.5031V10.4853L20.2469 10.464V10.448L20.2292 10.4373V10.4178L20.2114 10.4071L20.1989 10.3804L20.1918 10.3787L20.1723 10.3236L20.1545 10.3129L19.9696 9.98578L19.9589 9.95733L19.8861 9.88622V9.86844L19.8487 9.83822V9.82045L19.8114 9.78845V9.77067L19.7936 9.75822L19.7829 9.73156H19.7741V9.71556L19.7563 9.70311V9.68533L19.7367 9.67467V9.65689L19.7207 9.64445V9.63022L19.6727 9.56267V9.55556L19.6781 9.55733L19.6763 9.51467Z" fill="#B2C23E"/>
<path d="M21.1838 6.42846V6.43912L21.1732 6.42846H21.1838Z" fill="#81BB45"/>
<path d="M19.6727 9.55556L19.6656 9.55556L19.6656 9.552L19.6727 9.55379L19.6727 9.55556Z" fill="#81BB45"/>
<path d="M19.6283 9.48089V9.456L19.6194 9.45422V9.43644L19.6105 9.43467V9.41867L19.5927 9.40622V9.39022L19.5447 9.34578V9.33689L19.5181 9.32444V9.30667L19.4985 9.30489L19.4896 9.28L19.4238 9.21422V9.19644L19.3883 9.16444V9.14844L19.3492 9.11644V9.09867L19.3225 9.07556V9.05778H19.3118L19.3029 9.03111L19.2745 9.00978L19.2585 8.95644L19.2372 8.94222V8.92622L19.2194 8.90667V8.88711H19.2105V8.86756H19.1998V8.85156L19.1909 8.84978V8.832L19.1803 8.83022V8.81422L19.1732 8.81067L19.1536 8.75733L19.1447 8.75556V8.73067L19.1341 8.72889V8.71289L19.1234 8.70756L19.0203 8.56356V8.54756L19.0043 8.53511V8.52622L18.9865 8.52267L18.9758 8.50489L18.9474 8.48356V8.464L18.9083 8.43378V8.41422L18.8709 8.384V8.36622L18.8549 8.35556L18.8443 8.32L18.8247 8.30756V8.28978L18.8069 8.27733L18.7892 8.224L18.7696 8.21156L18.7589 8.176L18.7394 8.16356V8.13867L18.7323 8.13689V8.12089L18.7216 8.11911V8.10133L18.7127 8.09956V8.08356L18.7056 8.08L18.6843 8.02667L18.6754 8.02489V8L18.6665 7.99822V7.98044L18.6558 7.97867L18.5154 7.74044V7.72622L18.4692 7.68356V7.664L18.4318 7.63378L18.4229 7.60533L18.4052 7.59289L18.3927 7.55911L18.3661 7.536L18.3465 7.48089L18.3287 7.47022V7.45422L18.3109 7.43111V7.41689L18.2985 7.41333V7.39556H18.2932V7.37956L18.2843 7.376V7.36L18.2736 7.35822L18.2541 7.30311L18.2434 7.30133L18.2345 7.248H18.2256L18.2167 7.22844L18.2078 7.2L18.1492 7.088L18.1207 7.04178L18.1029 7.04V7.03111L18.0763 7.008V6.99022L18.0549 6.97778V6.96178L18.0265 6.93867V6.92444L18.0105 6.92089L17.9998 6.89244L17.9909 6.89067L17.9821 6.864L17.9625 6.85156L17.9518 6.816L17.9269 6.79289L17.9092 6.73956L17.8878 6.72711V6.71111L17.8683 6.68978V6.67378H17.8612V6.65422H17.8523V6.63644L17.8416 6.63289L17.8398 6.61511H17.8327V6.59911L17.8238 6.59733L17.8025 6.54222H17.7936V6.51733L17.7847 6.51378V6.48889L17.7758 6.48711V6.46044H17.7652V6.43378H17.7563V6.40889L17.7474 6.40533V6.38044L17.7403 6.37689L17.7367 6.352L17.7296 6.35022L17.7261 6.31822L17.7172 6.31467V6.28089L17.7083 6.27911L17.7065 6.24711L17.6994 6.24533L17.6887 6.14222L17.6781 6.13867L17.6674 5.96622H17.6603L17.6656 5.77244L17.6763 5.77422L17.6905 5.60711L17.7794 5.34578H17.7883L17.8078 5.29778L17.8167 5.29956V5.28356L17.8256 5.28533V5.26756L17.8345 5.26933V5.25511H17.8452V5.23911H17.8541V5.22311L17.8718 5.20889L17.8683 5.19111L17.8878 5.184L17.9092 5.13956L17.9341 5.12711L17.9412 5.09511L17.9607 5.08978L17.9696 5.06667H17.9803L17.9892 5.04356L18.0087 5.04889L18.0265 5.01689L18.0318 5.01867V5.00089L18.0781 4.96L18.0976 4.96356V4.95289L18.1154 4.94933V4.93156L18.1438 4.92978V4.912L18.1794 4.90311L18.2256 4.85867L18.2416 4.86222V4.85511L18.2896 4.83733L18.2878 4.82133L18.3145 4.816V4.80889L18.3447 4.80533L18.3501 4.79111L18.3892 4.78756L18.4087 4.768L18.4621 4.75911L18.4727 4.74311L18.4887 4.74844L18.5083 4.73422L18.5278 4.73778V4.72889L18.5456 4.73244V4.72356L18.5634 4.72711L18.5723 4.71289L18.6096 4.70933V4.704L18.6612 4.69511V4.68622L18.6914 4.69156L19.2443 4.68444L19.5394 4.74844V4.75378L19.6389 4.78222L19.8523 4.88178L19.9074 4.89956V4.90844L19.9252 4.912V4.92089L20.0087 4.96178L20.0176 4.98133L20.0354 4.98489L20.0549 5.00444L20.0745 5.008V5.01689L20.0923 5.01867L20.1029 5.03822L20.1207 5.04178V5.05067L20.1367 5.05244L20.1598 5.07556L20.1758 5.07733V5.08622L20.2043 5.09867L20.2132 5.11822L20.2701 5.14489L20.2789 5.16444L20.3074 5.17689V5.184L20.3323 5.2V5.21422L20.3785 5.25156V5.25867L20.3998 5.26222L20.4461 5.32089L20.4834 5.34578V5.36178L20.5012 5.36533L20.5101 5.392L20.5758 5.456V5.47378L20.6025 5.49511V5.51111L20.6309 5.53422V5.55022L20.6505 5.56267L20.6594 5.59111L20.6967 5.62133V5.63911L20.7269 5.66222L20.7447 5.71556L20.7625 5.728V5.74578L20.7821 5.76533V5.78133L20.7892 5.78311V5.80089L20.7998 5.80267V5.81867L20.8105 5.82222V5.83822L20.8176 5.84V5.85778H20.8301L20.8567 5.91467L21.0256 6.208V6.224L21.0345 6.22756L21.0541 6.256L21.0825 6.27733V6.29511L21.1003 6.30756V6.32533L21.1287 6.34489L21.1376 6.38222L21.1643 6.40356L21.1732 6.42489L21.1732 6.42846L21.1838 6.43912L21.1838 6.45511L21.1767 6.47289L21.166 6.47111L20.9172 7.17867L20.8994 7.17333L20.8621 7.25333L20.8461 7.24978L20.7998 7.344L20.6914 7.56978L20.6754 7.57333L20.6665 7.65689L20.6558 7.65511L20.6292 7.77067L20.6114 7.76711L20.6025 7.84178L20.5865 7.83822L20.5758 7.89511L20.5581 7.89156L20.5492 7.94133L20.5314 7.93778L20.4692 8.07822L20.4514 8.07467L20.4407 8.12445L20.4229 8.12089L20.4034 8.176L20.3892 8.19911L20.3483 8.24178L20.3323 8.26489L20.2434 8.44089L20.2185 8.54756L20.1972 8.55467V8.58667L20.1918 8.58489V8.62756L20.1723 8.63111L20.1634 8.69867L20.1456 8.704L20.1349 8.76978L20.1189 8.77511L20.1101 8.83378L20.0923 8.82844L20.0834 8.88L20.0638 8.88356V8.90133L20.0549 8.89778L20.0443 8.94045L20.0283 8.94578L20.0301 8.97067L20.0123 8.97422V9.00089L19.9749 9.06133L19.9554 9.05778L19.9198 9.136L19.9003 9.13244L19.8665 9.20356L19.7207 9.42222L19.6763 9.51467L19.6781 9.55733L19.6727 9.55556L19.6727 9.55379L19.6656 9.552L19.6389 9.48267L19.6283 9.48089Z" fill="#009194"/>
<path d="M27.0487 13.1733L27.0541 13.1822L27.0398 13.1787L27.0363 13.168L27.0487 13.1662V13.1733Z" fill="#81BB45"/>
<path d="M28.8087 10.4853L28.8176 10.4871V10.5067L28.7838 10.464L28.8087 10.4853Z" fill="#81BB45"/>
<path d="M26.9989 13.1289L26.9918 13.0933L26.9634 13.072L26.9545 13.0276L26.9456 13.0258L26.9065 12.9671L26.7874 12.8853V12.8676L26.7589 12.8551L26.75 12.8356L26.7287 12.8338L26.702 12.7947L26.6825 12.7911L26.638 12.7378L26.6167 12.7093L26.6007 12.7058L26.5705 12.6578L26.5527 12.656L26.5065 12.5884L26.4958 12.5849V12.5671L26.4389 12.5156V12.4996L26.4229 12.4853V12.4676L26.4034 12.4569V12.4409L26.366 12.4231L26.2985 12.2773L26.2825 12.272L26.2025 12.0978L26.1847 12.0836V12.0676L26.1758 12.0658L26.1669 12.0124L26.1563 12.0107V11.9858L26.1474 11.984V11.9591L26.1385 11.9573V11.9324L26.1296 11.9307L26.1278 11.8951H26.1207L26.1083 11.84L26.0994 11.8382V11.8222L26.0905 11.8187V11.7867L26.0816 11.7849L26.0798 11.7333L26.0709 11.7316L26.0692 11.6871H26.062L26.0603 11.6178L26.0514 11.616L25.9145 11.1502L25.9056 11.0631L25.8967 11.0613V11.0436H25.8878L25.886 10.9831L25.8665 10.9689V10.8782L25.8469 10.8676L25.8434 10.5991L25.8629 10.5973V10.4996L25.8807 10.5049L25.8878 10.4231H25.8967V10.3893L25.9056 10.3911V10.3467L25.9234 10.3431V10.3093L25.9429 10.3058L25.9518 10.2471L25.9714 10.2507L25.9945 10.16L26.014 10.1636V10.1387L26.0318 10.1422L26.1065 10.0284L26.1243 10.032L26.1527 9.97689L26.1705 9.98044V9.96267L26.1883 9.96444L26.2345 9.90578L26.2505 9.90933V9.89155L26.2825 9.89866L26.3092 9.87733L26.3056 9.86133L26.3252 9.86489V9.84711L26.3429 9.85067L26.3625 9.82933L26.3785 9.83111L26.3892 9.81689L26.4158 9.81155V9.79555L26.462 9.77066L26.5456 9.76V9.744L26.638 9.73689V9.71733L26.7198 9.70666L26.75 9.71378V9.70489L26.7678 9.70666V9.69778L26.8016 9.70489L26.814 9.69066L26.9136 9.70133L26.9207 9.68533L27.006 9.70133L27.0167 9.68533L27.1625 9.71378L27.1838 9.70666L27.4309 9.76355V9.78133L27.6372 9.84355V9.86133L27.6834 9.86844V9.88622L27.8345 9.93245L28.1972 10.128L28.2594 10.1636V10.1724L28.2967 10.1796L28.3056 10.1956L28.3429 10.2044V10.2133L28.3696 10.2187V10.2258L28.3998 10.2311V10.2418L28.4372 10.2471V10.256L28.5669 10.3129V10.3307L28.75 10.4338V10.4498L28.7838 10.464L28.8176 10.5067L28.8176 10.512L28.8372 10.5173L28.846 10.5618H28.8567V10.5973L28.8638 10.5991L28.8638 10.6133L28.8763 10.6169V10.6436H28.8852V10.6809H28.8941V10.6969L28.9029 10.6987V10.7413L28.9225 10.752L28.9243 10.8142L28.942 10.8267V10.9049L28.9598 10.912L28.9616 11.0578L28.9829 11.1751L28.974 11.1698V11.2053L28.9652 11.2036V11.3511L28.9474 11.3547V11.4311L28.9314 11.4347V11.4951L28.9118 11.5005V11.5449L28.9029 11.5431V11.5591L28.8941 11.5573V11.5911L28.8869 11.5893V11.6071L28.878 11.6053L28.8674 11.664L28.8585 11.6605L28.8514 11.7013L28.8318 11.6996V11.7333L28.814 11.7298V11.7636L28.7945 11.76L28.7785 11.8169L28.7589 11.8133L28.7429 11.8596L28.7145 11.872V11.8987L28.6772 11.9431L28.6576 11.9396L28.6594 11.9556L28.6416 11.9538V11.9716L28.6256 11.9662L28.5581 12.048L28.5403 12.0462V12.0622L28.4567 12.0978V12.1138L28.4016 12.1298V12.1476L28.2469 12.2631L28.2274 12.2596L28.2292 12.2862L28.2114 12.2898V12.3076L28.1812 12.32V12.3342L28.1527 12.3485V12.3645L28.1189 12.384L28.1012 12.4053V12.4231L28.0834 12.4196L28.046 12.4551L28.0372 12.4533V12.4711L28.0087 12.4818L27.9998 12.4978L27.982 12.4942L27.6887 12.7111L27.6798 12.7093L27.6709 12.7342L27.6532 12.7396V12.7556L27.6354 12.7609V12.7787L27.6158 12.784V12.8L27.5874 12.8125V12.832L27.5607 12.8409L27.5518 12.8658L27.5145 12.8853L27.4594 12.9262L27.4612 12.9422L27.4309 12.9476L27.3776 12.9973L27.3598 12.992L27.3492 13.008L27.3314 13.0027L27.3065 13.0329L27.2763 13.0365L27.2656 13.0525L27.2514 13.0489L27.2389 13.0631L27.2229 13.0613L27.214 13.0756L27.1963 13.072V13.0809L27.1696 13.0845L27.1589 13.1005L27.1394 13.0969L27.1216 13.1182L27.1038 13.1147L27.0541 13.1645L27.0576 13.1822L27.0541 13.1822L27.0487 13.1733V13.1662L27.0363 13.168L27.0114 13.1307L26.9989 13.1289Z" fill="#59B35A"/>
<path d="M21.4185 12.1155L21.4149 12.112L21.4203 12.112L21.4238 12.1156L21.4185 12.1155Z" fill="#81BB45"/>
<path d="M21.6176 12.0818L21.6549 12.08V12.0711L21.6727 12.0658L21.6709 12.0498L21.6905 12.0427V12.0356L21.71 12.0391L21.7065 12.0302L21.7278 12.0356L21.7474 12.0107L21.7652 12.0142V11.9982L21.7829 12.0018L21.8185 11.9822L21.8363 11.9609L21.8754 11.9591L21.8843 11.9449L21.9038 11.9467L21.9198 11.9236H21.9572L21.966 11.9076L22.0496 11.8969L22.0674 11.8756L22.1509 11.8649L22.1776 11.8453L22.286 11.7458L22.3145 11.7262L22.4798 11.6285L22.5101 11.6338V11.6178L22.6363 11.5573L22.7465 11.5004L22.7838 11.4987L22.7945 11.4827L22.8123 11.488L22.8105 11.4773L22.8372 11.4827V11.4738L22.894 11.4667V11.4578L22.9314 11.4649V11.4578L22.9509 11.4613V11.4524L22.9687 11.456L22.9758 11.44L23.006 11.4436L23.0132 11.4311L23.0416 11.4258V11.4169L23.0487 11.4204L23.0772 11.3991V11.3813L23.1038 11.3778L23.1145 11.3547L23.1412 11.3511L23.1696 11.3227L23.1874 11.3244L23.2407 11.2782H23.2603L23.2709 11.2658L23.2887 11.2676L23.3065 11.2444L23.326 11.248V11.2409L23.3438 11.2444V11.2356L23.3705 11.216L23.4629 11.1911L23.6105 11.0898L23.6478 11.0702V11.0542L23.6656 11.0471V11.0311L23.6923 11.0187V11.0098L23.7083 11.0151V11.0044L23.7207 11.008L23.7474 10.9867L23.7563 10.9636L23.7723 10.9653L23.7865 10.9511L23.7918 10.9529V10.9351L23.8043 10.9369L23.8185 10.9138L23.8398 10.9191V10.9102L23.8558 10.912V10.9049L23.8843 10.8924L23.886 10.8836L23.8932 10.8836V10.9049L23.9323 10.928V10.944L24.0052 11.0009V11.0187L24.0247 11.0204V11.0382L24.0443 11.0436V11.0578L24.0621 11.0631L24.0638 11.0791L24.0816 11.0844L24.1261 11.1591L24.1456 11.1627L24.1669 11.2071L24.1865 11.2142V11.2284L24.2025 11.232L24.2683 11.3369L24.4016 11.4827V11.5004L24.4372 11.5147V11.5307L24.4834 11.5573V11.5733L24.5012 11.5769V11.5947L24.5207 11.5982L24.5225 11.616L24.5687 11.6658L24.5883 11.6693V11.6871L24.6061 11.6907V11.7067L24.6238 11.7102L24.6896 11.8169L24.7092 11.8187V11.8382L24.7269 11.84V11.8649L24.7447 11.8702L24.9883 12.144V12.1618L25.0078 12.1653L25.0363 12.2116L25.0541 12.2151L25.0558 12.2347L25.0736 12.2382L25.1021 12.2844L25.1198 12.2862V12.3058L25.1376 12.3076L25.1678 12.3733L25.1874 12.3769V12.3964L25.2052 12.3982L25.2336 12.4604L25.2514 12.4658V12.4907L25.2692 12.4942L25.2798 12.5209L25.2887 12.5227L25.2994 12.5671L25.3172 12.5796V12.5973L25.3367 12.6098V12.6347L25.3563 12.6453L25.3652 12.7004L25.3847 12.7093V12.7467H25.3918L25.4025 12.7911L25.4221 12.7947L25.4327 12.8818L25.4416 12.8853V12.9013H25.4505V12.9529L25.47 12.9653L25.518 13.1289L25.5376 13.1307L25.5554 13.2036L25.5732 13.2053L25.5856 13.2676L25.6034 13.2711L25.614 13.3582L25.6318 13.3636L25.6621 13.664H25.6532L25.6567 13.7991L25.646 13.7973V13.8578L25.6372 13.856V13.9076L25.6212 13.9111L25.614 13.9787L25.5945 13.9751L25.55 14.1102L25.5287 14.1067L25.4594 14.2329L25.4398 14.2364L25.4292 14.2347L25.4309 14.2596L25.4114 14.2578V14.2667L25.3758 14.2862L25.3474 14.304L25.3509 14.3307L25.2834 14.3502V14.3662L25.2798 14.3645L25.2763 14.368H25.2745L25.2585 14.3769H25.2514L25.2354 14.3893L25.2176 14.3876V14.3947L25.1981 14.3911V14.4L25.1803 14.3965L25.1714 14.4125L25.1163 14.4196L25.1056 14.4338L25.0896 14.4302L25.0807 14.4462L25.0327 14.4729L25.0078 14.4711V14.4889L24.8425 14.4995V14.5155L24.6647 14.5013V14.5102L24.6469 14.5067V14.5138L24.5278 14.4942L24.1954 14.3964V14.3787L24.1207 14.3591L24.1118 14.3395L24.0905 14.336V14.3253L24.0443 14.3182V14.3075L24.0158 14.304V14.2951L23.9252 14.2809L23.9163 14.2613L23.8132 14.2418L23.8043 14.224L23.7385 14.2098V14.2027L23.7029 14.1955V14.1867L23.6763 14.1813V14.1724L23.6265 14.1653L23.6176 14.1458L23.5714 14.1351V14.1209L23.5341 14.112L23.5252 14.0942L23.4612 14.0747V14.0569L23.4221 14.0498V14.032L23.3847 14.0178V14.0107L23.3563 14.0018V13.9947L23.3118 13.9698V13.952L23.2816 13.9467V13.9307L23.1341 13.7991L23.1163 13.7973V13.7795L23.0683 13.728L23.0487 13.7262V13.7084L23.0327 13.7049V13.6889L22.8532 13.5449L22.8158 13.5182L22.8087 13.5022L22.7892 13.4969V13.4898L22.7696 13.4862V13.4791L22.7323 13.4471L22.6096 13.3635V13.3475L22.5936 13.344V13.3244L22.5652 13.3209V13.3031L22.5438 13.2995V13.2835L22.4443 13.1715L22.4247 13.168V13.1502L22.2452 12.9653V12.9475L22.2114 12.9404V12.9244L22.1812 12.9084V12.9013L22.1634 12.8978L22.1527 12.88L22.1261 12.8729L22.1154 12.8551L22.0514 12.8178V12.8L22.0336 12.7964V12.7787L21.9856 12.7538V12.7378L21.9678 12.7324L21.9661 12.7147L21.8914 12.6595V12.6418L21.8718 12.64L21.8274 12.5635L21.8078 12.5582V12.5422L21.7901 12.5387L21.7687 12.4924L21.7509 12.4889V12.4729L21.7332 12.4675V12.4444L21.7154 12.4302V12.4142L21.7065 12.4124L21.6869 12.3662L21.6656 12.3627V12.3378L21.6478 12.3324L21.6194 12.304L21.6105 12.2844V12.2773L21.5838 12.2702V12.2524L21.5074 12.2062V12.1902L21.4345 12.1404V12.1244L21.4185 12.1155L21.4238 12.1156L21.4203 12.112L21.6087 12.0942L21.6176 12.0818Z" fill="#5CA038"/>
</svg>
