<svg width="42" height="20" viewBox="0 0 42 20" fill="none" xmlns="http://www.w3.org/2000/svg">
<path d="M9.60547 10.125C9.60547 5.63528 14.7056 2 20.9996 2C27.2936 2 32.3937 5.63528 32.3937 10.125C32.3937 14.6148 27.2936 18 20.9996 18C14.7056 18 9.60547 14.6089 9.60547 10.125ZM17.275 14.6744C19.4425 15.8653 22.8366 15.4514 22.8366 15.4514C23.8757 15.4514 23.1343 14.8381 23.1343 14.8381C22.9938 14.759 22.8735 14.6485 22.7829 14.5151C22.6922 14.3818 22.6337 14.2293 22.6118 14.0696C22.5898 13.9098 22.6052 13.7472 22.6566 13.5944C22.708 13.4416 22.794 13.3027 22.908 13.1887C23.4277 12.6175 24.1198 12.2317 24.879 12.0901C27.0465 11.4083 29.5385 11.7328 29.5385 11.7328C30.3126 11.8608 29.6665 11.185 29.6665 11.185C29.1812 10.7949 29.473 9.95236 29.473 9.95236C30.1577 9.1423 31.1256 8.62377 32.1793 8.50241L32.1049 8.26423L32.0454 8.09453C31.4182 7.91538 30.7711 7.81536 30.119 7.7968C26.3677 7.40975 24.492 8.47562 24.492 8.47562C21.4849 9.99702 24.492 11.4351 24.492 11.4351C22.8223 11.1386 21.1121 11.1547 19.4484 11.4827C18.6036 11.5963 17.7959 11.9019 17.0874 12.3759C15.2951 13.6055 17.275 14.6744 17.275 14.6744ZM9.6144 10.399L9.67692 10.5032C11.1179 12.7689 16.227 12.0901 16.227 12.0901C16.9415 11.9918 16.3878 11.6375 16.3878 11.6375C14.9676 10.3424 16.7778 9.37179 16.7778 9.37179C19.2817 7.901 22.646 8.41905 22.646 8.41905C23.4231 8.43394 22.9706 8.09453 22.9706 8.09453C22.8076 7.93693 22.6931 7.73611 22.6403 7.51566C22.5876 7.29521 22.5989 7.06428 22.6728 6.85002C23.1879 5.62039 25.3226 5.21548 25.3226 5.21548C25.9181 4.97432 25.3226 4.74804 25.3226 4.74804C20.1481 3.67919 17.5816 5.16784 17.5816 5.16784C14.4942 6.76963 17.7603 8.12728 17.7603 8.12728C16.5312 7.9206 15.2837 7.84475 14.0387 7.901C10.0312 8.22255 9.62929 9.75883 9.62929 9.75883C9.62929 9.75883 9.61142 9.95236 9.61142 10.125L9.6144 10.399ZM18.8262 13.4864C18.9648 13.487 19.1005 13.4464 19.216 13.3697C19.3315 13.2931 19.4216 13.1838 19.475 13.0559C19.5283 12.9279 19.5424 12.787 19.5155 12.651C19.4886 12.515 19.4219 12.39 19.3239 12.292C19.2258 12.194 19.1009 12.1273 18.9649 12.1004C18.8289 12.0735 18.688 12.0876 18.56 12.1409C18.432 12.1942 18.3228 12.2844 18.2461 12.3999C18.1695 12.5154 18.1289 12.6511 18.1295 12.7897C18.1295 12.9735 18.202 13.1498 18.3314 13.2803C18.4608 13.4107 18.6365 13.4848 18.8202 13.4864H18.8262ZM12.0201 10.2114C12.1586 10.2114 12.294 10.1703 12.4091 10.0933C12.5242 10.0162 12.6139 9.9068 12.6667 9.77878C12.7196 9.65076 12.7333 9.50993 12.706 9.37412C12.6788 9.23832 12.6119 9.11366 12.5137 9.01593C12.4156 8.9182 12.2906 8.8518 12.1547 8.82514C12.0188 8.79848 11.878 8.81276 11.7502 8.86617C11.6224 8.91958 11.5134 9.00973 11.4369 9.12518C11.3603 9.24063 11.3198 9.3762 11.3204 9.5147C11.3184 9.60719 11.3349 9.69914 11.3688 9.78519C11.4028 9.87125 11.4535 9.94968 11.5181 10.0159C11.5826 10.0822 11.6598 10.1349 11.7449 10.171C11.8301 10.2071 11.9216 10.2259 12.0141 10.2263L12.0201 10.2114ZM18.713 6.72497C18.8514 6.72497 18.9867 6.68394 19.1017 6.60706C19.2168 6.53018 19.3065 6.4209 19.3594 6.29305C19.4124 6.16521 19.4262 6.02453 19.3992 5.88881C19.3722 5.75309 19.3056 5.62842 19.2078 5.53057C19.1099 5.43272 18.9852 5.36608 18.8495 5.33908C18.7138 5.31209 18.5731 5.32594 18.4453 5.3789C18.3174 5.43185 18.2082 5.52153 18.1313 5.63659C18.0544 5.75165 18.0134 5.88692 18.0134 6.0253C18.0114 6.11793 18.0278 6.21003 18.0617 6.29625C18.0956 6.38247 18.1463 6.4611 18.2109 6.52758C18.2754 6.59405 18.3525 6.64705 18.4377 6.68349C18.5229 6.71993 18.6144 6.73909 18.7071 6.73986L18.713 6.72497ZM25.531 10.0327C25.6687 10.0322 25.8031 9.9908 25.9173 9.91389C26.0315 9.83698 26.1203 9.72797 26.1726 9.60062C26.2248 9.47327 26.2382 9.33327 26.211 9.19833C26.1838 9.06338 26.1172 8.93952 26.0196 8.84238C25.9221 8.74525 25.7979 8.67919 25.6629 8.65255C25.5278 8.62591 25.3879 8.63987 25.2608 8.69269C25.1336 8.74551 25.025 8.83481 24.9486 8.94932C24.8722 9.06382 24.8314 9.1984 24.8314 9.33606C24.831 9.42791 24.8488 9.51893 24.8839 9.60384C24.9189 9.68874 24.9705 9.76583 25.0356 9.83064C25.1007 9.89545 25.178 9.94669 25.263 9.98139C25.3481 10.0161 25.4392 10.0335 25.531 10.0327Z" fill="#076CAF"/>
</svg>
