<svg width="42" height="20" viewBox="0 0 42 20" fill="none" xmlns="http://www.w3.org/2000/svg">
<path d="M28.3707 11.4289C27.5685 13.4265 26.2188 13.9934 26.2188 13.9934C30.187 9.97507 27.7614 5.33974 27.7614 5.33974C27.1752 4.30238 27.9195 3.85119 27.9195 3.85119C26.215 4.27539 26.7626 5.68682 26.7626 5.68682C27.4322 7.1685 27.5685 8.83626 27.1482 10.407L26.589 10.0946C26.589 10.0946 27.9195 4.85384 22.4936 3.01436V2.02714H21.3367V8.52509L26.6623 11.56C26.562 11.7567 26.4618 11.9457 26.3538 12.1154L21.005 9.03027L15.637 12.1154C15.5249 11.9356 15.4219 11.7502 15.3285 11.56L20.6541 8.52509V2.01172H19.4972V2.99894C14.0713 4.83842 15.4018 10.0792 15.4018 10.0792L14.8387 10.3916C14.4207 8.82063 14.5569 7.15363 15.2244 5.67139C15.2244 5.67139 15.7565 4.25996 14.0675 3.83577C14.0675 3.83577 14.8117 4.28696 14.2256 5.32432C14.2256 5.32432 11.8038 9.95194 15.7681 13.978C15.7681 13.978 14.4222 13.4111 13.6163 11.4135C13.4547 11.1106 13.1966 10.8702 12.883 10.7305C12.5693 10.5908 12.2181 10.5597 11.8848 10.6422C12.0797 10.7661 12.2482 10.9273 12.3806 11.1166C12.513 11.3059 12.6066 11.5195 12.656 11.7451C12.656 11.7451 13.8129 15.4087 18.2516 15.9678V17.9886H20.4382V15.0076C18.8744 14.9054 17.4109 14.202 16.3543 13.0447L16.9019 12.7247C18.0282 13.7367 19.4662 14.3339 20.978 14.4176H21.0205C22.5318 14.3318 23.9692 13.7348 25.0966 12.7247L25.6442 13.0447C24.5876 14.202 23.1241 14.9054 21.5603 15.0076V17.9886H23.743V15.9678C28.1894 15.4087 29.3425 11.7451 29.3425 11.7451C29.3919 11.5195 29.4855 11.3059 29.6179 11.1166C29.7503 10.9273 29.9188 10.7661 30.1137 10.6422C29.7771 10.563 29.4238 10.5972 29.1086 10.7394C28.7934 10.8817 28.534 11.1241 28.3707 11.4289ZM25.5285 9.50075L22.5206 7.82709V4.23297C22.5206 4.23297 26.1417 5.20863 25.5285 9.49304V9.50075ZM19.4779 4.2214V7.81552L16.4738 9.50075C15.8722 5.20863 19.4779 4.2214 19.4779 4.2214ZM21.0205 10.3607L24.013 12.1154H23.986C23.1638 12.8406 22.1052 13.2408 21.0089 13.2408C19.9126 13.2408 18.8539 12.8406 18.0318 12.1154H18.0048L21.0205 10.3607Z" fill="#0061AE"/>
</svg>
