<svg width="42" height="20" viewBox="0 0 42 20" fill="none" xmlns="http://www.w3.org/2000/svg">
<path d="M20.6426 2.11906C19.0829 2.18979 17.5792 2.72152 16.3218 3.64697C15.0644 4.57242 14.1097 5.85002 13.5785 7.31815C13.0472 8.78628 12.9634 10.379 13.3375 11.8948C13.7116 13.4106 14.5269 14.7813 15.6802 15.8337C16.8335 16.8861 18.2731 17.5727 19.8167 17.8069C21.3603 18.041 22.9387 17.812 24.3522 17.1489C25.7656 16.4858 26.9507 15.4184 27.7574 14.0817C28.5642 12.745 28.9563 11.1991 28.8843 9.63944C28.838 8.6038 28.588 7.58745 28.1487 6.64848C27.7093 5.70952 27.0892 4.86636 26.3237 4.16721C25.5583 3.46805 24.6626 2.92663 23.6878 2.57387C22.713 2.22112 21.6782 2.06397 20.6426 2.11139V2.11906Z" fill="url(#paint0_radial_1296_36049)"/>
<path d="M20.6387 2.01183C19.058 2.0833 17.5339 2.62194 16.2593 3.55963C14.9847 4.49732 14.0168 5.79194 13.478 7.27976C12.9392 8.76758 12.8538 10.3818 13.2325 11.9181C13.6111 13.4545 14.4369 14.8441 15.6054 15.9112C16.7739 16.9782 18.2325 17.6747 19.7969 17.9127C21.3613 18.1507 22.9611 17.9194 24.394 17.248C25.8269 16.5767 27.0285 15.4956 27.8469 14.1413C28.6653 12.787 29.0637 11.2204 28.9917 9.63966C28.8952 7.52027 27.9611 5.52593 26.3948 4.0949C24.8286 2.66387 22.7582 1.91324 20.6387 2.00799V2.01183ZM21.5749 9.77395C22.9984 11.0862 23.7773 11.7922 23.7773 11.7922C26.2828 13.8795 25.4272 15.7864 24.468 16.4502C23.697 16.9644 22.7931 17.243 21.8665 17.2521C21.8345 17.257 21.8017 17.2553 21.7703 17.2473C21.7389 17.2392 21.7094 17.2249 21.6836 17.2052C21.6579 17.1855 21.6363 17.1608 21.6203 17.1326C21.6042 17.1044 21.594 17.0733 21.5903 17.0411C21.5903 16.8608 21.8474 16.8147 21.8474 16.8147C24.2147 16.3505 23.5203 14.7965 22.6838 14.0061C22.3346 13.6723 19.0387 10.8291 19.0387 10.8291C15.9001 8.14325 16.1495 6.01375 16.1495 6.01375C16.2991 3.41615 18.5744 2.77155 20.2972 2.92119C20.4967 2.94037 20.608 3.06316 20.5735 3.22815C20.539 3.39313 20.2704 3.42766 20.2704 3.42766C19.7783 3.41488 19.2914 3.5313 18.8584 3.76531C17.4732 4.69769 17.8838 6.28617 19.7332 8.05116C19.9634 8.2737 20.2128 8.50777 20.4661 8.74566C20.4661 8.74566 20.8382 9.07179 21.5749 9.77395ZM20.5006 16.4886C20.5006 16.7457 19.8982 16.8531 19.196 16.784C18.1461 16.7093 17.1462 16.3067 16.3375 15.6329C15.5593 14.9322 14.9964 14.0247 14.7145 13.0161C14.4536 12.1106 14.3308 11.0555 14.7759 11.1361C14.9063 11.1629 15.1366 11.7461 15.3821 12.1682C15.5465 12.4845 15.7721 12.7649 16.0459 12.9931C16.1342 13.0584 16.4296 12.3869 16.8747 12.007C17.1279 11.796 17.408 11.7231 17.4541 12.3524C17.5078 13.1198 17.3697 14.0406 17.5922 14.0406C17.8147 14.0406 18.279 13.8795 19.3188 13.7912C19.7025 13.7605 19.9327 13.8334 19.5605 14.3591C19.2885 14.7732 18.941 15.1325 18.5361 15.4181C19.4224 16.2392 20.4814 16.1394 20.5006 16.4886ZM21.1989 8.43102C21.1281 8.10183 21.1177 7.76249 21.1682 7.42958C21.2731 6.74887 21.4801 6.08788 21.7821 5.46891C22.1658 4.55956 21.268 4.02623 21.3984 3.69241C21.5979 3.23965 22.2272 3.81519 22.9332 3.8574C23.5356 3.89193 23.9001 3.8574 24.3682 3.92263C24.9898 4.00704 25.7342 4.21424 26.0641 4.6056C26.3941 4.99697 25.9068 5.39601 25.3466 5.12359C24.9399 4.92407 24.4258 5.04685 24.725 5.47275C24.9502 5.75531 25.2762 5.9396 25.6344 5.9869C26.6512 6.25549 26.6742 7.23007 25.9836 7.73654C25.197 8.30824 24.4066 8.07419 24.0881 6.94613C23.927 6.38211 23.5279 6.09817 23.1212 6.25548C22.7145 6.41279 22.9562 7.15716 23.267 7.84013C23.8809 9.41328 22.35 9.37491 22.1735 9.34037C21.9426 9.29287 21.7294 9.18243 21.5574 9.02126C21.3854 8.86009 21.2613 8.65448 21.1989 8.42718V8.43102Z" fill="url(#paint1_radial_1296_36049)"/>
<defs>
<radialGradient id="paint0_radial_1296_36049" cx="0" cy="0" r="1" gradientUnits="userSpaceOnUse" gradientTransform="translate(22.2482 7.38782) scale(7.60093 7.59891)">
<stop stop-color="white"/>
<stop offset="1" stop-color="#CF9C51"/>
</radialGradient>
<radialGradient id="paint1_radial_1296_36049" cx="0" cy="0" r="1" gradientUnits="userSpaceOnUse" gradientTransform="translate(20.3752 5.13709) scale(16.7975 16.7975)">
<stop stop-color="#00C0F3"/>
<stop offset="0.22" stop-color="#0097D6"/>
<stop offset="0.28" stop-color="#0086CA"/>
<stop offset="0.37" stop-color="#0074BD"/>
<stop offset="0.46" stop-color="#0069B5"/>
<stop offset="0.57" stop-color="#0066B3"/>
</radialGradient>
</defs>
</svg>
