<svg width="42" height="20" viewBox="0 0 42 20" fill="none" xmlns="http://www.w3.org/2000/svg">
<path d="M17.3671 13.6806L17.3314 13.7138C17.1037 13.9682 16.8268 14.1737 16.5173 14.3179C16.2079 14.4621 15.8723 14.542 15.5311 14.5527C14.1949 14.5527 13.2234 13.548 13.2234 12.1634C13.2234 10.7788 14.1949 9.77666 15.5311 9.77666C15.8723 9.78736 16.2079 9.86723 16.5173 10.0114C16.8268 10.1556 17.1037 10.3612 17.3314 10.6156L17.3671 10.6513L18.2264 9.60837L18.2034 9.58286C17.8918 9.18486 17.4923 8.8643 17.0363 8.64623C16.5802 8.42816 16.0799 8.31847 15.5745 8.32574C14.5724 8.30385 13.5989 8.66081 12.8486 9.32531C12.1067 10.0843 11.6914 11.1034 11.6914 12.1647C11.6914 13.2259 12.1067 14.2451 12.8486 15.004C13.5983 15.6696 14.5722 16.0268 15.5745 16.0036C16.0796 16.0108 16.5797 15.9013 17.0356 15.6837C17.4916 15.4661 17.8912 15.1463 18.2034 14.749L18.2264 14.721L17.3671 13.6806Z" fill="#004785"/>
<path d="M20.6157 8.43822H19.0959V15.856H20.6157V8.43822Z" fill="#004785"/>
<path d="M26.5672 14.2392C26.2347 14.4644 25.8464 14.5932 25.4453 14.6115C24.9531 14.6115 24.7338 14.3565 24.7338 13.7751V9.84055H26.2816V8.44319H24.7338V6.13548L23.2421 6.93108V8.44319H21.9671V9.84055H23.2421V14.0275C23.2421 15.1674 23.9178 15.9451 24.9276 15.9655C25.4011 15.9901 25.871 15.872 26.2765 15.6264H26.2918L26.6692 14.1907L26.5672 14.2392Z" fill="#004785"/>
<path d="M29.3441 8.43822H27.8244V15.856H29.3441V8.43822Z" fill="#004785"/>
<path d="M30.2391 7.13531C29.5589 6.16572 28.6552 5.37422 27.6044 4.8278C26.5535 4.28137 25.3866 3.99609 24.2022 3.99609C23.0178 3.99609 21.8508 4.28137 20.8 4.8278C19.7491 5.37422 18.8454 6.16572 18.1652 7.13531L18.0938 7.23475H19.8405L19.8609 7.21436C20.4181 6.6218 21.0907 6.14957 21.8374 5.82679C22.584 5.50401 23.3888 5.33749 24.2022 5.33749C25.0156 5.33749 25.8203 5.50401 26.567 5.82679C27.3136 6.14957 27.9862 6.6218 28.5434 7.21436L28.5638 7.23475H30.3105L30.2391 7.13531Z" fill="#ED1C2E"/>
</svg>
