<svg width="42" height="20" viewBox="0 0 42 20" fill="none" xmlns="http://www.w3.org/2000/svg">
<g clip-path="url(#clip0_2166_11109)">
<path d="M28.9695 9.99816C28.9702 11.5811 28.5014 13.1287 27.6225 14.4451C26.7435 15.7616 25.4938 16.7878 24.0315 17.3939C22.5692 18 20.96 18.1587 19.4075 17.8501C17.8549 17.5415 16.4288 16.7793 15.3095 15.66C14.1902 14.5407 13.428 13.1146 13.1194 11.562C12.8108 10.0095 12.9695 8.40026 13.5756 6.93797C14.1817 5.47568 15.2079 4.22599 16.5244 3.34702C17.8408 2.46805 19.3884 1.99927 20.9713 2C23.0923 2.00097 25.1261 2.84395 26.6258 4.34368C28.1255 5.84342 28.9685 7.87722 28.9695 9.99816Z" fill="white"/>
<path d="M20.9707 17.6183C22.4778 17.6183 23.9511 17.1713 25.2042 16.334C26.4573 15.4967 27.434 14.3066 28.0107 12.9142C28.5875 11.5218 28.7384 9.9897 28.4444 8.51154C28.1503 7.03339 27.4246 5.67562 26.3589 4.60993C25.2932 3.54424 23.9354 2.8185 22.4573 2.52447C20.9791 2.23045 19.447 2.38135 18.0546 2.9581C16.6622 3.53485 15.4721 4.51154 14.6348 5.76465C13.7975 7.01777 13.3506 8.49104 13.3506 9.99815C13.3506 12.0191 14.1534 13.9573 15.5825 15.3864C17.0115 16.8154 18.9497 17.6183 20.9707 17.6183V17.6183Z" fill="#0083CA"/>
<mask id="mask0_2166_11109" style="mask-type:alpha" maskUnits="userSpaceOnUse" x="13" y="2" width="16" height="16">
<path d="M20.9707 17.6183C22.4778 17.6183 23.9511 17.1713 25.2042 16.334C26.4573 15.4967 27.434 14.3066 28.0107 12.9142C28.5875 11.5218 28.7384 9.9897 28.4444 8.51154C28.1503 7.03339 27.4246 5.67562 26.3589 4.60993C25.2932 3.54424 23.9354 2.8185 22.4573 2.52447C20.9791 2.23045 19.447 2.38135 18.0546 2.9581C16.6622 3.53485 15.4721 4.51154 14.6348 5.76465C13.7975 7.01777 13.3506 8.49104 13.3506 9.99815C13.3506 12.0191 14.1534 13.9573 15.5825 15.3864C17.0115 16.8154 18.9497 17.6183 20.9707 17.6183V17.6183Z" fill="#0083CA"/>
</mask>
<g mask="url(#mask0_2166_11109)">
<path d="M20.9967 13.6797C24.3442 13.6797 27.2146 14.612 28.4442 15.9334C28.8695 14.9612 29.0882 13.9113 29.0866 12.8502C29.0866 10.7056 28.2346 8.64879 26.7182 7.13233C25.2017 5.61586 23.1449 4.76392 21.0003 4.76392C18.8557 4.76392 16.799 5.61586 15.2825 7.13233C13.766 8.64879 12.9141 10.7056 12.9141 12.8502C12.9125 13.9109 13.13 14.9606 13.5528 15.9334C14.7787 14.612 17.6454 13.6797 20.9967 13.6797Z" fill="#0083CA"/>
<path d="M20.9967 13.6874C24.3369 13.6874 27.1999 14.6124 28.4259 15.9264C28.8482 14.9612 29.0657 13.9188 29.0646 12.8652C29.0646 8.53024 25.4491 5.0065 20.9893 5.0065C16.5296 5.0065 12.9141 8.53024 12.9141 12.8652C12.9126 13.9188 13.1301 14.9613 13.5528 15.9264C14.7934 14.6124 17.6454 13.6874 20.9967 13.6874Z" fill="#0085CB"/>
<path d="M20.9967 13.6944C24.3259 13.6944 27.1816 14.6157 28.4039 15.9151C28.8257 14.9587 29.0432 13.9248 29.0426 12.8795C29.0426 8.57763 25.4344 5.07224 20.9967 5.07224C16.559 5.07224 12.9508 8.58131 12.9508 12.8795C12.9493 13.9249 13.1668 14.959 13.5895 15.9151C14.8081 14.6157 17.6638 13.6944 20.9967 13.6944Z" fill="#0086CC"/>
<path d="M20.993 13.7054C24.3149 13.7054 27.1669 14.6157 28.3855 15.9078C28.8054 14.965 29.0229 13.9446 29.0242 12.9126C29.0242 8.64738 25.4271 5.15666 20.9967 5.15666C16.5663 5.15666 12.9765 8.64738 12.9765 12.9126C12.9741 13.9494 13.1905 14.975 13.6115 15.9224C14.8228 14.6157 17.6712 13.7054 20.993 13.7054Z" fill="#0088CC"/>
<path d="M20.993 13.7128C24.2965 13.7128 27.1486 14.6157 28.3635 15.8967C28.7837 14.9581 29.0002 13.941 28.9985 12.9126C28.9985 8.68041 25.4124 5.20438 20.993 5.20438C16.5737 5.20438 12.9912 8.67674 12.9912 12.9126C12.9897 13.9406 13.2048 14.9574 13.6225 15.8967C14.8375 14.6157 17.6785 13.7128 20.993 13.7128Z" fill="#0089CD"/>
<path d="M20.993 13.7201C24.2965 13.7201 27.1302 14.6157 28.3342 15.8857C28.7514 14.9553 28.9665 13.947 28.9655 12.9273C28.9655 8.72812 25.3867 5.27412 20.982 5.27412C16.5773 5.27412 13.0022 8.73179 13.0022 12.9273C13.0013 13.9465 13.2152 14.9546 13.6299 15.8857C14.8522 14.6157 17.6895 13.7201 20.993 13.7201Z" fill="#008BCE"/>
<path d="M20.993 13.7311C24.2965 13.7311 27.1155 14.6157 28.3341 15.8784C28.7509 14.9556 28.9661 13.9545 28.9655 12.9419C28.9655 8.77952 25.3977 5.34387 21.004 5.34387C16.6104 5.34387 13.0426 8.77952 13.0426 12.9419C13.0421 13.9541 13.2561 14.9549 13.6702 15.8784C14.8668 14.6157 17.6968 13.7311 20.993 13.7311Z" fill="#008DCF"/>
<path d="M20.9893 13.7385C24.2929 13.7385 27.0972 14.6194 28.3048 15.8674C28.7186 14.9528 28.9326 13.9605 28.9325 12.9566C28.9325 8.8309 25.3757 5.40993 20.9893 5.40993C16.603 5.40993 13.0499 8.8309 13.0499 12.9566C13.0494 13.9605 13.2634 14.9529 13.6776 15.8674C14.8815 14.6194 17.7042 13.7385 20.9893 13.7385Z" fill="#008ED0"/>
<path d="M20.9893 13.7458C24.2672 13.7458 27.0825 14.6194 28.2828 15.8564C28.6986 14.9515 28.9127 13.9671 28.9104 12.9713C28.9104 8.87862 25.361 5.47968 20.9893 5.47968C16.6177 5.47968 13.0719 8.88229 13.0719 12.9713C13.0699 13.9667 13.2827 14.9508 13.6959 15.8564C14.8962 14.6194 17.7115 13.7458 20.9893 13.7458Z" fill="#0090D0"/>
<path d="M20.9893 13.7568C24.2561 13.7568 27.0641 14.6194 28.2644 15.849C28.6768 14.951 28.8897 13.9742 28.8884 12.986C28.8884 8.94836 25.35 5.54574 20.9893 5.54574C16.6287 5.54574 13.0903 8.93001 13.0903 12.986C13.0904 13.9741 13.3032 14.9505 13.7143 15.849C14.9146 14.6194 17.7189 13.7568 20.9893 13.7568Z" fill="#0092D1"/>
<path d="M20.9893 13.7641C24.2488 13.7641 27.0458 14.6194 28.2461 15.838C28.6563 14.9483 28.8692 13.9804 28.8701 13.0007C28.8701 8.96304 25.339 5.61182 20.9893 5.61182C16.6397 5.61182 13.1086 8.9814 13.1086 13.0007C13.1087 13.9805 13.3216 14.9486 13.7326 15.838C14.9292 14.6194 17.7262 13.7641 20.9893 13.7641Z" fill="#0093D2"/>
<path d="M20.9857 13.7715C24.2378 13.7715 27.0311 14.6231 28.224 15.827C28.6346 14.9465 28.8475 13.9869 28.848 13.0153C28.848 9.02911 25.3243 5.67421 20.9857 5.67421C16.6471 5.67421 13.1307 9.02544 13.1307 13.0153C13.1296 13.9866 13.3413 14.9464 13.751 15.827C14.9439 14.6231 17.7336 13.7715 20.9857 13.7715Z" fill="#0095D3"/>
<path d="M20.9857 13.7825C24.2268 13.7825 27.0127 14.6231 28.2057 15.8197C28.6146 14.9466 28.8264 13.9942 28.826 13.03C28.826 9.0805 25.3133 5.74762 20.9857 5.74762C16.6581 5.74762 13.149 9.0805 13.149 13.03C13.1479 13.9942 13.3597 14.9468 13.7693 15.8197C14.9586 14.6231 17.7409 13.7825 20.9857 13.7825Z" fill="#0097D4"/>
<path d="M20.9857 13.7898C24.2195 13.7898 26.9981 14.6231 28.1837 15.8087C28.5921 14.9458 28.8039 14.003 28.804 13.0484C28.804 9.13189 25.3023 5.81737 20.9857 5.81737C16.6691 5.81737 13.1674 9.12088 13.1674 13.0484C13.1671 14.0031 13.3789 14.9459 13.7877 15.8087C14.9733 14.6231 17.7482 13.7898 20.9857 13.7898Z" fill="#0098D5"/>
<path d="M20.982 13.7972C24.2084 13.7972 26.9797 14.6231 28.1653 15.7976C28.5707 14.943 28.7813 14.009 28.782 13.0631C28.782 9.17961 25.2876 5.88344 20.982 5.88344C16.6764 5.88344 13.1894 9.18695 13.1894 13.0631C13.1892 14.0091 13.3998 14.9433 13.8061 15.7976C14.988 14.6231 17.7556 13.7972 20.982 13.7972Z" fill="#009AD5"/>
<path d="M20.982 13.8045C24.1974 13.8045 26.9614 14.6267 28.1433 15.7903C28.5482 14.9433 28.7589 14.0166 28.7599 13.0777C28.7599 9.23099 25.2766 5.95318 20.982 5.95318C16.6874 5.95318 13.2077 9.23099 13.2077 13.0777C13.208 14.0167 13.4187 14.9436 13.8244 15.7903C15.0027 14.6267 17.7629 13.8045 20.982 13.8045Z" fill="#009CD6"/>
<path d="M20.982 13.8155C24.1901 13.8155 26.9467 14.6267 28.1249 15.7793C28.5269 14.9405 28.7364 14.0225 28.7379 13.0924C28.7379 9.28238 25.2619 6.01925 20.982 6.01925C16.7021 6.01925 13.2408 9.28238 13.2408 13.0924C13.2415 14.0231 13.4522 14.9415 13.8574 15.7793C15.0173 14.6267 17.7703 13.8155 20.982 13.8155Z" fill="#009ED7"/>
<path d="M20.982 13.8229C24.1791 13.8229 26.9283 14.6267 28.1029 15.7683C28.5064 14.9392 28.7161 14.0292 28.7159 13.1071C28.7159 9.3301 25.2509 6.08532 20.982 6.08532C16.7131 6.08532 13.2408 9.3301 13.2408 13.1071C13.2397 14.0293 13.4494 14.9395 13.8538 15.7683C15.032 14.6267 17.7776 13.8229 20.982 13.8229Z" fill="#00A0D8"/>
<path d="M20.9783 13.8302C24.1681 13.8302 26.9136 14.6267 28.0846 15.7609C28.4851 14.9388 28.6935 14.0363 28.6939 13.1218C28.6939 9.38149 25.2399 6.14772 20.9857 6.14772C16.7315 6.14772 13.2775 9.37415 13.2775 13.1218C13.2775 14.0364 13.4859 14.9389 13.8868 15.7609C15.0467 14.6267 17.7849 13.8302 20.9783 13.8302Z" fill="#00A1D9"/>
<path d="M20.9783 13.8412C24.1607 13.8412 26.8953 14.6304 28.0625 15.7499C28.463 14.9369 28.6714 14.0428 28.6718 13.1365C28.6718 9.43288 25.2252 6.22113 20.9637 6.22113C16.7021 6.22113 13.2555 9.43288 13.2555 13.1365C13.2572 14.0426 13.4656 14.9365 13.8648 15.7499C15.0761 14.6304 17.7959 13.8412 20.9783 13.8412Z" fill="#00A3DA"/>
<path d="M20.9783 13.8486C24.1497 13.8486 26.8769 14.6304 28.0442 15.7389C28.4405 14.9401 28.649 14.0612 28.6535 13.1695C28.6535 9.49894 25.2142 6.30922 20.9783 6.30922C16.7425 6.30922 13.3069 9.49894 13.3069 13.1695C13.3101 14.061 13.5173 14.9399 13.9125 15.7389C15.0761 14.6304 17.8033 13.8486 20.9783 13.8486Z" fill="#00A5DB"/>
<path d="M20.9783 13.8559C24.1387 13.8559 26.8512 14.6304 28.0221 15.7316C28.4225 14.9342 28.6312 14.0544 28.6315 13.1622C28.6315 9.52831 25.2032 6.35327 20.9783 6.35327C16.7535 6.35327 13.3252 9.52831 13.3252 13.1622C13.3252 14.054 13.5325 14.9336 13.9309 15.7316C15.0761 14.6304 17.8106 13.8559 20.9783 13.8559Z" fill="#00A7DC"/>
<path d="M20.9747 13.8669C24.1314 13.8669 26.8476 14.6304 28.0038 15.7206C28.4006 14.9339 28.608 14.0653 28.6094 13.1842C28.6094 9.58337 25.1885 6.42668 20.9747 6.42668C16.7609 6.42668 13.3472 9.58337 13.3472 13.1842C13.3474 14.065 13.5535 14.9336 13.9492 15.7206C15.1054 14.6304 17.818 13.8669 20.9747 13.8669Z" fill="#00A9DD"/>
<path d="M20.9747 13.8743C24.1203 13.8743 26.8292 14.6341 27.9818 15.7095C28.3785 14.932 28.5861 14.0718 28.5874 13.1989C28.5874 9.63109 25.1775 6.49275 20.9747 6.49275C16.7719 6.49275 13.3656 9.63109 13.3656 13.1989C13.367 14.0713 13.5732 14.9313 13.9676 15.7095C15.1201 14.6341 17.8253 13.8743 20.9747 13.8743Z" fill="#00ABDE"/>
<path d="M20.9747 13.8816C24.113 13.8816 26.8109 14.6341 27.9487 15.7169C28.3422 14.9462 28.5484 14.0936 28.5507 13.2282C28.5507 9.69716 25.1518 6.57718 20.96 6.57718C16.7682 6.57718 13.3693 9.69716 13.3693 13.2282C13.375 14.0889 13.5824 14.9362 13.9749 15.7022C15.1385 14.6341 17.8327 13.8816 20.9747 13.8816Z" fill="#00ADDE"/>
<path d="M20.971 13.8889C24.102 13.8889 26.7925 14.6231 27.9451 15.6912C28.34 14.9302 28.5464 14.0856 28.547 13.2282C28.547 9.73386 25.1554 6.62122 20.9747 6.62122C16.7939 6.62122 13.4096 9.72652 13.4096 13.2282C13.4104 14.0851 13.6155 14.9295 14.0079 15.6912C15.1531 14.6341 17.84 13.8889 20.971 13.8889Z" fill="#00AFDF"/>
<path d="M20.971 13.9C24.091 13.9 26.7778 14.6341 27.923 15.6802C28.315 14.9275 28.5202 14.0916 28.5214 13.2429C28.5214 9.78158 25.1408 6.69463 20.971 6.69463C16.8012 6.69463 13.4243 9.78158 13.4243 13.2429C13.425 14.0916 13.6303 14.9276 14.0226 15.6802C15.1678 14.6341 17.8473 13.9 20.971 13.9Z" fill="#00B1E0"/>
<path d="M20.971 13.9073C24.0836 13.9073 26.7595 14.6414 27.901 15.6728C28.2928 14.928 28.4981 14.0992 28.4993 13.2576C28.4993 9.83297 25.1297 6.76437 20.971 6.76437C16.8122 6.76437 13.4427 9.83297 13.4427 13.2576C13.4435 14.0993 13.6488 14.9281 14.041 15.6728C15.1825 14.6377 17.8547 13.9073 20.971 13.9073Z" fill="#00B3E1"/>
<path d="M20.971 13.9146C24.0726 13.9146 26.7448 14.6488 27.8827 15.6618C28.2716 14.9253 28.4757 14.1052 28.4773 13.2723C28.4773 9.88068 25.1151 6.83044 20.971 6.83044C16.8269 6.83044 13.4647 9.88435 13.4647 13.2723C13.4663 14.1052 13.6704 14.9253 14.0593 15.6618C15.1972 14.6377 17.862 13.9146 20.971 13.9146Z" fill="#0DB5E2"/>
<path d="M20.9673 13.9256C24.0616 13.9256 26.7264 14.6377 27.8606 15.6508C28.2493 14.9234 28.4535 14.1117 28.4553 13.287C28.4553 9.93207 25.104 6.90018 20.9673 6.90018C16.8306 6.90018 13.483 9.93207 13.483 13.287C13.4848 14.1117 13.689 14.9234 14.0777 15.6508C15.2119 14.6377 17.8694 13.9256 20.9673 13.9256Z" fill="#19B7E3"/>
<path d="M20.9673 13.933C24.0543 13.933 26.7081 14.6377 27.8423 15.6435C28.23 14.9249 28.4342 14.1218 28.4369 13.3053C28.4369 10.0018 25.093 6.96626 20.9673 6.96626C16.8416 6.96626 13.5014 9.98346 13.5014 13.3053C13.5036 14.1218 13.7079 14.9251 14.096 15.6435C15.2266 14.6377 17.8767 13.933 20.9673 13.933Z" fill="#21B9E4"/>
<path d="M20.9673 13.9403C24.0433 13.9403 26.6934 14.6414 27.8239 15.6325C28.2085 14.9221 28.4115 14.1278 28.4149 13.32C28.4149 10.0165 25.0784 7.036 20.9673 7.036C16.8563 7.036 13.5234 10.0312 13.5234 13.32C13.5251 14.1275 13.7268 14.922 14.1107 15.6325C15.2412 14.6414 17.884 13.9403 20.9673 13.9403Z" fill="#28BBE5"/>
<path d="M20.9673 13.9587C24.0396 13.9587 26.6861 14.6561 27.8129 15.6398C28.1979 14.9349 28.401 14.1452 28.4039 13.342C28.4039 10.0789 25.0747 7.10207 20.9673 7.10207C16.86 7.10207 13.5344 10.0862 13.5344 13.342C13.5356 14.1449 13.7375 14.9348 14.1217 15.6398C15.2486 14.6561 17.8914 13.9587 20.9673 13.9587Z" fill="#37BDE6"/>
<path d="M20.9673 13.9807C24.0359 13.9807 26.6787 14.6708 27.8019 15.6508C28.1874 14.9501 28.3906 14.1638 28.3929 13.3641C28.3929 10.1229 25.0673 7.15713 20.9673 7.15713C16.8673 7.15713 13.5418 10.1229 13.5418 13.3641C13.5457 14.1631 13.7475 14.9488 14.1291 15.6508C15.2559 14.6708 17.8951 13.9807 20.9673 13.9807Z" fill="#43BFE6"/>
<path d="M20.9673 14.0137C24.0322 14.0137 26.6677 14.7001 27.7946 15.6728C28.1773 14.9778 28.3792 14.1978 28.3819 13.4044C28.3819 10.1817 25.0784 7.23421 20.9673 7.23421C16.8563 7.23421 13.5528 10.1707 13.5528 13.4044C13.5549 14.1979 13.7569 14.978 14.1401 15.6728C15.2633 14.6855 17.8987 14.0137 20.9673 14.0137Z" fill="#4DC0E7"/>
<path d="M20.9673 14.0137C24.0286 14.0137 26.6604 14.6965 27.7836 15.6618C28.1678 14.9726 28.3712 14.1972 28.3745 13.4081C28.3745 10.2074 25.071 7.27825 20.9673 7.27825C16.8636 7.27825 13.5638 10.2147 13.5638 13.4081C13.5665 14.1964 13.7672 14.9713 14.1474 15.6618C15.2706 14.7001 17.9024 14.0137 20.9673 14.0137Z" fill="#56C2E8"/>
<path d="M20.9673 14.0394C24.0249 14.0394 26.653 14.7148 27.7762 15.6728C28.1571 14.9891 28.3591 14.2202 28.3635 13.4375C28.3635 10.2587 25.06 7.34432 20.9673 7.34432C16.8746 7.34432 13.5748 10.2587 13.5748 13.4375C13.5758 14.2201 13.7767 14.9896 14.1584 15.6728C15.2779 14.7148 17.9061 14.0394 20.9673 14.0394Z" fill="#5EC4E8"/>
<path d="M20.9673 14.0578C24.0176 14.0578 26.6457 14.7295 27.7652 15.6839C28.1476 15.0047 28.3498 14.2389 28.3525 13.4595C28.3525 10.3028 25.049 7.40672 20.9673 7.40672C16.8857 7.40672 13.5821 10.3028 13.5821 13.4595C13.5853 14.2384 13.7862 15.0037 14.1658 15.6839C15.289 14.7479 17.9097 14.0578 20.9673 14.0578Z" fill="#65C6E9"/>
<path d="M20.9673 14.0761C24.0139 14.0761 26.6383 14.7442 27.7579 15.6912C28.1361 15.0185 28.337 14.2606 28.3415 13.4889C28.3415 10.3542 25.038 7.47646 20.9673 7.47646C16.8967 7.47646 13.6078 10.3432 13.6078 13.4815C13.6119 14.2533 13.8128 15.0113 14.1915 15.6839C15.2963 14.7479 17.9171 14.0761 20.9673 14.0761Z" fill="#6DC7EA"/>
<path d="M20.9673 14.0945C24.0102 14.0945 26.631 14.7589 27.7469 15.6985C28.128 15.027 28.3291 14.2683 28.3305 13.4962C28.3305 10.3799 25.027 7.52051 20.9673 7.52051C16.9077 7.52051 13.6078 10.3909 13.6078 13.5072C13.608 14.279 13.8077 15.0377 14.1878 15.7095C15.3036 14.7479 17.9208 14.0945 20.9673 14.0945Z" fill="#74C9EA"/>
<path d="M20.9673 14.1165C24.0065 14.1165 26.6237 14.7735 27.7395 15.7095C28.1167 15.0444 28.3176 14.2939 28.3231 13.5292C28.3231 10.4349 25.0196 7.59392 20.982 7.59392C16.9444 7.59392 13.6409 10.4386 13.6409 13.5292C13.643 14.2938 13.8428 15.0449 14.2208 15.7095C15.311 14.7735 17.9244 14.1165 20.9673 14.1165Z" fill="#7ACBEB"/>
<path d="M20.9673 14.1349C24.0029 14.1349 26.6163 14.7882 27.7285 15.7169C28.1071 15.059 28.3083 14.314 28.3121 13.5549C28.3121 10.4827 25.0086 7.65632 20.971 7.65632C16.9334 7.65632 13.6299 10.4827 13.6299 13.5549C13.6338 14.3135 13.8336 15.0582 14.2098 15.7169C15.3183 14.7882 17.9281 14.1349 20.9673 14.1349Z" fill="#81CDEC"/>
<path d="M20.9673 14.1532C23.9992 14.1532 26.609 14.8029 27.7212 15.7242C28.097 15.0707 28.2968 14.3308 28.3011 13.5769C28.3011 10.5267 25.016 7.70404 20.96 7.70404C16.904 7.70404 13.6189 10.5157 13.6189 13.5769C13.6209 14.3311 13.8209 15.0715 14.1988 15.7242C15.3257 14.8029 17.9318 14.1532 20.9673 14.1532Z" fill="#87CFEC"/>
<path d="M20.9673 14.1752C23.9955 14.1752 26.598 14.8176 27.7102 15.7316C28.0862 15.0835 28.2861 14.3483 28.2901 13.599C28.2901 10.5707 25.0086 7.77745 20.9673 7.77745C16.926 7.77745 13.6445 10.5707 13.6445 13.599C13.6472 14.3479 13.8459 15.0832 14.2208 15.7316C15.333 14.8176 17.9354 14.1752 20.9673 14.1752Z" fill="#8ED1ED"/>
<path d="M20.9673 14.1936C23.9919 14.1936 26.5906 14.8323 27.7028 15.7426C28.0778 15.0994 28.2778 14.3692 28.2828 13.6247C28.2828 10.6148 25.0049 7.83985 20.9673 7.83985C16.9297 7.83985 13.6556 10.6185 13.6556 13.6247C13.6587 14.3689 13.8575 15.0993 14.2318 15.7426C15.3404 14.8323 17.9428 14.1936 20.9673 14.1936Z" fill="#94D3EE"/>
<path d="M20.9673 14.212C23.9882 14.212 26.5833 14.847 27.6918 15.7499C28.0736 15.1141 28.2801 14.3883 28.2901 13.6467C28.2901 10.6588 25.016 7.90225 20.9857 7.90225C16.9554 7.90225 13.6813 10.6625 13.6813 13.6467C13.6844 14.3863 13.8832 15.112 14.2575 15.7499C15.3477 14.847 17.9464 14.212 20.9673 14.212Z" fill="#9AD5EF"/>
<path d="M20.9673 14.2303C23.9845 14.2303 26.576 14.8616 27.6808 15.7573C28.0555 15.126 28.2557 14.4065 28.2607 13.6724C28.2607 10.7066 24.9939 7.96465 20.9673 7.96465C16.9407 7.96465 13.6739 10.7066 13.6739 13.6724C13.6772 14.4062 13.8761 15.1259 14.2502 15.7573C15.355 14.8616 17.9501 14.2303 20.9673 14.2303Z" fill="#A0D7F0"/>
<path d="M20.9673 14.2523C23.9809 14.2523 26.5686 14.8763 27.6735 15.7646C28.0457 15.1378 28.2446 14.4234 28.2497 13.6944C28.2497 10.758 24.9866 8.02705 20.9673 8.02705C16.948 8.02705 13.6849 10.7506 13.6849 13.6944C13.687 14.4233 13.8848 15.1382 14.2575 15.7646C15.3624 14.8763 17.9538 14.2523 20.9673 14.2523Z" fill="#A6D9F0"/>
<path d="M20.9673 14.2707C23.9772 14.2707 26.5613 14.891 27.6624 15.7756C28.0374 15.1539 28.2377 14.4425 28.2424 13.7164C28.2424 10.78 24.9829 8.08945 20.9673 8.08945C16.9517 8.08945 13.6959 10.7983 13.6959 13.7164C13.6984 14.4418 13.8962 15.1531 14.2685 15.7756C15.3697 14.891 17.9575 14.2707 20.9673 14.2707Z" fill="#ACDCF1"/>
<path d="M20.9673 14.289C23.9698 14.289 26.5539 14.9057 27.6551 15.783C28.0266 15.1666 28.2256 14.4617 28.2314 13.7421C28.2314 10.8387 24.9756 8.15185 20.9673 8.15185C16.9591 8.15185 13.7069 10.8424 13.7069 13.7421C13.7101 14.4611 13.9066 15.166 14.2759 15.783C15.3807 14.9057 17.9611 14.289 20.9673 14.289Z" fill="#B2DEF2"/>
<path d="M20.9673 14.3074C23.9662 14.3074 26.5466 14.9204 27.6441 15.7756C28.0156 15.1646 28.2147 14.4645 28.2204 13.7495C28.2204 10.8717 24.9682 8.19957 20.9673 8.19957C16.9664 8.19957 13.7143 10.8717 13.7143 13.7495C13.7164 14.4645 13.9145 15.1652 14.2869 15.7756C15.3881 14.9204 17.9685 14.3074 20.9673 14.3074Z" fill="#B8E0F3"/>
<path d="M20.9673 14.3294C23.9625 14.3294 26.5392 14.9351 27.6367 15.7976C28.0059 15.1912 28.2038 14.4961 28.2094 13.7862C28.2094 10.9268 24.9646 8.28032 20.9673 8.28032C16.9701 8.28032 13.7253 10.9341 13.7253 13.7862C13.7285 14.4964 13.9265 15.1922 14.2979 15.7976C15.3954 14.9351 17.9721 14.3294 20.9673 14.3294Z" fill="#BDE2F4"/>
<path d="M20.9673 14.3478C23.9588 14.3478 26.5319 14.9497 27.6257 15.816C27.9952 15.2151 28.1933 14.5246 28.1983 13.8192C28.1983 10.9819 24.9572 8.34272 20.9673 8.34272C16.9774 8.34272 13.7363 10.9855 13.7363 13.8192C13.7395 14.5243 13.9363 15.215 14.3052 15.816C15.4027 14.9497 17.9758 14.3478 20.9673 14.3478Z" fill="#C3E5F5"/>
<path d="M20.9673 14.3808C23.9552 14.3808 26.5209 14.9791 27.6184 15.8307C27.9862 15.2344 28.1842 14.5491 28.191 13.8486C28.191 11.0332 24.9536 8.41246 20.9673 8.41246C16.9811 8.41246 13.7473 11.0369 13.7473 13.8486C13.7493 14.5488 13.9449 15.2348 14.3126 15.8307C15.4101 14.9644 17.9795 14.3808 20.9673 14.3808Z" fill="#C9E7F5"/>
<path d="M20.9673 14.3808C23.9515 14.3808 26.5136 14.9718 27.6074 15.816C27.9749 15.2264 28.173 14.547 28.18 13.8522C28.18 11.0553 24.9462 8.45284 20.9673 8.45284C16.9884 8.45284 13.7547 11.0773 13.7547 13.8596C13.7581 14.5543 13.9551 15.2344 14.3236 15.8233C15.4174 14.9791 17.9832 14.3808 20.9673 14.3808Z" fill="#CEE9F6"/>
<path d="M20.9673 14.4065C23.9478 14.4065 26.5062 14.9938 27.6 15.8343C27.9659 15.2482 28.1628 14.5725 28.169 13.8816C28.169 11.1103 24.9425 8.52257 20.9673 8.52257C16.9921 8.52257 13.7657 11.1103 13.7657 13.8816C13.7688 14.5786 13.9686 15.2605 14.342 15.849C15.4431 14.9938 17.9868 14.4065 20.9673 14.4065Z" fill="#D4ECF7"/>
<path d="M20.9673 14.4248C23.9441 14.4248 26.4989 15.0085 27.5743 15.8417C27.9408 15.2626 28.1379 14.5926 28.1433 13.9073C28.1433 11.1544 24.9205 8.58498 20.9526 8.58498C16.9848 8.58498 13.762 11.1544 13.762 13.9073C13.7677 14.5964 13.9688 15.2697 14.342 15.849C15.4431 15.0085 18.0125 14.4248 20.9673 14.4248Z" fill="#DAEEF8"/>
<path d="M20.9673 14.4432C23.9405 14.4432 26.4915 15.0231 27.5743 15.849C27.9409 15.2752 28.1393 14.6102 28.1469 13.9293C28.1469 11.1984 24.9242 8.64738 20.9637 8.64738C17.0031 8.64738 13.784 11.2168 13.784 13.9293C13.7867 14.6088 13.98 15.274 14.342 15.849C15.4431 15.0231 18.0125 14.4432 20.9673 14.4432Z" fill="#DFF1F9"/>
<path d="M20.9673 14.4652C23.9368 14.4652 26.4732 15.0378 27.5743 15.8564C27.9401 15.2878 28.1374 14.6273 28.1433 13.9513C28.1433 11.2425 24.9279 8.70977 20.971 8.70977C17.0141 8.70977 13.7987 11.2461 13.7987 13.9513C13.8015 14.6273 13.9976 15.2883 14.364 15.8564C15.4431 15.0378 18.0125 14.4652 20.9673 14.4652Z" fill="#E5F3FA"/>
<path d="M20.9673 14.4836C23.9331 14.4836 26.4732 15.0525 27.5743 15.8674C27.9389 15.3037 28.1362 14.6483 28.1433 13.977C28.1433 11.2902 24.9315 8.77217 20.982 8.77217C17.0325 8.77217 13.8207 11.2902 13.8207 13.977C13.8252 14.6476 14.02 15.3031 14.3823 15.8674C15.4431 15.0525 18.0125 14.4836 20.9673 14.4836Z" fill="#EBF6FB"/>
<path d="M20.9673 14.5019C23.9295 14.5019 26.4732 15.0672 27.5523 15.8747C27.9144 15.3156 28.1104 14.6652 28.1176 13.9991C28.1176 11.3342 24.9132 8.83457 20.9673 8.83457C17.0215 8.83457 13.8171 11.3342 13.8171 14.0137C13.8211 14.6798 14.016 15.3307 14.3787 15.8894C15.4615 15.0672 18.0125 14.5019 20.9673 14.5019Z" fill="#F1F8FD"/>
<path d="M20.9673 14.5203C23.9258 14.5203 26.4732 15.0819 27.5413 15.8821C27.9064 15.327 28.1027 14.6781 28.1066 14.0137C28.1066 11.3673 24.9058 8.87495 20.9673 8.87495C17.0288 8.87495 13.8281 11.3599 13.8281 14.0137C13.8314 14.6736 14.0251 15.3185 14.386 15.871C15.4725 15.0819 18.0125 14.5203 20.9673 14.5203Z" fill="#F7FBFE"/>
<path d="M20.9673 14.5423C23.9038 14.5423 26.4511 15.0966 27.534 15.8931C27.8932 15.3476 28.0893 14.7109 28.0992 14.0578C28.0992 11.4333 24.9022 8.97038 20.9673 8.97038C17.0325 8.97038 13.8354 11.437 13.8354 14.0578C13.8422 14.7108 14.0372 15.3481 14.397 15.8931C15.4798 15.1149 18.0125 14.5423 20.9673 14.5423Z" fill="white"/>
<path d="M20.9672 11.9216C18.5915 11.8997 16.2306 12.2973 13.9932 13.0962C14.5924 14.4419 15.5688 15.5851 16.8043 16.3874C18.0397 17.1897 19.4813 17.6167 20.9544 17.6167C22.4275 17.6167 23.8691 17.1897 25.1045 16.3874C26.34 15.5851 27.3164 14.4419 27.9156 13.0962C25.6865 12.2992 23.3344 11.9016 20.9672 11.9216V11.9216Z" fill="#0083CA"/>
</g>
</g>
<defs>
<clipPath id="clip0_2166_11109">
<rect width="16.1725" height="16" fill="white" transform="translate(12.9141 2)"/>
</clipPath>
</defs>
</svg>
