<svg width="42" height="20" viewBox="0 0 42 20" fill="none" xmlns="http://www.w3.org/2000/svg">
<path d="M8.54218 9.96185C8.53222 9.96496 8.52351 9.97117 8.51733 9.97957C8.51115 9.98798 8.50781 9.99815 8.50781 10.0086C8.50781 10.019 8.51115 10.0292 8.51733 10.0376C8.52351 10.046 8.53222 10.0522 8.54218 10.0553L12.3968 12.6013L13.5006 7.40696L8.54218 9.96185Z" fill="#E72511"/>
<path d="M31.3849 7.4025H30.4057C30.3455 7.40622 30.2866 7.42132 30.2321 7.44701L25.3359 9.9663C25.2914 9.9663 25.287 10.0286 25.3359 10.0598L29.1238 12.5524C29.1757 12.5814 29.2335 12.5982 29.2929 12.6013H30.2677C30.3211 12.6013 30.3256 12.6013 30.2677 12.5524L26.3953 10.0064L31.3849 7.44701C31.425 7.42476 31.4205 7.4025 31.3849 7.4025Z" fill="#F08300"/>
<path d="M29.2796 7.4025H22.4828L21.379 12.6013H28.1668C28.2202 12.6013 28.2247 12.6013 28.1668 12.5524L24.3033 10.0064L29.2662 7.44701C29.3374 7.42476 29.333 7.4025 29.2796 7.4025Z" fill="#E72511"/>
<path d="M33.4546 7.4025H32.4799C32.4196 7.40541 32.3605 7.42056 32.3063 7.44701L27.4101 9.9663C27.3656 9.9663 27.3656 10.0286 27.4101 10.0598L31.2024 12.5524C31.2525 12.5819 31.309 12.5987 31.3671 12.6013H32.3463C32.3953 12.6013 32.4042 12.6013 32.3463 12.5524L28.4784 10.0064L33.4457 7.44701C33.5081 7.42476 33.5036 7.4025 33.4546 7.4025Z" fill="#FABE00"/>
<path d="M28.9814 4.0019H12.9932C12.6128 3.98351 12.2379 4.09901 11.9338 4.32833C11.6297 4.55764 11.4155 4.88626 11.3285 5.25708C11.289 5.43328 11.3017 5.61717 11.3649 5.78631C11.4281 5.95545 11.5392 6.10253 11.6846 6.20961L17.4309 10.0019L29.0036 4.0464C29.0348 4.01969 29.0303 4.0019 28.9814 4.0019Z" fill="#E72511"/>
<path d="M26.4443 15.9529L17.4354 10.0019L10.0778 13.7986C9.89196 13.8962 9.72838 14.0312 9.59738 14.1951C9.46637 14.3591 9.37078 14.5484 9.31666 14.7512C9.16532 15.4411 9.55257 16.0019 10.4472 16.0019H26.4354C26.4888 16.0019 26.4888 15.9797 26.4443 15.9529Z" fill="#E72511"/>
</svg>
