<svg width="42" height="20" viewBox="0 0 42 20" fill="none" xmlns="http://www.w3.org/2000/svg">
<path d="M13 13.1397C13 15.8132 14.638 18.0012 20.8404 18.0012H21.1579C27.362 18.0012 28.9983 15.8132 28.9983 13.1397V6.85924C28.9983 4.18408 27.3603 1.99609 21.1579 1.99609H20.8404C14.6363 1.99949 13 4.18748 13 6.85924V13.1397Z" fill="url(#paint0_linear_1296_36070)"/>
<path d="M21.1562 17.9995C21.6026 17.9995 22.0235 17.9876 22.4241 17.9655V15.2581C23.5597 15.2496 25.0823 14.7947 25.7613 13.3265C26.5659 11.5849 25.7732 10.2524 25.0042 9.5921C25.4863 8.98952 25.7868 7.88279 25.3777 6.71495C24.6817 4.72896 22.7042 4.62541 22.032 4.62372H21.1477V17.9927L21.1562 17.9995ZM22.4241 5.99185H22.5939C23.0667 6.01913 23.5113 6.22605 23.8366 6.5703C24.1619 6.91455 24.3434 7.3701 24.3439 7.84375C24.3439 9.12701 23.1354 9.73639 23.0098 9.77882C23.0658 9.77882 24.7377 10.288 24.7377 11.8429C24.7377 13.0396 23.6548 13.907 22.4208 13.907L22.4241 5.99185Z" fill="white"/>
<path d="M18.4929 9.68036C18.1161 9.35446 17.4846 8.68058 17.5135 7.84035C17.5389 7.0799 17.9005 6.49259 18.5082 6.22779C19.0513 5.99015 19.71 5.98675 20.1122 5.98675H20.2056V4.6288H20.136C19.6166 4.6288 18.7577 4.6288 17.9769 4.96829C16.8685 5.45206 16.1827 6.51805 16.1403 7.81659C16.1046 8.85711 16.6172 9.88915 17.5848 10.7226C18.5048 11.517 18.9733 11.977 18.7424 12.9734C18.5489 13.8102 17.2453 14.9322 16.8277 15.2344H18.7102C19.1617 14.8949 19.8984 14.0563 20.08 13.2586C20.5077 11.4185 19.3908 10.4544 18.4929 9.68036Z" fill="white"/>
<defs>
<linearGradient id="paint0_linear_1296_36070" x1="21.0272" y1="7.67519" x2="21.0272" y2="17.9107" gradientUnits="userSpaceOnUse">
<stop stop-color="#92C83E"/>
<stop offset="0.6" stop-color="#009D54"/>
<stop offset="1" stop-color="#007360"/>
</linearGradient>
</defs>
</svg>
