<svg width="42" height="20" viewBox="0 0 42 20" fill="none" xmlns="http://www.w3.org/2000/svg">
<path d="M29 2H13V18H29V2Z" fill="#0091D0"/>
<path d="M13 2L16.9988 6.00117L21 2H13Z" fill="#0091D0"/>
<path d="M13 2V10L16.9988 6.00117L13 2Z" fill="#009AD8"/>
<path d="M21 9.99998L17.0012 5.99881L13 10L21 9.99998Z" fill="#0091D0"/>
<path d="M21 9.99998V2L17.0012 5.99881L21 9.99998Z" fill="#0082C9"/>
<path d="M21 2V9.99998L24.9988 6.00117L21 2Z" fill="#0071BB"/>
<path d="M29 9.99998L25.0012 5.99881L21 9.99998H29Z" fill="#004C98"/>
<path d="M13 10L16.9988 14.0012L21 9.99998L13 10Z" fill="#0082C9"/>
<path d="M13 10V18L16.9988 14.0012L13 10Z" fill="#0071BB"/>
<path d="M21 18L17.0012 13.9988L13 18L21 18Z" fill="#0066B3"/>
<path d="M21 18V9.99998L17.0012 13.9988L21 18Z" fill="#00529C"/>
<path d="M21 9.99998L24.9988 14.0012L29 9.99998H21Z" fill="#1B3281"/>
<path d="M21 9.99998V18L24.9988 14.0012L21 9.99998Z" fill="#004C98"/>
<path d="M29 18L25.0012 13.9988L21 18L29 18Z" fill="#1B3281"/>
<path d="M29 18L29 9.99998L25.0012 13.9988L29 18Z" fill="#1B3281"/>
<path d="M21 2L24.9988 6.00117L29 2H21Z" fill="#0066B3"/>
<path d="M29 9.99998L29 2L25.0012 5.99881L29 9.99998Z" fill="#00529C"/>
<path d="M29 12.0006L23.877 7.12301L16.1037 14.915L18.9386 17.7499L23.877 12.8887L29 17.9837V12.0006Z" fill="white"/>
</svg>
