<svg width="42" height="20" viewBox="0 0 42 20" fill="none" xmlns="http://www.w3.org/2000/svg">
<path d="M29.0103 15.7136C29.0101 16.014 28.9508 16.3114 28.8358 16.5888C28.7207 16.8663 28.5521 17.1183 28.3396 17.3306C28.1271 17.5429 27.8749 17.7113 27.5974 17.8261C27.3198 17.9409 27.0224 17.9998 26.722 17.9997H15.2769C14.6703 17.9999 14.0884 17.7592 13.6592 17.3306C13.23 16.9019 12.9887 16.3203 12.9883 15.7136V4.2854C12.9888 3.67888 13.2302 3.09739 13.6593 2.66881C14.0885 2.24023 14.6703 1.99966 15.2769 2H26.722C27.0223 1.99979 27.3197 2.05874 27.5973 2.17348C27.8748 2.28823 28.127 2.45651 28.3395 2.66874C28.552 2.88096 28.7206 3.13296 28.8357 3.41035C28.9508 3.68774 29.0101 3.98508 29.0103 4.2854V15.7136Z" fill="#FFE400"/>
<path d="M24.4357 11.6004C24.3638 11.0427 24.085 10.5324 23.6545 10.1706C23.5908 10.1146 23.5217 10.0623 23.4452 10.0002C23.5089 9.95242 23.5618 9.91579 23.6112 9.87469C23.921 9.61822 24.1604 9.287 24.3066 8.9123C24.4451 8.558 24.4891 8.17374 24.4341 7.79732C24.3731 7.33944 24.1708 6.91201 23.8552 6.57466C23.6303 6.32424 23.3525 6.12706 23.0419 5.99742C22.7403 5.87529 22.4174 5.81411 22.092 5.81743H18.445C18.4199 5.816 18.3947 5.816 18.3695 5.81743C18.3295 5.81925 18.2918 5.83669 18.2645 5.866C18.2373 5.8953 18.2226 5.93414 18.2236 5.97417C18.2236 5.99965 18.2236 6.02482 18.2236 6.04999V13.9297C18.2236 13.9692 18.2214 14.009 18.2236 14.0486C18.2252 14.0812 18.2382 14.1123 18.2603 14.1363C18.2824 14.1604 18.3123 14.176 18.3447 14.1804C18.3697 14.1835 18.395 14.1844 18.4202 14.1833H22.1971C22.5775 14.1848 22.9513 14.0848 23.2802 13.8937C23.7501 13.6297 24.1128 13.2095 24.3054 12.7061C24.4444 12.3552 24.4893 11.974 24.4357 11.6004ZM21.5332 11.8839H20.8518V8.12481H21.5255C21.5255 8.12481 21.523 8.1229 21.5255 8.1229V8.12481H21.5332V11.8839Z" fill="#1F1E1E"/>
</svg>
