<svg width="42" height="20" viewBox="0 0 42 20" fill="none" xmlns="http://www.w3.org/2000/svg">
<path d="M9.0104 5H6.57102L2.71938 9.47932V5H0.779297V14.7718H2.71938V10.2782L6.69941 14.7718H9.13878L4.80212 9.87875L9.0104 5Z" fill="white"/>
<path d="M41.2215 14.7718L38.2971 11.3909L41.1359 8.00999H39.0389L36.5568 10.9344V5H34.6167V14.7718H36.5568V11.8331L39.0817 14.7718H41.2215Z" fill="white"/>
<path d="M13.7893 7.76748C12.9762 7.76748 12.2772 8.12411 11.7065 8.60913V5H9.75219V11.4337C9.75219 13.3738 11.0361 14.9857 13.4469 14.9857C15.6152 14.9857 17.1416 13.4879 17.1416 11.3909C17.1416 9.40799 15.8292 7.76748 13.7893 7.76748ZM13.4469 13.2311C12.4483 13.2311 11.621 12.4322 11.6067 11.4337C11.6067 11.4194 11.6067 11.4051 11.6067 11.3766C11.6067 11.1626 11.6495 10.9629 11.7065 10.7775C11.9633 10.0499 12.6481 9.53638 13.4612 9.53638C14.4883 9.53638 15.3157 10.3638 15.3157 11.3909C15.3014 12.4037 14.474 13.2311 13.4469 13.2311Z" fill="white"/>
<path d="M30.8792 7.76748C29.9376 7.76748 29.2101 8.10984 28.6395 8.6234V7.98146H26.6994V14.7718H28.6395V10.9629C28.6395 10.1783 29.2814 9.53638 30.066 9.53638C30.8506 9.53638 31.4926 10.1783 31.4926 10.9629V14.7575H33.4469V10.4208C33.4469 10.3923 33.4469 10.3638 33.4469 10.3352C33.4612 8.92297 32.2772 7.76748 30.8792 7.76748Z" fill="white"/>
<path d="M21.7921 7.78174C19.5953 7.78174 18.0546 9.2796 18.0546 11.3766C18.0546 13.3595 19.3813 15 21.4355 15C22.3628 15 23.2472 14.5007 23.7608 13.8302V14.7718H25.5154V11.3766H25.5011C25.5154 11.3481 25.5154 11.3338 25.5154 11.3338C25.5297 9.39372 24.2315 7.78174 21.7921 7.78174ZM21.8349 13.2168C20.8078 13.2168 19.9804 12.3894 19.9804 11.3623C19.9804 10.3352 20.8078 9.50785 21.8349 9.50785C22.862 9.50785 23.6894 10.3352 23.6894 11.3623C23.6894 12.3894 22.862 13.2168 21.8349 13.2168Z" fill="white"/>
</svg>
