<svg width="42" height="20" viewBox="0 0 42 20" fill="none" xmlns="http://www.w3.org/2000/svg">
<path d="M23.7315 11.4951C23.6903 11.2542 23.6202 11.019 23.5227 10.7947C23.2393 10.1287 22.7535 9.56777 22.1334 9.19067C21.6436 8.90343 21.0847 8.75382 20.5162 8.7578C19.9477 8.76178 19.3909 8.91919 18.9053 9.21326C18.4528 9.48317 18.0861 9.87473 17.8474 10.3429C17.7661 10.5029 17.6978 10.6691 17.6431 10.8399C17.4953 11.2835 17.4388 11.7522 17.4771 12.218C17.5153 12.6838 17.6474 13.1372 17.8655 13.551C18.0148 13.8043 18.2426 14.0025 18.5148 14.1158C18.6506 14.1721 18.7979 14.1958 18.9446 14.1848C19.0914 14.1738 19.2334 14.1285 19.3593 14.0526C19.4977 13.9433 19.6011 13.7961 19.6568 13.6292C19.7124 13.4622 19.7179 13.2827 19.6726 13.1127C19.5671 12.6808 19.5781 12.2288 19.7043 11.8024C19.7545 11.663 19.8351 11.5364 19.9404 11.4318C20.0058 11.3691 20.081 11.3173 20.1629 11.2782C20.334 11.1926 20.5272 11.1611 20.7168 11.1878C20.8813 11.2232 21.035 11.297 21.1652 11.403C21.2955 11.5091 21.3985 11.6444 21.4659 11.7978C21.592 12.0986 21.6583 12.4208 21.6612 12.7467C21.6635 14.2183 21.4447 15.6819 21.0119 17.089C20.9711 17.2336 20.9302 17.3737 20.8939 17.5183C20.8576 17.6629 20.8031 17.7668 20.8939 17.8752C20.9256 17.92 20.9698 17.9546 21.021 17.9746C21.2389 18.0605 21.4115 17.9294 21.5567 17.7849C22.3815 16.9057 22.9893 15.8476 23.332 14.6942C23.4746 14.2716 23.5884 13.8398 23.6725 13.4019C23.8022 12.77 23.8252 12.121 23.7406 11.4816" fill="#008375"/>
<path d="M29.8336 4.7987C29.8319 4.749 29.8201 4.70016 29.7989 4.65516C29.7776 4.61016 29.7474 4.56995 29.71 4.53697C29.6726 4.50399 29.6288 4.47893 29.5814 4.46334C29.534 4.44774 29.4838 4.44193 29.4341 4.44625C29.2249 4.47505 29.0222 4.53923 28.8348 4.63602C25.0099 5.99835 20.9027 6.38365 16.8894 5.75661C16.2129 5.65721 15.5273 5.52617 14.8463 5.41773C14.4195 5.34995 13.9973 5.25506 13.5705 5.22343C13.1846 5.14975 12.785 5.22573 12.4536 5.4358C12.2833 5.62213 12.1778 5.85796 12.1524 6.10853C12.1271 6.3591 12.1833 6.61115 12.3128 6.8275C12.602 7.32039 13.0212 7.72511 13.5251 7.99779C13.9927 8.32758 14.5461 8.51587 15.1187 8.54001C16.6321 8.4406 18.1455 8.28999 19.6589 8.08816C22.2242 7.75831 24.9074 7.44653 27.3183 6.45698C28.1159 6.1413 28.8672 5.72032 29.5521 5.20536C29.6747 5.11499 29.8518 4.96136 29.8518 4.78514" fill="#008375"/>
<path d="M19.0732 3.51996C19.0732 3.90943 19.2287 4.28295 19.5054 4.55835C19.7822 4.83375 20.1575 4.98847 20.5488 4.98847C20.9402 4.98847 21.3155 4.83375 21.5922 4.55835C21.8689 4.28295 22.0244 3.90943 22.0244 3.51996C22.0242 3.39835 21.9979 3.27819 21.9472 3.16752C21.8201 2.90093 21.6748 2.76989 21.693 2.44908C21.693 2.01982 21.1527 1.99723 20.853 1.99723C20.5199 1.98643 20.1888 2.05296 19.8859 2.19153C19.6508 2.31066 19.4517 2.49003 19.3093 2.71116C19.16 2.93686 19.0782 3.20009 19.0732 3.47026V3.5064" fill="#D50037"/>
</svg>
