<svg width="42" height="20" viewBox="0 0 42 20" fill="none" xmlns="http://www.w3.org/2000/svg">
<path d="M19.9175 11.8291C20.0894 11.8291 20.3645 11.9666 20.7542 12.3792C22.5446 14.3678 24.6371 16.0619 26.9547 17.3993C27.2298 17.5483 27.3788 17.6629 27.3788 17.8119C27.3788 17.9609 27.3788 18.0296 27.1267 18.0296C25.9569 17.8879 24.8048 17.6267 23.6883 17.2503C23.0579 16.9523 21.6825 15.8405 20.055 13.021C19.855 12.7761 19.7209 12.4842 19.6653 12.1729C19.6571 12.1335 19.6573 12.0929 19.6658 12.0536C19.6743 12.0143 19.691 11.9772 19.7147 11.9448C19.7385 11.9123 19.7689 11.8853 19.8038 11.8653C19.8387 11.8454 19.8774 11.8331 19.9175 11.8291Z" fill="#659AD2"/>
<path d="M25.3502 3.77206C25.3502 3.77206 25.7513 4.56289 21.9118 5.10157L22.611 3.11879C22.6651 2.99819 22.6891 2.8662 22.6808 2.73425C22.6726 2.6023 22.6322 2.47437 22.5634 2.3615C22.4945 2.24863 22.3992 2.15422 22.2857 2.08647C22.1721 2.01872 22.0438 1.97966 21.9118 1.97266C21.7149 1.98962 21.5277 2.06534 21.3744 2.19C21.2212 2.31467 21.1089 2.48252 21.0522 2.67178L19.906 5.3079C18.8608 5.38877 17.8109 5.38877 16.7656 5.3079C16.0665 5.23914 15.8832 5.62879 15.8832 6.02994C15.8832 6.71762 17.1095 7.42825 17.8889 7.34802L19.035 7.24487L14.7484 17.0328C14.588 17.3996 14.4505 17.9841 15.184 17.9841C15.9175 17.9841 17.5794 17.3079 17.8545 16.5285L19.78 11.0959C20.6671 10.9279 21.5623 10.8055 22.462 10.7291C22.9089 10.7291 23.1496 10.9354 23.1496 11.1875C23.1496 11.7491 21.7972 13.3652 19.1726 15.3595C18.886 15.5772 19.1725 15.7492 19.2757 15.7492C20.3914 15.2519 21.436 14.6082 22.3817 13.8351C23.3674 13.0901 25.0751 11.1646 25.0751 9.80072C25.0751 9.2735 24.8459 8.78068 23.7685 8.78068C22.6911 8.78068 20.8917 9.0099 20.4906 9.05574C20.7542 8.33368 20.9949 7.62309 21.2356 6.95834C23.2642 6.68327 24.4677 6.49985 25.1783 6.35085C26.164 6.14455 26.9548 5.58295 26.9548 4.99843C26.9548 3.7606 25.3502 3.77206 25.3502 3.77206Z" fill="#632D00"/>
</svg>
