<svg width="33" height="32" viewBox="0 0 33 32" fill="none" xmlns="http://www.w3.org/2000/svg">
<g id="Frame 1094244">
<rect id="Rectangle 5238" x="1.5" y="0.5" width="31" height="31" rx="7.5" fill="white" stroke="white"/>
<path id="&#239;&#163;&#191;" d="M17.2078 9.97031C17.9844 9.97031 18.9578 9.44531 19.5375 8.74531C20.0625 8.11094 20.4453 7.225 20.4453 6.33906C20.4453 6.21875 20.4344 6.09844 20.4125 6C19.5484 6.03281 18.5094 6.57969 17.8859 7.3125C17.3938 7.87031 16.9453 8.74531 16.9453 9.64219C16.9453 9.77344 16.9672 9.90469 16.9781 9.94844C17.0328 9.95937 17.1203 9.97031 17.2078 9.97031ZM14.4734 23.2047C15.5344 23.2047 16.0047 22.4937 17.3281 22.4937C18.6734 22.4937 18.9688 23.1828 20.15 23.1828C21.3094 23.1828 22.0859 22.1109 22.8187 21.0609C23.6391 19.8578 23.9781 18.6766 24 18.6219C23.9234 18.6 21.7031 17.6922 21.7031 15.1438C21.7031 12.9344 23.4531 11.9391 23.5516 11.8625C22.3922 10.2 20.6312 10.1562 20.15 10.1562C18.8484 10.1562 17.7875 10.9437 17.1203 10.9437C16.3984 10.9437 15.4469 10.2 14.3203 10.2C12.1766 10.2 10 11.9719 10 15.3187C10 17.3969 10.8094 19.5953 11.8047 21.0172C12.6578 22.2203 13.4016 23.2047 14.4734 23.2047Z" fill="#262626"/>
</g>
</svg>
