<svg width="33" height="32" viewBox="0 0 33 32" fill="none" xmlns="http://www.w3.org/2000/svg">
<g id="Frame 1094244">
<rect id="Rectangle 5238" x="1" y="0.5" width="31" height="31" rx="7.5" fill="#FFF500" stroke="#FFF500"/>
<path id="Vector" fill-rule="evenodd" clip-rule="evenodd" d="M16.5 10C12.6363 10 9.5 12.4759 9.5 15.5293C9.5 17.4915 10.7985 19.2144 12.7479 20.1971L12.0875 22.6602C12.062 22.7368 12.0843 22.8166 12.1386 22.8708C12.1768 22.9091 12.2279 22.9283 12.2821 22.9283C12.3236 22.9283 12.3651 22.9123 12.4034 22.8836L15.2397 20.9692C15.6513 21.0267 16.0725 21.0618 16.5 21.0618C20.3637 21.0618 23.5 18.5859 23.5 15.5325C23.5 12.4791 20.3669 10.0032 16.5 10.0032V10Z" fill="#040000"/>
</g>
</svg>
