<svg width="111" height="55" viewBox="0 0 111 55" fill="none" xmlns="http://www.w3.org/2000/svg">
<path d="M48.6677 0.5L42.1684 37.1667H33.2058L37.1368 15.1771L24.9769 37.1667H17.7439L13.3412 15.0726L9.46264 37.1667H0.5L6.99923 0.5H17.5867L23.4569 25.8846L38.1326 0.5H48.6677Z" fill="white"/>
<path d="M64.0755 0.5L57.5763 37.1667H48.6136L55.1128 0.5H64.0755Z" fill="white"/>
<path d="M97.0392 0.5L95.8337 7.55128H86.0325L80.7912 37.1667H71.8285L77.0698 7.55128H67.321L68.5789 0.5H97.0392Z" fill="white"/>
<path d="M110.5 0.5L104.001 37.1667H95.0381L101.537 0.5H110.5Z" fill="white"/>
<path d="M10.5 44.5V54.5H8.94262V47.6511L6.04645 54.5H4.96721L2.05738 47.6511V54.5H0.5V44.5H2.18033L5.51366 52.3417L8.83333 44.5H10.5Z" fill="white"/>
<path d="M19.0714 52.4598H14.9143L14.2 54.5H12.5L16.0571 44.5H17.9429L21.5 54.5H19.7857L19.0714 52.4598ZM18.6143 51.1236L17 46.4828L15.3714 51.1236H18.6143Z" fill="white"/>
<path d="M29.2594 54.5L25.2143 50.0252V54.5H23.5V44.5H25.2143V49.0612L29.2744 44.5H31.4248L26.8835 49.5072L31.5 54.5H29.2594Z" fill="white"/>
<path d="M34.9844 45.8362V48.7672H38.1094V50.1034H34.9844V53.1638H38.5V54.5H33.5V44.5H38.5V45.8362H34.9844Z" fill="white"/>
<path d="M45.7654 44.5V54.5H44.1778V44.5H45.7654Z" fill="white"/>
<path d="M54.5194 44.5V45.8381H51.9431V54.5H50.3556V45.8381H47.7654V44.5H54.5194Z" fill="white"/>
<path d="M66.9512 44.5V45.8381H64.375V54.5H62.7874V45.8381H60.1972V44.5H66.9512Z" fill="white"/>
<path d="M75.3571 52.4598H71.3047L70.6084 54.5H68.9512L72.4188 44.5H74.257L77.7245 54.5H76.0534L75.3571 52.4598ZM74.9115 51.1236L73.3379 46.4828L71.7503 51.1236H74.9115Z" fill="white"/>
<path d="M85.0581 54.5L81.3121 50.0252V54.5H79.7245V44.5H81.3121V49.0612L85.072 44.5H87.0634L82.8578 49.5072L87.1331 54.5H85.0581Z" fill="white"/>
<path d="M90.7206 45.8362V48.7672H94.0628V50.1034H90.7206V53.1638H94.4806V54.5H89.1331V44.5H94.4806V45.8362H90.7206Z" fill="white"/>
<path d="M101.746 44.5V54.5H100.158V44.5H101.746Z" fill="white"/>
<path d="M110.5 44.5V45.8381H107.924V54.5H106.336V45.8381H103.746V44.5H110.5Z" fill="white"/>
</svg>
