<svg width="14" height="15" viewBox="0 0 14 15" fill="none" xmlns="http://www.w3.org/2000/svg">
<g id="Group 3476">
<path id="Vector" d="M7.96928 0.856847L8.91893 1.66614C9.15818 1.87003 9.45525 1.9933 9.76859 2.0183L11.0123 2.11742C11.7435 2.17578 12.3244 2.75623 12.3827 3.48746L12.4816 4.73139C12.5066 5.04474 12.6303 5.34224 12.8342 5.58149L13.6431 6.53089C14.1189 7.08921 14.119 7.91048 13.6432 8.4688L12.8343 9.41834C12.6304 9.65759 12.5068 9.9552 12.4818 10.2686L12.3823 11.5123C12.324 12.2435 11.7441 12.8243 11.0128 12.8827L9.76867 12.982C9.45533 13.007 9.15798 13.1299 8.91873 13.3338L7.96928 14.1431C7.41096 14.6189 6.58919 14.619 6.03088 14.1432L5.08143 13.3339C4.84217 13.13 4.54482 13.0068 4.23148 12.9818L2.98732 12.8827C2.25609 12.8243 1.67618 12.2437 1.61783 11.5124L1.51832 10.2686C1.49332 9.95528 1.36978 9.65793 1.16589 9.41868L0.356956 8.46884C-0.118837 7.91052 -0.11906 7.08951 0.356733 6.53119L1.16639 5.58135C1.37028 5.3421 1.49264 5.04474 1.51764 4.73139L1.61714 3.48761C1.6755 2.75637 2.25708 2.1757 2.98831 2.11735L4.23109 2.01822C4.54444 1.99322 4.84194 1.87006 5.08119 1.66617L6.03096 0.856847C6.58927 0.381051 7.41096 0.381051 7.96928 0.856847Z" fill="#4065F6"/>
<path id="Vector_2" d="M9.33373 5.94434L6.22257 9.05552L4.66699 7.49993" stroke="white" stroke-linecap="round" stroke-linejoin="round"/>
</g>
</svg>
