<svg width="40" height="40" viewBox="0 0 40 40" fill="none" xmlns="http://www.w3.org/2000/svg">
<path d="M19.5223 1.54591C19.6675 1.07607 20.3325 1.07607 20.4777 1.54591L24.6125 14.9263C24.6772 15.1358 24.8709 15.2786 25.0902 15.2786H38.5219C39.0001 15.2786 39.2054 15.8856 38.8254 16.176L27.9165 24.5096C27.75 24.6368 27.6804 24.8544 27.7423 25.0546L31.8988 38.5054C32.0426 38.9705 31.5044 39.3459 31.1176 39.0504L20.3035 30.7892C20.1243 30.6523 19.8757 30.6523 19.6965 30.7892L8.88242 39.0504C8.49557 39.3459 7.95745 38.9705 8.10117 38.5054L12.2577 25.0546C12.3196 24.8544 12.25 24.6368 12.0835 24.5096L1.17462 16.176C0.79456 15.8856 0.999881 15.2786 1.47815 15.2786H14.9098C15.1291 15.2786 15.3228 15.1358 15.3875 14.9263L19.5223 1.54591Z" fill="#E9E9E9"/>
<path d="M19.5571 1.43313C19.6338 1.18491 20 1.2402 20 1.5V7.73901V14.9252L19.9999 20.4531L20 23.217V30.31C20 30.4659 19.9274 30.6128 19.8035 30.7074L8.88242 39.0504C8.49557 39.3459 7.95745 38.9705 8.10117 38.5054L12.2577 25.0546C12.3196 24.8544 12.25 24.6368 12.0835 24.5096L1.17462 16.176C0.79456 15.8856 0.999881 15.2786 1.47815 15.2786H14.9098C15.1291 15.2786 15.3228 15.1358 15.3875 14.9263L19.5571 1.43313Z" fill="#FADD0C"/>
</svg>
