<svg width="30" height="30" viewBox="0 0 30 30" fill="none" xmlns="http://www.w3.org/2000/svg">
<g id="Group 3886">
<rect id="Rectangle 5238" x="0.5" y="0.5" width="29" height="29" rx="7.5" fill="#FFF500" stroke="#FFF500"/>
<path id="Vector" fill-rule="evenodd" clip-rule="evenodd" d="M15.0041 9C11.6901 9 9 11.1236 9 13.7426C9 15.4257 10.1138 16.9035 11.7859 17.7464L11.2194 19.8591C11.1975 19.9247 11.2166 19.9932 11.2632 20.0397C11.296 20.0725 11.3398 20.0889 11.3863 20.0889C11.4219 20.0889 11.4575 20.0753 11.4903 20.0506L13.9231 18.4086C14.2762 18.4579 14.6374 18.488 15.0041 18.488C18.3181 18.488 21.0082 16.3643 21.0082 13.7454C21.0082 11.1264 18.3209 9.00274 15.0041 9.00274V9Z" fill="#040000"/>
</g>
</svg>
