<svg width="17" height="17" viewBox="0 0 17 17" fill="none" xmlns="http://www.w3.org/2000/svg">
<path id="Vector" d="M0 6.71289C0 10.1577 2.80518 12.9629 6.25 12.9629C7.74658 12.9629 9.11865 12.438 10.1953 11.5566L15.1758 16.5371L16.0742 15.6387L11.0938 10.6582C11.9751 9.58154 12.5 8.20947 12.5 6.71289C12.5 3.26807 9.69482 0.462891 6.25 0.462891C2.80518 0.462891 0 3.26807 0 6.71289ZM1.25 6.71289C1.25 3.94434 3.48145 1.71289 6.25 1.71289C9.01855 1.71289 11.25 3.94434 11.25 6.71289C11.25 9.48144 9.01855 11.7129 6.25 11.7129C3.48145 11.7129 1.25 9.48144 1.25 6.71289Z" fill="#969696"/>
</svg>
