<svg width="111" height="46" viewBox="0 0 111 46" fill="none" xmlns="http://www.w3.org/2000/svg">
<mask id="path-1-inside-1_1485_11138" fill="white">
<path fill-rule="evenodd" clip-rule="evenodd" d="M16 0C7.16344 0 0 7.16344 0 16V19C0 27.8366 7.16344 35 16 35L44 35L54.1705 44.6083C54.9414 45.3365 56.1466 45.3365 56.9175 44.6083L67.088 35H95C103.837 35 111 27.8366 111 19V16C111 7.16344 103.837 0 95 0H16Z"/>
</mask>
<path fill-rule="evenodd" clip-rule="evenodd" d="M16 0C7.16344 0 0 7.16344 0 16V19C0 27.8366 7.16344 35 16 35L44 35L54.1705 44.6083C54.9414 45.3365 56.1466 45.3365 56.9175 44.6083L67.088 35H95C103.837 35 111 27.8366 111 19V16C111 7.16344 103.837 0 95 0H16Z" fill="#4065F5"/>
<path d="M16 35V34V35ZM44 35L44.6867 34.2731L44.3977 34H44V35ZM54.1705 44.6083L53.4838 45.3352V45.3352L54.1705 44.6083ZM56.9175 44.6083L56.2307 43.8814L56.9175 44.6083ZM67.088 35V34H66.6903L66.4013 34.2731L67.088 35ZM1 16C1 7.71573 7.71573 1 16 1V-1C6.61116 -1 -1 6.61116 -1 16H1ZM1 19V16H-1V19H1ZM16 34C7.71573 34 1 27.2843 1 19H-1C-1 28.3888 6.61116 36 16 36V34ZM44 34L16 34V36L44 36V34ZM54.8573 43.8814L44.6867 34.2731L43.3133 35.7269L53.4838 45.3352L54.8573 43.8814ZM56.2307 43.8814C55.8453 44.2455 55.2427 44.2455 54.8573 43.8814L53.4838 45.3352C54.6401 46.4275 56.4479 46.4275 57.6042 45.3352L56.2307 43.8814ZM66.4013 34.2731L56.2307 43.8814L57.6042 45.3352L67.7747 35.7269L66.4013 34.2731ZM95 34H67.088V36H95V34ZM110 19C110 27.2843 103.284 34 95 34V36C104.389 36 112 28.3888 112 19H110ZM110 16V19H112V16H110ZM95 1C103.284 1 110 7.71573 110 16H112C112 6.61116 104.389 -1 95 -1V1ZM16 1H95V-1H16V1Z" fill="#4065F5" mask="url(#path-1-inside-1_1485_11138)"/>
<path d="M18.5 7.75C14.7822 7.75 11.75 10.7822 11.75 14.5C11.75 15.5547 12.1777 16.7646 12.7578 18.0859C13.3379 19.4072 14.085 20.8105 14.8438 22.1172C16.3613 24.7334 17.8906 26.9219 17.8906 26.9219L18.5 27.8125L19.1094 26.9219C19.1094 26.9219 20.6387 24.7334 22.1562 22.1172C22.915 20.8105 23.6621 19.4072 24.2422 18.0859C24.8223 16.7646 25.25 15.5547 25.25 14.5C25.25 10.7822 22.2178 7.75 18.5 7.75ZM18.5 9.25C21.4092 9.25 23.75 11.5908 23.75 14.5C23.75 15.1006 23.4277 16.2373 22.8828 17.4766C22.3379 18.7158 21.585 20.0898 20.8438 21.3672C19.666 23.4004 18.9336 24.4756 18.5 25.1172C18.0664 24.4756 17.334 23.4004 16.1562 21.3672C15.415 20.0898 14.6621 18.7158 14.1172 17.4766C13.5723 16.2373 13.25 15.1006 13.25 14.5C13.25 11.5908 15.5908 9.25 18.5 9.25ZM18.5 13C17.6709 13 17 13.6709 17 14.5C17 15.3291 17.6709 16 18.5 16C19.3291 16 20 15.3291 20 14.5C20 13.6709 19.3291 13 18.5 13Z" fill="white"/>
</svg>
