<svg width="13" height="11" viewBox="0 0 13 11" fill="none" xmlns="http://www.w3.org/2000/svg">
<path d="M6.02447 0.463525C6.17415 0.0028693 6.82585 0.00287002 6.97553 0.463525L7.95934 3.49139C8.02628 3.6974 8.21826 3.83688 8.43487 3.83688H11.6186C12.1029 3.83688 12.3043 4.45669 11.9124 4.74139L9.33679 6.61271C9.16155 6.74003 9.08822 6.96572 9.15516 7.17173L10.139 10.1996C10.2886 10.6602 9.7614 11.0433 9.36955 10.7586L6.79389 8.88729C6.61865 8.75997 6.38135 8.75997 6.20611 8.88729L3.63045 10.7586C3.23859 11.0433 2.71136 10.6602 2.86103 10.1996L3.84484 7.17173C3.91178 6.96572 3.83845 6.74003 3.66321 6.61271L1.08755 4.74139C0.695696 4.45669 0.897084 3.83688 1.38145 3.83688H4.56513C4.78174 3.83688 4.97372 3.6974 5.04066 3.49139L6.02447 0.463525Z" fill="#F6F6F6"/>
<path d="M6.5 0.618034L7.48381 3.6459C7.61769 4.05792 8.00164 4.33688 8.43487 4.33688H11.6186L9.0429 6.2082C8.69241 6.46285 8.54575 6.91422 8.67963 7.32624L9.66344 10.3541L7.08779 8.48278C6.7373 8.22814 6.2627 8.22814 5.91221 8.48278L3.33656 10.3541L4.32037 7.32624C4.45425 6.91422 4.30759 6.46285 3.9571 6.2082L1.38145 4.33688L4.56513 4.33688C4.99836 4.33688 5.38231 4.05792 5.51619 3.6459L6.5 0.618034Z" stroke="black" stroke-opacity="0.2"/>
</svg>
