<svg width="119" height="52" viewBox="0 0 119 52" fill="none" xmlns="http://www.w3.org/2000/svg">
<mask id="path-1-inside-1_1359_11081" fill="white">
<path fill-rule="evenodd" clip-rule="evenodd" d="M16 8.00098C7.16344 8.00098 0 15.1644 0 24.001V27.0058C0 35.8423 7.16344 43.0058 16 43.0058H44.879L53.6824 51.3237C54.4533 52.052 55.6587 52.052 56.4295 51.3237L65.233 43.0058H95C103.837 43.0058 111 35.8423 111 27.0058V24.001C111 15.1644 103.837 8.00098 95 8.00098H16Z"/>
</mask>
<path fill-rule="evenodd" clip-rule="evenodd" d="M16 8.00098C7.16344 8.00098 0 15.1644 0 24.001V27.0058C0 35.8423 7.16344 43.0058 16 43.0058H44.879L53.6824 51.3237C54.4533 52.052 55.6587 52.052 56.4295 51.3237L65.233 43.0058H95C103.837 43.0058 111 35.8423 111 27.0058V24.001C111 15.1644 103.837 8.00098 95 8.00098H16Z" fill="white"/>
<path d="M44.879 43.0058L45.5657 42.2789L45.2767 42.0058H44.879V43.0058ZM53.6824 51.3237L52.9956 52.0505L52.9956 52.0505L53.6824 51.3237ZM56.4295 51.3237L57.1163 52.0505L57.1163 52.0505L56.4295 51.3237ZM65.233 43.0058V42.0058H64.8353L64.5462 42.2789L65.233 43.0058ZM1 24.001C1 15.7167 7.71573 9.00098 16 9.00098V7.00098C6.61116 7.00098 -1 14.6121 -1 24.001H1ZM1 27.0058V24.001H-1V27.0058H1ZM16 42.0058C7.71573 42.0058 1 35.29 1 27.0058H-1C-1 36.3946 6.61116 44.0058 16 44.0058V42.0058ZM44.879 42.0058H16V44.0058H44.879V42.0058ZM54.3692 50.5968L45.5657 42.2789L44.1922 43.7326L52.9956 52.0505L54.3692 50.5968ZM55.7428 50.5968C55.3573 50.961 54.7546 50.961 54.3692 50.5968L52.9956 52.0505C54.152 53.1431 55.96 53.1431 57.1163 52.0505L55.7428 50.5968ZM64.5462 42.2789L55.7428 50.5968L57.1163 52.0505L65.9198 43.7326L64.5462 42.2789ZM95 42.0058H65.233V44.0058H95V42.0058ZM110 27.0058C110 35.29 103.284 42.0058 95 42.0058V44.0058C104.389 44.0058 112 36.3946 112 27.0058H110ZM110 24.001V27.0058H112V24.001H110ZM95 9.00098C103.284 9.00098 110 15.7167 110 24.001H112C112 14.6121 104.389 7.00098 95 7.00098V9.00098ZM16 9.00098H95V7.00098H16V9.00098Z" fill="#4065F5" mask="url(#path-1-inside-1_1359_11081)"/>
<path d="M118.5 10.0014C118.5 15.2489 114.247 19.5027 109 19.5027C103.753 19.5027 99.5 15.2489 99.5 10.0014C99.5 4.75384 103.753 0.5 109 0.5C114.247 0.5 118.5 4.75384 118.5 10.0014Z" fill="white" stroke="#4065F5"/>
<path d="M108.268 13.5312V11.3398H106.076V9.875H108.268V7.68359H109.732V9.875H111.924V11.3398H109.732V13.5312H108.268Z" fill="#4065F5"/>
<path d="M18.5 15.7529C14.7822 15.7529 11.75 18.7852 11.75 22.5029C11.75 23.5576 12.1777 24.7676 12.7578 26.0889C13.3379 27.4102 14.085 28.8135 14.8438 30.1201C16.3613 32.7363 17.8906 34.9248 17.8906 34.9248L18.5 35.8154L19.1094 34.9248C19.1094 34.9248 20.6387 32.7363 22.1562 30.1201C22.915 28.8135 23.6621 27.4102 24.2422 26.0889C24.8223 24.7676 25.25 23.5576 25.25 22.5029C25.25 18.7852 22.2178 15.7529 18.5 15.7529ZM18.5 17.2529C21.4092 17.2529 23.75 19.5938 23.75 22.5029C23.75 23.1035 23.4277 24.2402 22.8828 25.4795C22.3379 26.7188 21.585 28.0928 20.8438 29.3701C19.666 31.4033 18.9336 32.4785 18.5 33.1201C18.0664 32.4785 17.334 31.4033 16.1562 29.3701C15.415 28.0928 14.6621 26.7188 14.1172 25.4795C13.5723 24.2402 13.25 23.1035 13.25 22.5029C13.25 19.5938 15.5908 17.2529 18.5 17.2529ZM18.5 21.0029C17.6709 21.0029 17 21.6738 17 22.5029C17 23.332 17.6709 24.0029 18.5 24.0029C19.3291 24.0029 20 23.332 20 22.5029C20 21.6738 19.3291 21.0029 18.5 21.0029Z" fill="#4065F5"/>
</svg>
